<mxfile host="65bd71144e">
    <diagram id="7NK2MVC-H4HLxtdkeNdz" name="Page-1">
        <mxGraphModel dx="446" dy="261" grid="1" gridSize="10" guides="1" tooltips="1" connect="1" arrows="1" fold="1" page="1" pageScale="1" pageWidth="850" pageHeight="1100" math="0" shadow="0">
            <root>
                <mxCell id="0"/>
                <mxCell id="1" parent="0"/>
                <mxCell id="7" value="&lt;span style=&quot;font-weight: 400;&quot;&gt;Report&lt;/span&gt;" style="swimlane;whiteSpace=wrap;html=1;" parent="1" vertex="1">
                    <mxGeometry x="400" y="80" width="200" height="230" as="geometry"/>
                </mxCell>
                <mxCell id="8" value="&lt;div style=&quot;&quot;&gt;&lt;b&gt;&lt;u&gt;report_id&lt;/u&gt;&lt;/b&gt;&lt;/div&gt;&lt;div style=&quot;&quot;&gt;&lt;b&gt;&lt;u&gt;&lt;br&gt;&lt;/u&gt;&lt;/b&gt;&lt;/div&gt;&lt;div style=&quot;&quot;&gt;&lt;b&gt;&lt;u&gt;title_id&lt;/u&gt;&lt;/b&gt;&lt;/div&gt;&lt;div style=&quot;&quot;&gt;&lt;b&gt;&lt;u&gt;&lt;br&gt;&lt;/u&gt;&lt;/b&gt;&lt;/div&gt;&lt;div style=&quot;&quot;&gt;&lt;b&gt;&lt;u&gt;author_id&lt;/u&gt;&lt;/b&gt;&lt;/div&gt;&lt;div style=&quot;&quot;&gt;&lt;b&gt;&lt;u&gt;&lt;br&gt;&lt;/u&gt;&lt;/b&gt;&lt;/div&gt;&lt;div style=&quot;&quot;&gt;&lt;b&gt;&lt;u&gt;date_id&lt;/u&gt;&lt;/b&gt;&lt;/div&gt;&lt;div style=&quot;&quot;&gt;&lt;b&gt;&lt;u&gt;&lt;br&gt;&lt;/u&gt;&lt;/b&gt;&lt;/div&gt;&lt;div style=&quot;&quot;&gt;&lt;b&gt;&lt;u&gt;time_id&lt;/u&gt;&lt;/b&gt;&lt;/div&gt;&lt;div style=&quot;&quot;&gt;&lt;b&gt;&lt;u&gt;&lt;br&gt;&lt;/u&gt;&lt;/b&gt;&lt;/div&gt;&lt;div style=&quot;&quot;&gt;content&lt;/div&gt;&lt;div style=&quot;&quot;&gt;&lt;br&gt;&lt;/div&gt;&lt;div style=&quot;&quot;&gt;abstract&lt;br&gt;&lt;/div&gt;" style="text;html=1;align=left;verticalAlign=middle;resizable=0;points=[];autosize=1;strokeColor=none;fillColor=none;" parent="7" vertex="1">
                    <mxGeometry x="10" y="30" width="80" height="200" as="geometry"/>
                </mxCell>
                <mxCell id="18" value="" style="shape=image;verticalLabelPosition=bottom;labelBackgroundColor=default;verticalAlign=top;aspect=fixed;imageAspect=0;image=data:image/webp,UklGRoJEAABXRUJQVlA4WAoAAAAMAAAAUQMAfAIAVlA4IDZBAADQKgGdASpSA30CPm02mEkkIqKhIZNYyIANiWdu/D65inHv8kmUrhN4f/u/4/wk5R8V/oP75+5/9998Ksv5T8mfLrapfC9B/9/7hvm3/s/+l7Hv1z/2f7z8AH6i+on/hfsd77v3D/WT/JfAP9k/+3/nPeU/vv7Pe6/+/f4L/mf3r/b/Ib/Qf7X6Z3sZf3//lewf+x3/n9df9x/ha/sf+//cn4H/2i/+XZu9Lf1x/ufpP+M/qX+V/v37geg/4l86/g/7Z/iv+R/gvcDzX9b+o78j+7v7b+9egX+7/xPiT+P/sv+r/vP7w/6v5AvyD+b/5b+wfuL7i3znZB6h/lv/R/mfYF9lfpf/D/yP5cell9N+pH2P/7HuAfz3/Aek3/S8CL8D/z/YB/o/+c9VD+u/+v+x/0npr/Rv85/9v9T8BX89/vn/i9dv//++D0e/3W//4G9SUi4DVFABP4azjAvfRljxqSwa4uh7qkqkgfDiwKLi5YtGqNifN3PW39xdEGg92Sm4x5XSUWUOb3AkXd1d8ExxHi3qyn2DxhXYv8YCycfjJ6WDpP4DUefZ2rINDuyEQ4PAqPRcsUdpzAMLRLXVxNxJT0e14mkBtQvBbjF5CHR+LcA4GtrOMzvkCM/iqo5eJSyY9gvgzB82394c1gWvyAqou2ZCKwLJ367v1eHDwfmDEeOxLRoC/abdRLwpN4aWxYjvaPaXCJLhrBSPyymTM+C4yE7DkbG12pjqWIlgMqvqbTYxXN9EsrwpwhlgTzdQ+wFQ5DZq0aoO99AxNW/Awqou2ZCKwLX5AVUXbMhFYFr8gKqLtmQmii7ZkIrAtfkBVRdsyEVgWvyAqou2ZCKwN6mQisC1+QFVF2zIRWBa/ICqi7ZkIrAtfltRALX5AVUXbMhFYFr8gKqLtmQisC1+QFWNAwqou2ZCKwLX5AVUXbMhFYFr8gKqLtmRTLsyEVgWvyAqou2ZCKwLX5AVUXbMhFYFseBzWBa/ICixVfsukmjISJjddqRLe92CQBpiQ2rjNXN7EAqou2ZCKwLX5AVUXbQRaXZkIq+d32nJ//4a6e7cG0j+5AfCQDAg7SJdMzVhuJVoIBVRdsyEVgWvyAqpb1BAKqK2nEmbViXlluICl2ZB58yZxxOVc22Ew0o5rAtfkBVRdsyEVgb1MhFYEPBaiqViEM5cJ1+QFVF0I3PlGvgZsWMKqLtmQisC1+QFVGTfiLBfCr5Y+5jDlyo6GqLtmQisCFYIG1ykG5koIBVRdsyEVgWvyAsYlkQy4RcqeEjrq5Q+jh9+K+n8JqKVd/eHNYFr8QqK5w9S9DZjIRWBa/ICqi7ZkJoorGWuD2mZyRogLt+u1uEWYs2mhYRJSAqou2ZB55sNIlGsiIjmsC1+QFVF2zITRRWMQtPFVKZYQKoa5HCw/Wj8BfxRdsyEVgWvlYBBE8OBmh/Pd9MMtT/RwPIXeyJ02zET1W3IrQKDH9D7AVYjr5wXm2jHk7LLg2ubQJ5KM2dxtrmN8VwEIPnZ2EF/XrtPrRLxA3Ffx/Sdy+jpciCC1v0WkFd6fmNzCkz3SlgjPqY5HP9M+Le8ILtmQisC1+PgLPDL6TMzCu1hL2d7uq5qf4rAtfkBVRdvuAVUXbMhFYFr8RImTItW3nfmuV32KIQV26wYMqnhp1XrX5AVUXbMhF/wf3hzWBa/ICp8J4bu/D3f5XtCpoWoGZs4b+RqA9fMSvZ4tNDb9p8sQSynzWV0no1V53Mu73xRYOwocjbvGl2ZFMuzIRWBa/ICqfpcKici7k290sn2aDq5tg5DDJLjWk4o77enbpQfchJ/dRvdFaZ8IAs6w5N/s7nXlC/1KaZCFk+oek0+yBMzkl91rrTOcqpydsl0LbmnbX0p/ekWcTOD8564ELYPFKWQoMdQzNwBLfAk+dJbVIxnHoB2pcRPfpk5AOe9Xc+6q4PHesuzIRV9Ir0sqYaW88G1TWXQfQmjbRnmV329QbDf8MV76FCL7cKtRx9Vl+Itafxg8n113VCufIMhEHKHkk3l9orTjYW+LhzE6NJz1SxTM1eG3przoBPhMs0jmGDP4uYYNHWEbhzEzKRvo00auTKCXYY8JEo34NO/0rzyZQf3hzV8tvnLWlYFGcp7weojOJbk1LkUBB19lIH54DeiEgIpXxgCT16Qh1DrtIYnSs+I8wQiWPIjdvfb/4FsAu27l5CKwLX4jBeaMouSIe9AOp2uAU14e44cDeI0MBFK4uzCvXKwGSKISue0il63OokqCd91jhy1nzJu645oAP1GYWBjxtBwlrf4EUdyeTNMhMaKubWHJYaZ5bweoSJfKSV9pi+nKsvHfmFVF2zIRWBjktJYOGAx0BG/a/IBUjy8LI0JK7T5yjouci6XERXaw9KuB6hVg3/caX1C4U1NBh77T8j/Y2w3TFnR/MSrFBYxEc9a/ICqi7ZkIlSR8W9iL6zIRWBa/Hwz6zkm+fh0gDsPr9kWNL7nMmQ5T8BYEUjhXSCuu2T9f+fGm6g8JDtsZgktfkBVRdsw0W1AHy8jFBAKqLtmQisK6EVgWQ7pxU9sS//VKodjgvxe+wOLDp3Ey1BAKqLtmQiU+zsCEhYFr8gKqLtmRTLsyESzEbJ6TgdaqQnWwXDY/gWvyAqou02hr0OsopaKwLX5AVUXbMimXZkIrAtbcre/mNnfX88PZkIrAtfMcSaHWTvF7cwqou2ZCKwLX5bUQC1+QFU/yRCLq64Mh3CsO7b8gKqLoiXRV3PrG7izWBa/ICqi7ZkJoou2ZCKwLWwl9jRcuUEh7zoMIRWBa1/vV1Z33ICMjj+8OawLX5AVUXb7gFVF2zIRV9asTG/SezuVem7/F+QCT5y9w5f+0zzdiEaXZkIrAtfkBVReRiAVUXbMhFYEUiKzI00k++81vHprcHPO9lodYS7vocz8ztN1YqHn8VXNJSAqou2ZCKwLX5CcsC1+QFVF2zIRWH2hAKqLtmQisC1+QFVGTfkBVRdsyEVgWv8p61+QFVF2zIRWBa/ICxiWvyAqou2ZCKwN6mQisC1+QFVF2zIRWBcn4c1gWvyAqou2ZoEuzIRWBa/ICqi7ZkIrZ7+8OawLX5AVUXkYgFVF2zIRWBa/ICqi7fcAqou2ZCKwLX5CcsC1+QFVF2zIRWBa/IEBgWvyAqou2ZCKwroRWBa/ICqi7ZkIrAtf5T1r8gKqLtmQisK6EVgWvyAQAAD+4HKq3h6rTiIjeWvfKhdbnv9BhS4NmZFP3yokVLh/IcOBuZ9o73aPIGa6o/rAkdssBjCtjpUNsOlOSQeZk+THf/MZDPeJLYtI7U0yItaiiNhP4532Ph95y3VUjKSoD8Qj5Y7a6XCCq4+EoGhc+UxcVr+iyjIEj6DUfugVVs8hjIrO47SttJcJI4KqYqZ3uqSeFWlw6eliVgkprRuAN64v+A1Vuf7iEyRt8n4b4xiAM1Bd6aPUdknrPRrgOD1FW436p03RNfcCplbBKsqxPXorR/LakHmQbxe0RTOgcy/JoHajL7azq64jVRdKCJKI7/z/KdIL9r8l1XDhu4neTuLJHLpVkgF4T7a4x5PO80ml4SBfYJQB9iUI4XpJWVcx9EDpbzwZEXRoYdLiONmxS+SCQ9WIQvvZgtqfeKSlTyuJipaPGLj+fDHfM4V0b1SdxikfbxlPG6IjdfkMbOJOLaenMTbXokOHeEDcVHXcKOKYAxHsKWSraiyPUbvlUIGNHhGpq/Af1wV2qcgfCLPdgd2GrqOC6MuRV1UZ1TsZnlOtWhujVyE8jdllEdiak5yzIlyA24d9AZwMHhFYDyLAkPClKkBahjF57oNpHGb/kkKG2tFsIQ5r6ePZhs+cIzi5Mb833O9CLDxq+8qfhhEekt9LN1fw7lgPFyU/7d8JKdjqgRgCMc3kcmoxxDMotvwY7i7Q5XIdx6xMp0vAb8u07N/X2ZpvCUl9oLfFifLOByCWYpXUSYVFwI+Eds+a6O8FCdy+eADol856DlHm62nuIXvGMZx85wvsTN9ua9MHVQT147Njo0ev0/p+g8NqluOkwj81gSzlSTPpwqNZmgWoPx0RKRhjwL/E1C7TfzsqAh1xZAN9MxyoB+jihk8lkxj9v81S1NM1h+3lZjkPPWLSxP5RXJQmLs4sCKyv92c+NafxMveWIlBFp+r1/P8hfvfFHWSgWHpi66PGmclF6fbcQJmRR30XfpJinRn32tIHteeNtMF9TSmx0znMHqG50ZN/VRqX7jvJvzognRMUZGkm3UqR+ePNgKqVxTgZF/hDuNuLyxsDMuT+PuKfgGvN/8PZpq/qz1LeJHN8CtEHXH89xfeLuzedA5RVyHTNdGBsoRx2JxJO69W5wpxTi31JDwY+t9dm7YqOSVQuE8CoI7Og0T8qh8wxmDtaGQhGdRTn24rXxZJRzxhvkEglbDKXt7SU5Wc+BPPZIbunR/KgZP5eGOoDH8DBUeaZbbX0fmMfTeXPLt09RvSnLSDUNNyAQwTldKAB3HeRcsKzC5cf5NPJxdqzKgah7EVgmOuD6CCzk37Y4fxhn91nD+oQimPBtoD/DSuxvdVvGdAv8yOt1oRJ6yEsXKrEeqLitnUEezwAcIcnzliOoe4xTEo1Sfrgyalzd3eeRvhE4hrB3GuZET6MLPwj/ZhOu0gPGoyPROlxXasXj8gGEYHP+Qh11iNtXsqfpRqJuQ1gCucKqoaQWEc6YJz+YNjd6Rq1iIXzSzW6XjfvgtTLwcw7/oi96Vke/vnOAqw2qeIFLCyM0Ks10W07N/X2ZpvB3eTQOqLkcvAHAPe3jwVANMX9HWmxaSwZe8DtrHH5KgC/kZtrj37Y0lJK0KeJDBMtidBUAlJrRS4f73XN6QD8f6xHQMmbm4XGNBo1ndscBgWey1AuIsg0vJ+Dh95VuRe9pdiHYJC/gYXy5AskXTDKOMiFAMKYSSR5xd+uQ+mDBfqTSOZZ/F+lG3DZk8Y/VznhNM5qNJjiah5Ypc1gQGJSrxnE3BBVz/CE+uDdBtu14FpCjTv0PEnne0sEDm/firWYVKzFhHPoSZ0VgxFKeqjPzTqnNpdxqyvAWTGoW2C8YUfCzj78QAqomPu5z1+mKCgg5uUUlvBCDjje26RDaPQhZbICQohhY6OY62j5AO0JDAo1fkNnDEgWqd5vZPnV+6CYt/6CFgq9y5XyubgAzOdCsW1vfTpzdRg5noyhY6zP/nEnI8KTrmYwxaiO2q3SanlLG3eR6kjv9riMFeSG5py6UJogpVkWjUNsWOfouwYybRycya9XphQvPHuywhLPOyd810uqOPrW4Wuk4lzeEuAZeCekGfR5EvTeKogmd6yLE/PCVAtvRKXAPMpOwU56vepPWrzlmf2SaQwQoZXJIOFr/ylW0kis3jz/r5quOcPWjVJoQ7tgrkfrvQFpv8UHGMJm3AkGzJqRtvHnErT8mFBx3ZmFkOIISZrwoEFhwDv79fmW5T3zfseSxadAD9kFBu2eC8edV2k31nCuzANbhf9CnJh0XDefDoL8/h/nNMzpTRfKNG793++OViHZlFcMfppqtpdXfWi/uBzqOLHmHsTV3avH5TT1fIrBJmE9wcE6TX9g5MVyDRvaIr47kE75ytQmZMsbX8BK0Mcj5TGrFKh+uVSbF6WxNXMyUI7OZcldJoIdVz2CxAYS1c197WykL09t/7V21Zr8YtzsWtWRd83InmHjUC/dLdcPwyVt0liMStCXKDMlLhrGah4E8F1YoA1yj0GBpXBRxgZW0DjLDkH2qe0lYQGivbvsn4rJ7uCwa/eaU0yA+2o/+2ifQ7TJM7akji7Ve/yJU+SDiapSAqFAmWX7GPXSo2vModE3SknNLf3W/93sQeAzZ5vLqfa+pPffZqu60aLfD23fMo5Tan6rUpKPTM/+iNLwJEEfZ25OFC9QJ4dmlrN5A8IFK0ImUm98xgvmWF0VpWI6GU45y62GuZFBzjadEZRnDkq8d2etlFyAwMS2dKMJn9o5jpGtSYA4T2AfsbQ7rlRrUj36K+mLSMf1h89e5KoC4CIm/IJAk2RIuVZ5n+NHXd1Zvmv9yTeZ/wH/m037GA66bUZ25UtYewNztgiPcy7sLb83feHDFKUe/K/TEfe3EplRNl2+WO7cpSABdc/5Lw4NJmQhyG+eKlIaiHUhQI+3EF00L+4xvUNPny3Avd5YwjDoiu6ZbECqV9IoEUBkpGvz1dt1WydJtv7tyZrn3+BVdNXNEmCRptJV+7VMvJsiz+O8uhhci/uCQGsYdDnx6aVZoszhdlMUh3VAJ82416GQ1br5wq8Hk3x2QMFbOnH9KVwx+UmXZFK1xN4qAmviU6cjPDcqHjBMyZnd4GSydHhPVu0gT26++Kyq3djgI6Nhi8DTc6ZhCJWsrMgTlp0npgIUPnpCxPntwrvPvQQEbxxjiOY2jzfW0y920Xwefli7nqrqfSMghqNC+c6jLjKRdw+pSB6pOYKrW+ss0VcFZ+Rfj76tXJgrKm2ug1U0Eni3wjnq2fN+whdNTbnJj0Lqi8GJOqcDY52mDRyVFxsdUPbPG1ZqEzfka7AXi9GiTZUIFE8SeSU+0B4teT/4Lgsamdkd8Ds2MmrBfPqAeT15PPZbyruidVvk2TT76nUsXFOrBSOP3h+k8Z6CKPtpX9Ed5fEMhwMWTWit/eV4fvV/yMXyP0NDKRXDwcwexlEDIHwWsIc8a9Bxul9SwdH4XZyd5Gm1o1dxeNXYr/iP5M5MjTJmXKPKogh9BKbjpnpcpWHUgzSfPLnwSghOkpc1ftVBOn/t+4JaCNXflUL1PCwbegsSgA9vIxXEp67L9NgTp6vPyI+MDpE0bpSqRVF8J/KdgypBZwHLzT4ranibAyer179TkC3FAVtiAoUuiGxs8sH56jaQc/LE1/gSrNTozIabrv+3CwOih3tW6ZqO/Zo8JBd/ju1LzIJbSFU3fRYA//6KhV8lfNv9F84vj0WJNABrEMRfk5O+uWIbAkFnp8vdAtJA1dirCJXRyiQBhlpMkWblg7PHEwHIuoTjdZ+3kUtd6nd4NH/LcepmwRV/9NR/gpayWV0YoELGs/zhJmemiHFxCeycQWJhyfksHuYcpWC93enj1Rcv8E10BdxUQDGRd7ClLd8YbAX583FmG2W3/cAXXmKihFYMv1LyCPt20HIyHjs2AB+0xs/AKoN5n/h1m+ZsUJfFrPQBM+1qBh1AnEaQ1cNdq8u8rnHMRWxX9ILrw8Mp07ZDOGvJq8DbKskBFHp8GicZS5xtM8nQAAP04AAAAAAAAAAAAAAAAAjY4wooa/EkkNBvg8gXQdQMibpttpdiC3+YXaOs/QoLMNuv2q2OXtmQXDSaxKdrqP4T6Xxbu0noI07+y8uIh03Qd8Xf0FlJWf2DvHGQhov8xb6gBMosPe/K9xZc7ccjNedr52qElQS6kdDjHhwMDvH/LjQqN0CBaHCSRa2KFug+1TOZwqnzQtcVRfS1ozrNcd5INhUcfvuoiUrr/jUr3Q5C8D3wP6r5OadtZZ+BYIgGc7onlE5+N08Xz+kXCFKEFeRS8TQ2TI5UriK98+XyIN1xRFj/wvV1GvJ1p5zsqpJ0nLDWwZKDPJTZNNpU5ye5ePF5jmxHL2ihjsXPUGudOPFEoLWAITkA3REbwDdfXPiXWXvR5F3c6FkGjR7ERPLzQ/bYADH17lLxfj1DQv+3bJY0+7/Vsbggb7zqt93Al2y7pUKsEwQGIsWAJLxNMF/yZ1VX26bQ8LhJfqLdHYMNW8JRggnpLX7YfAtGOZA5A+0SFApJ0uNdt45pjIY+gPV139BlvzhLdUXFzwVtaNghCPn8us1lMZX13XWd9nkkbJavI/X3x0bBQbZxUlqdBZmoxUvkIaSSBcssTw1hgi3e5jyjmJAHvaobfjXmPmhcE0x9bV4H/xqfVn9NQgFQq9zoFXjqD/2JcbXzlNRly+R69MnQAlzbZd/8xPaMLFhAHMqYSXkbHHF+qPk8DNokiUR+OpozNRgj+LLFYIAtJtUZefcKD1NRAj5ARvqLJ5czXkDGhma/hwtpk07BO/ne0m2LoegMjaASXAAH5R/Yxe7g4IIUpT9n//jFPWQ5/ZzW+DIWV4TiaIK2XNdEfv5ukP2Ti4aa9v9/ogGsQd+mbOgPCnM7gDsgqo0KdG7Yj+vwnVlVH0SgPIqVg6LgfcIcwMMXl1iBAtTUNt1dhFjAeGTpxTo/lR5Dgs05zAYQ5VN/FGl0wjAAaGO2PV0OpOgzfVG/SXgb7GdyluTF7GKWZ7J7I1xcR49sFBOqIbnR5Gd6kGgyrqCAWvH6fsb5E2AABK3O0gowIAXvUlfOVT7491u7s5Doa99uyk2Z160UV0f5674SVWWABB2ld9r/qqT9x0hl5p9AM0cuVxgQIMjAnZ+i1kB9YKDpbVA2bWYEo4l64NErn5ahSfg1Rfn++W2OcTZkJGOnVjOuK93t3No7ulTDxbY3g1K1JvLgXgTLo1iqJxG8iczURzvIAAeAkIqxzzUZ6PJfo2Qs/hX1bKoELdqhdj1u6JwJxYFJ2LdqO+WdanJPOrZlFb9ILcDhPlB7FZ1pOlFYnTD2wdMrpaEI496JfOCPZuwZdmTbgQBO9G4j4MfjdR4sRbyli/pnK0I42/EQOpN+K/I3UwN7YcC8zpX0OrjSde7h3A8MLWtFM9U8eLlxat6qowqOSCpz60/UQSGCNk5UDAIcqkYNPHk2f1NQJqVS+rRx2V8MzmDalivaMDYJAAIJ4i/m7Ve+isx9CTfzUkYCmOvhfXfTwMNgY3/gQ+/2IwCnFEePIk+9sRFVVu0clwkveNFxfoGXqw5hgIUJEmfiFx8euXyzKAAR8NGrbkJYL2nN364BinTqcAcl+Q4ULF5Zg3/ttnQITVrZ0dN4JU+V3oGRUaUmYeNNd1rJTj+YBfRXY0N0QTZuKBmH6pWehDfyA3A8SKGHog/39V/05WLt/VCO0j7oHgACmcu2IxZblChdtvGLD6g72JUEF6X9ffPtPBVvrIL9VEOoYvuV/lqsa0CxguUd0tpcZFXiKiqo7P/MUd8J8LgazX8xOfi9jG00joYD60FapOAYAZMe5XAdr3BPAacvmSYXt3G9rGFAEOe6iCpvrZIGJA7kglUkmm0QoW7r1oKloCAWYd4r2x8haM0UA3BG0hwFfy7e/zA3qz2CVm9IzwIVMCxgUD9beNCxwK79e0F6UK7hTs3uWoyPd5Q+b0HXJS0sXYyPZyOn5kwpURxUEVAJLgAs1nugdLrsM1RiuBLXsvqXhHppixantvYoLs5A0wk+w7jK0HhA87hWTdtYeWeoJSJs99O/wHDunGm7f+MswXAmyhQ50WIxLFSA94nILjIorLWFnHHW0+VpadEQfq2YCYGojkR6alfEHHNCMqvTJbESXWR16FJ49xngSs1MTb0GnSLqA1CKCQOLBKy5gH+Rv/WUCaa8aF7mnoQQwcWR7/Hq08kffnsdS0Cwbo2NGPHvMi4t7++lfiJXorlu8xnhDq+sBUT320nG45RW+qgcDsa/5me9/kkbmUWlt7T6njA2gALagiElva4/05FNnkNrIKsQUO4N1h+6aIRjo1DlOrKE7anjQfvIN7HxkgevhAMKOyplxTN55eoPal2voB3pIKgBG40rmQln8NaEv7dIADqKrKT4smeon1ULFJzaUaWy1u/bWOKokx8porrIdvDnZ2byZIxBjV7ghFK7XT0FNt2gqhdgukNSaDZ7NGcd8s8Oyup75uiaUDmLGrFcfmfNyLbmbNllgMFZdfztO4o0flzC4ZareRLaO6r1ozGbi69LztLEF9amUmYmXUDMrLEVBf6BpNQq4sIDd+0vDDHhy6bmXVMtaiiuES8KimKKyIM37enMMir0U65oxClbVZbp0OMUMq+nAciy0RiotKTTNsRAj1BOLG3/dOh5IEQaqc+e6lu33L3lib8Auj/69/4QVkYmncs5SwX8xNIAsEcwcwy+QgjqF2L/D/Y9nX2ujz3FFHIIQ7fVRn6y/YZCe3s9azNzb2L89xIVUNtZKkmnKC1VEi0nNpAuVxSz49mJ++C7ZtpidEvn/+K2kUxnd6UFq4tuRHHhlgnwob3YeRh//Bq3EjzmieTKFmDrFLjhUkQ7Hp6MoCSti8Mc5jVV0a6/xcQWRpQH7u4Xr/fF5grRDLtk2OlB8EAgB7SUENjxf/n6h08PtOt8GV7XSmHbZNPlHuFSA22Bbf1rEOd3ZOXxxTcBUaThP2ikA6uM1Y41wx3vpNPwZyqj0R4KxrC7PL1M2fgU2rj1exuRddArNef6u1FlsVbpUOWxYkaAlNf7CYTBQFficFqAtbXOyiAIIY0HeSQJZ8b7zzmQe8Gmlx8MD4PUeqGGJ517zXM6DogrBzyrOK7283YX/taYc5+dV7CGIUPGPlpuQKJEIks+zlMVWi1A5OXYvhhFnaljN0fjuy8ZEmGGT9D4yEfD17/uZqPJSuCiByF24t4/HE2QkFdvmkH+PgAwIUprp66KE3VCJ9pDHrHUAXdh83NHMnpUWoaf0zYx8g0TslBhTPykNqVzWTq8klH6bcFVU2lywwx016tUJP9q9opMnNRpw4I2sqowmU7Y0NEN7EoetDaHKGg7qKfcsKEoszqjtFBKgZ71ROYB0yzM/ZBpmT3mlNLSjKyhDRTOOR4DJajkE2nEUKk/7H+v8FSjNL1hN/8bUu1Kgaj5KcRLcuAfu3sdOysO22cReG9tGHTmF90coIhTX3RyRyhYK1BYr2c6QXe4NC04YHN83wrf23vTzkg429EIZouvdVM8i/SAOIliTHtZ8QfBlEii3RPX1F0VFFcN+0ISU5rpWVYM3tjTs4PgK85jktoW1Mf3m6F0Sx8uiukTWH+RyfG00U12lQ3goq3MagjdHsZwxM7Ksu8qERSBcmqOeDHHuF2mMwoCbiWOxBYfuSCH5ucOfWWpZT+UCq/b52yBfpYu924MDtchIJr7y+pv878cCtDjqpELqziow3GSSOtIrx8pL9nEHQZm33t49Zr5pMw+hMvzlZGrIOT6Unqn31lh9eRjZdB7yqYQUIjQ90zT2DelapWH10VXFPAs8v+UJodt6VKiYApaDmHumJkRuaq+yuSiT9BrNwrXgMhh/CrmTrERZpXglNFbDuGUXSbUf9p2OBGFqXWXIvFvbHoDC4lpFGog55euXPdHZnAqorJAClLF7qoqt0H6HfsgC7PcdKb0GkJTyPtxheMol1gQQ3GA6oBaGVDg2+iIKuqmY+YTz3u44tlYD1/y322k1WmgohGlqH+I1w9xudEF2bBaaASu5e8gCGO9lVlBMpliE8xTcUmVYumjfVOcd7oT6yezdf1J0xZLlGQAUhYa29VALL8ILj6RgIqI4YNXao35xXIR8/mpfKRm8ymx7NNqgqGcwDSZZ1JWrxF30V+3iasrDZzZw4evIwWR5pYjJ06l3M5SDyxUF27+ck67/TAJOK1977w9sShOzxd/CD4AMN5IYLuiBu9BSa30o8si6BZzfNxOOOQg5MbZahpBy6pe+wjdEFlfLCM9PxXrGLJ3hx3mkrUmIdZtdzyyAC53/zs9SrtQi66JwAABL5R5Ui10DhI94A1RsT3ZbvS0c2trHgFYrmejbNacVCsqm0Qu8Epz4W7pGxQKChXqr/mnOLbE11n89TzDNcKsO6Dp4sru5zPQLR5TXuB6vYQAEbbVOmuGivdbbk9JH3oaPpSwbZaOR/LtMi52DskNmA7zXKEFWutA+H2ajhu6gQLwnNYYdXmvkVx1KE8VfmGkaMZlS5s3cLtX0QGGoGzzomSAZTegds6JsUFAUTGjVWfyinh8XzJWbVYrWMrqMz01oMCJa2AbAn24jdYAp7oaPkRxDCXsQ7atg0mNkA/caWaSoqiau7t+TIt0/ouhea8L6PBTfRzGotPMreGAhShxPfrzd5YgxQAANif9iBx/ttCPxvX7T4yjWrbG85/4UD8sHcHmYC5BWSD5V+GJux10MckKIHXhse/p9bBX2tYs40JP5NH7ctZLnxdmq3nR7succgtKRCxGNUSEg+yIg60i2Hum4Qhhdl+6HQbnr8QtmGdlTdMmVgova6wAB+SRYf8NoPL/mUkZRaZD5TG9G1O1/B84k+FJHEE9iVnz8JFZj49JgYjvnRxhKPA2pIJ9jpVHTZ0nuZ3m1HsvPMitfWT6IBg8z9EiAcqo+OBGzmpbzYB18HzcID45HjK6gsFk5f9YcR2OxZTukv+Sv987rRHEfVterwtffRjEBfOBDqPGSrNa2oD8b7Kp2fP5+K6afu7BkDTqpMFMkM++Qlcf42/Zvq5IV8HCiyqTDzYNk2sGGHCx9/IIIrwpfozpjWe/98X9Uwkg59IHS9b2ifmu3OseGtwD8GyELjEpEveghXEf4sVwnS4psjmozsBYSGlWTWVvyUlsSv9wNH4MHb0G79w1rhOis4hzFoLOBJ4P2vAK8eYl41HFL4igkxe5YobZMv3n9WcFHagBtrLlyPgsczCoMze+nZJNy8+mRVyeUigGZW1aontAAqrNcjOIsfVHAxU7w9FDLatrrCSuQ88cqp5oHmUK2LUPruAsnImX/KNY89mySHv4tVMdq2xQibwFLcBmUuxSxSwKEs4jAD2dn3sOPXMf56Jz1QR6DFWjfkIUjPkSRQK+QMPL6WSYAVq1+5/QO9aq6PDaVuR4bNPPzblmDy3okrLrqLTOPeXfBG/kHsPYFCN1jA4+H9E4oUe1YeuL/aOSI2jRR7ZCRezNn9mDSL57WQv49u/uVLSWFHvakAUqAwoDf1ZYBfZAH8GjM4J74CcVWfWlHjW3bXQn1CkoYwlObcR4y0uklzTTbqddpYXkJp22UD9WVjg5i6GYnnvrv2am4xO+NvV+zqtFh1JoGT0Icjxtwes5qUoHheTtOE3O67BUk90wFQ7Key0/U6F5mDqdMB8v/hHkod7HCU7xRwu266LjMgSNOGEWD0sRrA4gTzFjXtaebVYRTUQB2VxiawvJFTEljl6oG87JW74yEm6CrqN+G3mO93ubZcQJbNkYlJE5mYYdh0ByJz06agYtLIHmFx7/0uhywU+bm5KO+1RNhZqnAQ1Np6eK4Lzlz3qGx/DVZtLN019GZ1gGpCrxZJ2CUPiOrGkqR2r5huLnTM3fHlY+3pvPbuhOBvkAL6ffBJzxCI2WciKXGFbC8j6EWegPkhdJ1Ggv43jDH+3o7p08MGYexCXLUxhQzrkcMMnJmxKh4MicFwB3fuRLjlwcXQEA4FK/kNFgcCr9C7XVzG1Q7bJJ+LMWI5WAeDbaucNSkDcnYomU9L1n2Gk/eqF5Gz2ophUipJIT9HRyw3t6uQqfI6Db3JQR7zRvoGIizxFbQWk0mcNQ9ntdw6MbdC6r7rqZl2w5J4wSSzK0y/wgB5uYRmnxJgMMaqFNlIvQBC/iApYR5mn2zLwoXj05AfvHTtc2UaXbltSgUfnrtfAGo4T5iy6Qp8jp3/ruN+7vddbMgBYnQWGZdKk4EFiSTIMbGsx7EUs0vn8IU/14+AmJMndpevAGgjXyGvyMTFH7BbJKhcTd1A7ggclxYcUw0kdZWzmD23nIgSQEYTjvav3F65nlFif7G9XY29zDdjfuqBZs4jk2hXuKvs6mU3fqSLgmWSRuUPnHJ80qT4GgvH84xiTS7N3P/oDSHTB5OFWx9a8uHrI3cTbEcAD3ayT6mhyM5/LScC0tNG9jisZdGvRVO66wRcbYLYI6f1LdTFNkZxoSNXMevEVXVxJTZDHWLJnWsN9qrpXvPDaLpZyhpjkAsMVMPEjYoYNgzwF3tIUyTpG6YMRbXkmGFpu1HIQcFDvMoMY9oFdI80A/fXcWFt6yq2QoPaOmP0QvEhu3NxJTjDvYtFDjM/QHG98FYzRDoGqDuHpLHQ8OEflvDlX/Hd5ez/kzRfqTWcf+hIKXZCVgdJQWRIvH7tFYNM0XJY0RpWv4OyGa9jTlSdNIUSmBqyg83ts6u9gyoZKGbOCNCS8LVfPiePJLde8ikpc5SI9EUY5zifoT2CRMC5PVCzHXRSUFOhYz0zAys3cttDTMCEaGRo8N9jBBIRoF6kx5bP35HWda9hJGAYtUA2IZdlNvWPMWjE46Ys/k/O0ae8QLiV1Cvju57wW0eGAYvmOw2Lv83CVQLGYOA+RCjjI/Wf823wt4RQTvua0iyjUEWJw6ThMyhh9AIAE2AcjhzKICn0b802PchSGyNIBoDT0/JypkN2SLWtDaN4+e5AIBXpc8SLFQ1iq44dSU22l1LKxvq8nXMs8HiYfVh31VVsi1sOxl8nTRI0lhe7auQ37jwKLAP4YvMMuDxTAvTrsYq4GyP4rzMO/7ciDxND3JnOWdcOSRXYKpdAxQT/SjEqPtSyc3KtwFdUYlf61JtfY1iM5VAP8xGGhe9WXwllLmgJY4NfFtkL3YwXzXt6cFTAZDKN2/tUDl3MKlftXHHht4qpRLuuHg7v/WsFD/5CtqA/Grs+VUKMLk4PPU0XrbCw44f4KXa6tdw6ldIdUQ+Rto50qBsm9qECVCeic8eT+WR0wZtCSpJ0vUYEoJ2Enwx5YZbkhpyONZ1HPcTKJ8UOKFVsspX4jruyJnvdHbDczwyl/KruPunaON6lfk/4wB04qdnHcj4npgl2KUn9SYXm7NKIqH6KUwiiM41AZgq475XYL9uuFngr+HCKNWXHutj7VxpNvV+miITNAc16pcnK5fy4ZZLh6kXpPQ1aayDpJDlzXZwfCdiXSBMO6fIFOgESZoZiJPAZKob2LxUge4oC9VwnmpKmX2LixA2o3m8I5/sDu3T8kLLwUYGAJTeE6PQW5IhUof5QQZ27G62XcshDtVNJv/bSW2+xotbLriELuauuiZHRd8l3GGfRA3ILw9lBYbJnC78/AHczSXyw3N8mzVietWX9ggbOjN38qQV3Bw+T4I+iyGbYmT8u/b4ShY91I/g4ZUAkZElxn35p99Ui4Nh8F2nkC1JHH6h1TQdBhEsdfzC39JVPXdqLx48Jr/y3QCvwbQuwQg4cjkEUoe3s0WpWgI9hx2xuCjoWaWJqBTQr18L5DfCLFEzR6sAHWh05SqYLCFqKV8H19ZgrFeEBOxgifYaAgV7vel0IlMaxKKKhZhOIwu/IkRYG2CXh81Xt3WS3rSWm3KaZvc/isFbLEm+AGs2tw5N0qpIcnqug2LQHXmfQYVutr3LKI4Il5TE0IdHUX+hAOLmKBUR3dT8zt8UiUUU0UPYhVicGuJueWlQYD7eFCt297cU6OuRitXI8ZviKlDnYXggEI4TofZY/9VTqdqFSmaDTLzfhR1O6OsPZiBIM1CbJ9LQO6kyzcJturxWtXQTV7QHVMZ1ZvfCTqBtlDps0SRSNQ5arfKZtoYw3j4TRZ+3/zQQZzt9BVbqti8xoqHQAZCkRi/lh+jmBFWE6i2sy6GrJT/qYg8TZ95zRV9PcqgXrBEzZ/NyNGIQl9Mb9OwKu7hDLWDOhR9wqUAKazXZRnW4yieKDr0oMuTsusJRmrbwmx3OOKgrHxKZeqrjDseDK2sRYysBFFUAPjeJjX9xCv4vWR59hjzpb1nWNE4Z1l7vU/i4+ELapEK6AZ9Vy9hBBYmaU6HeBmOHPQlbKrC+FcnHS5Sp3fbYPkwiHlWVmpGqlXDkvyazOK7sjvD/8b3D4ebIMSyk62xc1+5v4LwYKLDjyjulDOJLE3dytnLlizm3kg12qzOa87xtzDlYQIUANfhkwOSEG0UFI8RNO1EU69xDKyTEnyi0QycqMl8CI+Pgntn53AwsbU6jnBMA0y798yB0CJ1Kmiw8p4BktNa8acO9bX52StTjGWPtHuzKYbkl9E2hORBpO1y2OnUn7dnAOSf2B182N5yNjrmhR6sGgLXnIAYKxgTW+7HLlOFmWsg2+j63tnPlCO1m8tAgAbQz7ax9QKqKmV08TuvFxmS13NdCEyt50kuLX2Ni8ZGnt2xWVdJF7/GVs1YsH0U93az/k4fsKYUxTwVpbpg1jgkD10otToGMnE6owRbzEXOmgcThuhZmUuzHnY2PZRYVzhRZ2R1TNZvC6noVX6ouG3nmIYF0gjw5V32QfeqqqqWIdLFOrCIB6/r4RaCTvYK7+6vkyze14fYkBgSDvNZWcQV6Tj9QUj3CWAjGv2dbIHdM//LTHETZXjUV3imEK4gaUBIANroCFZZqvQavENVo1w0LDxvgNRw3iIfOM9bcfJ6MJwZGNDRRWpYMVQ01szbfGmw23VVWl+CHExcT3gtFEayJ9mOkNszb/t/Zsi7GdrK3j0kusjh6oM1plsGhTXYFl4ITHHdGPElsi9kTUOkV9YxgOjMKJ6JxIy2b3a7KxTy4mPqAMA6njrvHUxRcXbzY/rckh6sCXKksyuQX22JlYoJ6S42c0x+HIT8A7FsGDoFCO4ga94Ahfx21dhLRX2BwN+afapbv+JTnT/L4cJltKxSpEd4dNZOSb/J7/cswMhkL0j6JYCF6YPlmXcdsz8K8/3ETqVfQS655j4OmwX72F8TNK7VGjBG8XpX8QcuNWEK7PAriUnCQB1hj/Mx/zaEvAELtqMQ4MaTzg09AKTQiOBPh3s37r1nW+3GuHHnauRalsdmw5Lhf/9WP9AWHWvZeFwuqsichHBKemJ0UuRBrwEJ5xrabWQuaooHtRrcHtjJfRIwCcYot8GczdeaAuBqqU4GtSBpSk1WSo8+Qn8xGl5y9JAx5bi2KmyWyrXe9IAx7vMheDrH221XSk/6SL7RDmj6gSgDgJdJ6jgFiGmhswvZFPDh+NJ31fVzBn4DgMzKEo2PqIRtH88tLHFvBULuMsKjLIuF0wkEi7Lc39BqYDA1Pvlp22jYlDxvGDv/OlkSelmS06Y25kiz8whW96t2wpjCyl2OreeRmkL10DT37+vQ+34jWqOzoFLsLqgMwo9Fd4jXb1hDh86hLFU+LlrYuuLYADfr7uQPGuqVet2jqC5jXzcWRyirZcN29OslhSVhsXx84ZOAbUclH4Adgz/D9jWYAiupppw4ZHHtTBxmpPIUTQGFiDLS6Pw9NJI4UJbfO4maPXyzWS2ukBJBwFeKXp7tcFN2LoLRr0tZIm40czgAAAcbPvpofmsUv0/p9dUUuNQdro3Kl2eNfn+ffaVNVvvwyDOrGvVk1Oas85gGouOHf6fIvJRFhHTWpK48AFu7sdbBFPayg/078+npafs4jBJHohTnmw0MuCECtVGlu/hU22QgRPt9DztD6XgeBQ8KM0hZ4bahsLgsjfyrXVb0GNE5KADlkDBOwVKRKFJrijn/MuwX1FY/H1BGCsRpoEQpSXPli9EDdNX6N56mpGIvtWdkBOicONL65PlsRx48MZ/4lcc1jWYDAAJWvQSNgcH6o6fzGYlkIBYFmulBQMdXpxIB31/bCQPOHre9i/BFJ/UJn/hvE4lAE8CeSFymMEB+P97+JpXoIbUpWrWk30aMyf2Ezy4acRbgw6xUuervBQdZE0jgjeIrOV+A4vZjAnuqZnXYsccw03FDzmiwRMLh5ARHdHrh8jPHoaTW32a4Jz3Bs/Eza1+MY02CPUop4sRFm+jCSU9nxj8hiVHEB+pioHXGkuy/Gg0EAMBoTZVN79G4AvEauZw7tUFXSWBrlVtgqzzRaJEJ+slWFQOCIeYiAqBjGUqT3RYRsk+9KEQ0OEQtRTZ80+enDqV3zhzSd0Q/oq2yV0eNfzeOyCJji9mMvM/YNIcE50HF/cl3LXnqfUcbLsaplvZagZXUoMdhossUiWkyoj7n3BRAoVqvEqJAWtYkhOly58xb3N1J6TLdSFgzABLxFRW4zm7aRJJu925pL6tt9ydQjv6UP3YdiXm9ysXTc4TP4Kx1lnjZoe/XazP2p03HjnaNVRz9jNEWUV1O5VwxL4iIJ+Q0lS/jSYr/r+eWd18iZxlmLvIMCEXOAZzRmkR1k71mrfqkZ2bH/R5cZDtVT/Mgv5PAZx1YuhsbjLg84dQTZfaFPk77ae7RcvQClxNJllXKWhmZ3YobNYl4A/Ww1R3BDO0ACs+4YR6gHJS2hgpu4DKhB/YbwT8gI953TYcsEhnoEzGxAHY2yYwTujd2NPQyMZwMqP4ilGaIQWC1mgtELU+fALSHQ/zMfzQOsNLv2pu3UCcqBZ0hmxMDS625RBvGa5WPIVa8V+LAVuYyezlN/aRtgreM9IG/rVL1yQJMTNf6USXkadynZKbAvLHe3+DOOvVRaMMKLpOCS5CiAh7za1+SVpFpoTWmmMo4N5W4MxEi3iqmey4ujiAGUkt25aI2J2unqKtdn4G1uiKdf95KVSXYm4kJvvrgZSErvhKqADElfFW9ljrHQZxzGhY8nK3Iic89DlihMC4kvbtVwYCqM45F6OU9Q8DC9mV8sCUsuwJGwKe2tFO2vl9qhJGznxWExMmD37TV2Z+pq3kL3by9PSiYePmExSgAW7oUitrsPXTJA02Xo88x0SAAtPe3Odm0gaR/xGJm/X1Gb9LNFj/ooOkvzTkWnASksiC994Ah3lHtCSyxjF8a/f/TXrhtyPq+3TgAAHwl3riZk6j3xlAd4ZIdx74WB+pejEF3xFClpzeOOOgq1xtS/rBhXyn5/jjtygKQ8EILTU1mwfLeo+dCEh4ChFNxYjFcrAY0u1VKKI4Hzl7AZj2JHCDMyozNiuSprbnHTTcJcL6OOZyBAJa3CzJgI4jydNK7tb0cflSmxRoL5kP6yquoGJPTunAwLQVPdvDZFJbS7xfThcLSiEAQuU2vXGn2rEJGGYfpDGKOapadnsdr1vmk9trpIuQ2gfurgSAaLV4dgwuDwumCeiI51/Eq4f+JLe+7Nt4Q317e+PcJCl7PMHV9thCXjo4etqfY9lbgMbUt9k+DcQxRb0Y1Oa/w/3X7L3YNmaPUPcbg4396A6Ce0CQ/kFXW6MwHjoM/BSCyuUMkAfsWEp/6VLNAaPgTWBZ7gLPI6kH9BSO0GWVnSvxtJuH70E5BqXlXYBQxyI8WZ+Ct76HelY/91X9eH41kxAxKgrMdPdFqb+ZoTZbOJUeZCqptdzisf+72azhrmKABn19NzrdwWIvIo9VIymWpzIKXCmGpP9RZpE6a8+BSl98vLrOEd83Vr+6qmX27hhHpNUm2MNGKlij7/3pCS3XQpjsLzW9lIAXxXJiUGW14AwcPD4TQLFKiefb7jIREqYSfb0Jbed0+oESJBOC/4u+xJ9XR5ssGYPhz0nhcRdqYbavgfmgEdrtqxABb6zi1HS6LPIO5lVSeQmmabm7eMPIT3z+WPQcdWYI8cRPd107c/Z74R8N80itycUG/16Mb2/00HctiPYxf0Rev4qybT5uucpNoCHpXY/vC6BEHdirRbKIcAb3EfjK/YMUH6mWOrQT/T2IsokYETIB3Sh0aZGgtEcAVeYG/ycz/MHyq6dWaboJcka6X/fmZ+gXk4OzuyhPkTN3SVMH4wAShBewfpH8JcqLDb5V7Y+5DtjmuPSRMtgyqd0ZjO+CyLBM4xkEbXxXqq6S/QFAXWNkK0EIhBKDk5kKoAZwO3efMBCP3LNEqqTtOF+YKL4XEUcm7GHgIKE3BdO+y3B2ggrqpGA6zyB0ARcnv9kJ0qLgCjbuurPXwbXM/4PNkfJROMJ3YFeD0KHvchC4XdsjRC9yHlnuvndAOH5odzq++d3GFW3qRVKU/gqydHElU9NlCxpFsTd9Hjgq0DVsXgDPs9gaXvIJyiOuAotDcG99tfiUdpCDZpHa76yOStHFRiK7bQ9mnfjYJCevMyeFNCEhPkCX+j2wQKbrijlETDdraMtcNR9ltTIrFfGotokF58w2oxf1mTY58nDBSjh32XD2mvQzZoIFkiGEoXWVyZhxqpBpXGAMnCdyeISJDbuzaXJ4ATIFhjHDK/D95sHT/v3UMxqQXa57gdrnYIl+h3JswGTYHceF5TZ+8XUyIjPlwPfyaBbJ8R1v6yLgqGCczLi1NLaXPwfiiXHiUTkGfitRxvCSl5P7lkC5pkbqGMABq63IJiymyVTQ9JczS6g5rdGVsvMiyeIJv6tlC4VEKwOyPBHzMyDsogLUjCfDdM2mMqpLKp6mVQB5hfOKmNfOVRCh6Ol8lkpZ93IbH01PWIMol1awCHs8lOIiHKsR+oTtXmJAFHoRieeoxX+paRGdeLf06E1pkUvSy21PFEPEEvOORo4VTGUKeWKrinrQBZhkrwVeAqC7ON5urg7o61Tjzak4k9LReIvRP8XGJUhu9OnkG9sRLlQiv3AAb/043ao3nrx/UufEqxvSYAaYT34EcUEGrH54AVbTX1tAlIEz0QzeIueb5h6PD0Tmm/6IbugRe2rN+6DDSeFlDsq1hXFL0KUEGNocEEZwMh6of0Oo1fGYPU9oU6l5ZicdPAh2eUZITITGt/uZKyHOPHniWCe6WVhlBe2WbqXZA5kYOCQABuabCeZi25vBqpW984CEACbIBRCT8m6oizsNrj+UwaKeRh3TOeYZj6fe/11Evp2MWhuKx9rIRaMYAICbfObP/AMWa1shM3JOMjNAXeuwc/kkDpH1l1jjYXu8mZ4wjt07YO9/hdv3ci5f5FgDZ2iORxViEJ+67ju5w0LMCLost3tgwmGGcJ86HUI6fuPgMNhiYUuvwSBandbtH9o2ViRjXpy3rACcAMPP3wlWoEKF1U1tXfWavIXsoOwaaOKRHrcOwdjwijGCpudHNjXupJSkT9ld00dIoGNteADW7p+kh3ecT4FBBhNMdh7mWQRxSm38hMAaLFUCtgT3pOLpD+i1/tWLDD/awF+1S7JaHIVcXFaBpic/ZNvjltADvLSIj5nSpVr+C1AQ/IOOUNo6Ow5iWbeEWH6f5JCgs9ydzljvt9Qhnkz7Dj8L0/6eJ8lz7Aaruv0pW1Knb8DImb+tzZ6xHpPAC6L1KUEkbAilHsHJ/B29bMPKMXunSDszLYAAWI82EFkZ7MPW8CEv567qLBbNag98f4Nqp1Be1Z512QSRleuZEC76BuUYrHijfXtjutvFtv6qtXVSTayonYPFi5iDIDOxm0ondQpJXFWokvZ7oZ94HIiQQfcGv4lYo0vI9OCV56I1cvt9QGiGOU1EWnZi8YZobD2N51EArgQhZEh5L4OVGTalvhgi5vHm3xhrFqXBniIsQw186PFH2XeXScGU1G1qSAAAIz9kMqAyWhoSNODbicndNkEtjDiZZReoqoAE1iZBL1VxghLhj/LUCevnAOJNeLZT/faclJa3RJMdaBupYVGusn0Br0aCQEB52xtpfmtrjS+Gz/2gz9/kbCy+tPEbiWvJ18b3KLHJoBE8OKQ1hJaH38vokaR42cEOb7Uo1Q5hzDgdITIh5Laln97AEE+4DfwHoRqNkTVT9uySFBYdsqGtTfNTNVmofJs8lzsiXrN9JgKzWouVVEVenGxUNg00t53ZwHrFqXbp9c85lREeMXAZMREdnf57AAAAz57ZrQUvByKhvbFPxzjGzSqVdRvW/x7xQYmZ6M/nw8GbOLAsrefRU+wYrJUw5fOsFRP4tLH3UmyRgAzISuj5QH4wY6cHiv/ukdx3SD5WihlYu5/hEfVVvWFW0z9XExmo0Nhrvdh0sudUoiDEwy2h0bW6Z8A3U0RPrN+X8oiiLdVZA4xpvFTuzjfZtQW7Sp9eHtIuH+K6gPBAapgnSrAdxdIcAXd908LBhLadw1nDDqxglQ1NZ6PGQDE7YX4fLoi2A8/VIdebEkcx1X0IlKzWKGh+PIKAKcXxABWjUeHy4hJnrKVwKmatOKeqV6itFjddH1ymiIGcn052Df+hOAAABLrOwg4QbsBRInIs6T+OWIkv1iI7b+ngae4ZBHYG0UegwbSA62HMTyMKm7QP0RfTdVOEWo35pAcm/mw78U+KGpLn8d8IsxgHbhmtN0LbtTOLb5CTnVwljhIrPhJ1hoEfvvQdOHqlnIlAquxe+blo79+t8ZX6VqTrsli4WgQn0v+ppcHpWenbUCmnW6//nQnJ/EaTJgw0SZwLW8dKOdFaMHCw4Ffk9a433rAocctYRxenU8DOqzsrvr8SAsYaY7XoBtS1V+ehg1avKhKcOvJAkmEidn+LJyyBPC/CTt6P7xkSz336tFkfCImbQAzMTZJcOwSm+D48iXieMpP4D3/UIK511bye/LiZy24gvlbViE1pRxDYGg/PZG6tFjdB12UChf9Hm3cMUwFwt3Uiongv6Y2tbOIl7GYP9Pq3Blx4WuLcfRTDyoX7RDKa8LffIzm1vm3VfayA8JDEI6eooM9Tptly4Owtllih4d4uIC5ck30LkPfiRIN9wAAAAA4dyKcAAAAAAAAAAAAAAAAAAAAAAAAAAAEVYSUYQAAAASUkqAAgAAAAAAAAAAAAAAFhNUCAOAwAAPD94cGFja2V0IGJlZ2luPSLvu78iIGlkPSJXNU0wTXBDZWhpSHpyZVN6TlRjemtjOWQiPz4gPHg6eG1wbWV0YSB4bWxuczp4PSJhZG9iZTpuczptZXRhLyIgeDp4bXB0az0iQWRvYmUgWE1QIENvcmUgNS42LWMxNDUgNzkuMTYzNDk5LCAyMDE4LzA4LzEzLTE2OjQwOjIyICAgICAgICAiPiA8cmRmOlJERiB4bWxuczpyZGY9Imh0dHA6Ly93d3cudzMub3JnLzE5OTkvMDIvMjItcmRmLXN5bnRheC1ucyMiPiA8cmRmOkRlc2NyaXB0aW9uIHJkZjphYm91dD0iIiB4bWxuczp4bXA9Imh0dHA6Ly9ucy5hZG9iZS5jb20veGFwLzEuMC8iIHhtbG5zOnhtcE1NPSJodHRwOi8vbnMuYWRvYmUuY29tL3hhcC8xLjAvbW0vIiB4bWxuczpzdFJlZj0iaHR0cDovL25zLmFkb2JlLmNvbS94YXAvMS4wL3NUeXBlL1Jlc291cmNlUmVmIyIgeG1wOkNyZWF0b3JUb29sPSJBZG9iZSBQaG90b3Nob3AgQ0MgMjAxOSBXaW5kb3dzIiB4bXBNTTpJbnN0YW5jZUlEPSJ4bXAuaWlkOkI3M0UxRUMyMTFDNzExRURCOEU2QTcwRkI4OTBFQTIxIiB4bXBNTTpEb2N1bWVudElEPSJ4bXAuZGlkOkI3M0UxRUMzMTFDNzExRURCOEU2QTcwRkI4OTBFQTIxIj4gPHhtcE1NOkRlcml2ZWRGcm9tIHN0UmVmOmluc3RhbmNlSUQ9InhtcC5paWQ6QjczRTFFQzAxMUM3MTFFREI4RTZBNzBGQjg5MEVBMjEiIHN0UmVmOmRvY3VtZW50SUQ9InhtcC5kaWQ6QjczRTFFQzExMUM3MTFFREI4RTZBNzBGQjg5MEVBMjEiLz4gPC9yZGY6RGVzY3JpcHRpb24+IDwvcmRmOlJERj4gPC94OnhtcG1ldGE+IDw/eHBhY2tldCBlbmQ9InIiPz4=;" parent="7" vertex="1">
                    <mxGeometry x="71" y="30" width="19.5" height="14.61" as="geometry"/>
                </mxCell>
                <mxCell id="24" value="" style="shape=image;verticalLabelPosition=bottom;labelBackgroundColor=default;verticalAlign=top;aspect=fixed;imageAspect=0;image=data:image/png,iVBORw0KGgoAAAANSUhEUgAAAVMAAACVCAMAAADSU+lbAAAAkFBMVEX///8jHyAAAADb29uLiYogHB0SDA7r6+sZFBUXERMdGRocFxgHAAD5+fkQCQsbFhgLAATy8vLi4uJ0cnNeXF3FxMVMSUo0MTIrJyhlY2SZmJg5NjeBf4Bsamrh4eGjoqLQ0NCsrKy1tLTHxsa8vLxCP0B8enuTkpNUUlPV1NVJRkezsrMuKis0MjM+OzydnZ1BYdViAAAINklEQVR4nO2daWOiMBCGdSRAuAQPVLyw9aCt2/7/f7dQbyAgFZIQeD6ubRdeM8nMZDLpdBqMOfA33mLpzo/diOPcnS28zfvKYf1g9cT5WA/nMoBhYV1D3RMI6Vi2Aazj8sdXWD9irTB9L9DAxlctEyDVAryT3tsB+xTmeDgFSyfKedNVk0GffbWy5uEPVcD5et7GKxizLeuH5hnn51hE0DMqyNKA9aNzSm8IdmFBT6NVhtE768fnkI8R4D8JehmsuzHrV+CM3gjUFxSN0OGzHas3lOHLip5UHfVYvwoveIZcgqIRKuxN1m/DA/7E+NvKlIolv7F+IeaYe9DKUzQEwajhQat/tEpVNAI3e6geSh6kJxAMGzurOiOoQNEIa97QwKo3LWu5T6IbjUwCbCux+wsIPNYvSB8PSvSg0oAh61ekzaKqqfSGMWL9knTZVy9puFK5TVr+hzQk7XblBolKSdImiUrF8C+isn5ZOkj0JA3n1EYsVGuakoarfwNcqjFdSUM/VXjnf/DHbbxXRBU8TDXnOm1Ju8gWO6GyLD9dmk//W2SPivL6dMESeJ3qVZ03IQHiZv539CfTEwiLukd1MBhJ2u1iQV3/FZvJ9ISgDpXLyvIjEBZx7d+wHKbh2r9gLUD5OF1Ga/4FEK+W6mCzlbSrCrdMKRbjYRoOVNFKKffV7eU/iy5Yflphu0CdEGygzl6pKy+L/idrGcrE42GYhgPVZy1EaZgUCiSegrz0m0qvToylKYukaSqQnp0eLzHUC5m5F3XFOqQoqrig8vOItQOpSUl7pZx5aTDJ9JRiVFmy2QTwMq5p0I7SV7FjR9MZ7ZAJRcz4B2WezWoq6qPxt5ZfAqhrtpZfNvfx6aq1/FK4d/vd1vJLQbtlUX9ay88GaTq5ddL9z/Uv3tSglTQLDKDvgmBigZ0bFV0n1M8+jUerKRYMt+fand76G3Kkstet5eehwuEhNvKD7Eo3fCryY1oVwzlGkMiJfllZFS9oclrzWVbF8A2klZesjhn2j+TI6+dkN4dHQEqRtNNRphmjEFZR0pTeM9YMK5G6u/hJGRFStPAzq4TlHu1IkDTqDkD8LeOLdT0cz2TtLZMrCiyv47a5fQKZVWVkXwlLnTZ1QiK7VmdGSpDoy86xFTWds6NZeEbVgo7EviKOT/A+U1OHdCID7ToKq0NFvBOu35kQI6UJ80J4boGPbE2XpAl1Gn444qHQkD8IxU9XFsRJM/xQKd63uglAztk88kIUfdpafxq545Rk3tPfj1vrTyGvQjdzPu20a38axiZb0x0hAEX/Tp+/tdafQCUlpTrncUj4vdA/7Txp/Ui+ldHeHUZS78trhdrPfiwpSfBF8vm1S5ogd+3HmuQrZ3zvUu6tGcvt4PLPq+2y0v6YtMk+6xyQXH712nUix/rt2cNG1/lYgjqP+cUfR4GGqpZ1NsfPyktdyDxiJM/ifzPqL4r/JS4CciYCZbizWnK4xC0p6+emRkYhP5omp5ZtF75TvGKlL475o3iF7o2M3Xvj7pvI2A5In1nS/8Me/a5ZlaGSrJ9s+TG/dkkKtvRCh/7eBXJ2rcSc98tH1is+xF8OYe1H0e5qAURydu1RijWOs0wR4YefJVg/5CQSE4hUMICP8R0UU8o0RO378ccPKWJokBOjpYoqjvkjGN07jOYm5yhmYntgHb8MTIdJTmo2lfeuQN6/CnPv97ZTc7UdQl49eTJNsFqGkad8xgL4LGr3129nDsb1D8nXSECV73n8AlEfy5jLo5laqIStygY8cf9cWq8ZZ/sjnfnZvtIybfXmXf6QtDx9u8heSvcM7yd72Q4W0mJ25HXeQE89V06WoEx+lz/Nis/3H9olHFFhcfoCze20ztlcPaAlaRR4IIyTZqHMf51iBMHtM8fl5kB+ce4i0+rZoNQLwszACL1A7TGyntXXGcvbbaXDHkCKz0GHuqZi0ZGPvn1mymP0RmDIav+58zMckVO8whhls5gFgatBrZKHtegxZY5ddq1iC4MQH6afS1rEzCl8m/49C9Y9I5+mRl27JoTkgSbbNk+FSTklq1yxSZ1SdfiUNusFR8GsTdPhfxEnZUZF4PqnT990XnJgQNy/4pDvuGrI7t5CL2XKh6i4VvdJxGs9sXG4d1o4OSpfr5bSjydndFjGUgfMu0lH1K2j9J2PiuAzkacgbU9ShY/0SQGkc4yKjGladYjHPtjC6fvWPPPugmFZoB9Soz/m7fnrNpue6W0O3pbkrTCvn5drteg/R8Ldoowh4HVH72wHqiHk9ZFLlluDWo0i/QI4LOP+GiWkCvHFzvpFvOnoBLNjXhonO3sV4Ois7o30Wb96dVC/LPosaVpbfmGgek/8BblmuZOiBPSnVG1ap0z0H3Cop6dRLeP8Qqxoe6mC3mz6AOV1CoSMSeNQzVCl9p0UEIpd8UHABF861NoON0dSaqI2SVJK5t8sSaOFqnKXitDDV2DGFR96Q1Cj2qiyWFV6JEhvgqufxAmqm1TlY7Gj4uKQfYD5BWAmbA46l61ahf1rTZxKbyij8u3fiDcrahybJ44yF6HfPBcqiTIr0atCsBM+W/oU40lZa5XVL95zQ1TWWhkNmmRDEnyXpBDOQbZeVBXDMKfJbONwJPmFmzGRBcOmevlZmOvuH0+wawCSgJWQ5TCePXFJYVxQC9y/NtppBsraBfv5Cx1DQeeH1uhzGawDC+T8ZgsaBvg8tO7okyjjxQ6DjQnCIqRaYM/3b+0kWgzFXw/nqhF1FrtoizRVtgwAeTLzxq2ef2Xwsd14+9H8GEo6nQf7w3rrD15N5P0HGZa3Ka7sHRYAAAAASUVORK5CYII=;" parent="7" vertex="1">
                    <mxGeometry x="60" y="70" width="19" height="8.35" as="geometry"/>
                </mxCell>
                <mxCell id="25" value="" style="shape=image;verticalLabelPosition=bottom;labelBackgroundColor=default;verticalAlign=top;aspect=fixed;imageAspect=0;image=data:image/png,iVBORw0KGgoAAAANSUhEUgAAAVMAAACVCAMAAADSU+lbAAAAkFBMVEX///8jHyAAAADb29uLiYogHB0SDA7r6+sZFBUXERMdGRocFxgHAAD5+fkQCQsbFhgLAATy8vLi4uJ0cnNeXF3FxMVMSUo0MTIrJyhlY2SZmJg5NjeBf4Bsamrh4eGjoqLQ0NCsrKy1tLTHxsa8vLxCP0B8enuTkpNUUlPV1NVJRkezsrMuKis0MjM+OzydnZ1BYdViAAAINklEQVR4nO2daWOiMBCGdSRAuAQPVLyw9aCt2/7/f7dQbyAgFZIQeD6ubRdeM8nMZDLpdBqMOfA33mLpzo/diOPcnS28zfvKYf1g9cT5WA/nMoBhYV1D3RMI6Vi2Aazj8sdXWD9irTB9L9DAxlctEyDVAryT3tsB+xTmeDgFSyfKedNVk0GffbWy5uEPVcD5et7GKxizLeuH5hnn51hE0DMqyNKA9aNzSm8IdmFBT6NVhtE768fnkI8R4D8JehmsuzHrV+CM3gjUFxSN0OGzHas3lOHLip5UHfVYvwoveIZcgqIRKuxN1m/DA/7E+NvKlIolv7F+IeaYe9DKUzQEwajhQat/tEpVNAI3e6geSh6kJxAMGzurOiOoQNEIa97QwKo3LWu5T6IbjUwCbCux+wsIPNYvSB8PSvSg0oAh61ekzaKqqfSGMWL9knTZVy9puFK5TVr+hzQk7XblBolKSdImiUrF8C+isn5ZOkj0JA3n1EYsVGuakoarfwNcqjFdSUM/VXjnf/DHbbxXRBU8TDXnOm1Ju8gWO6GyLD9dmk//W2SPivL6dMESeJ3qVZ03IQHiZv539CfTEwiLukd1MBhJ2u1iQV3/FZvJ9ISgDpXLyvIjEBZx7d+wHKbh2r9gLUD5OF1Ga/4FEK+W6mCzlbSrCrdMKRbjYRoOVNFKKffV7eU/iy5Yflphu0CdEGygzl6pKy+L/idrGcrE42GYhgPVZy1EaZgUCiSegrz0m0qvToylKYukaSqQnp0eLzHUC5m5F3XFOqQoqrig8vOItQOpSUl7pZx5aTDJ9JRiVFmy2QTwMq5p0I7SV7FjR9MZ7ZAJRcz4B2WezWoq6qPxt5ZfAqhrtpZfNvfx6aq1/FK4d/vd1vJLQbtlUX9ay88GaTq5ddL9z/Uv3tSglTQLDKDvgmBigZ0bFV0n1M8+jUerKRYMt+fand76G3Kkstet5eehwuEhNvKD7Eo3fCryY1oVwzlGkMiJfllZFS9oclrzWVbF8A2klZesjhn2j+TI6+dkN4dHQEqRtNNRphmjEFZR0pTeM9YMK5G6u/hJGRFStPAzq4TlHu1IkDTqDkD8LeOLdT0cz2TtLZMrCiyv47a5fQKZVWVkXwlLnTZ1QiK7VmdGSpDoy86xFTWds6NZeEbVgo7EviKOT/A+U1OHdCID7ToKq0NFvBOu35kQI6UJ80J4boGPbE2XpAl1Gn444qHQkD8IxU9XFsRJM/xQKd63uglAztk88kIUfdpafxq545Rk3tPfj1vrTyGvQjdzPu20a38axiZb0x0hAEX/Tp+/tdafQCUlpTrncUj4vdA/7Txp/Ui+ldHeHUZS78trhdrPfiwpSfBF8vm1S5ogd+3HmuQrZ3zvUu6tGcvt4PLPq+2y0v6YtMk+6xyQXH712nUix/rt2cNG1/lYgjqP+cUfR4GGqpZ1NsfPyktdyDxiJM/ifzPqL4r/JS4CciYCZbizWnK4xC0p6+emRkYhP5omp5ZtF75TvGKlL475o3iF7o2M3Xvj7pvI2A5In1nS/8Me/a5ZlaGSrJ9s+TG/dkkKtvRCh/7eBXJ2rcSc98tH1is+xF8OYe1H0e5qAURydu1RijWOs0wR4YefJVg/5CQSE4hUMICP8R0UU8o0RO378ccPKWJokBOjpYoqjvkjGN07jOYm5yhmYntgHb8MTIdJTmo2lfeuQN6/CnPv97ZTc7UdQl49eTJNsFqGkad8xgL4LGr3129nDsb1D8nXSECV73n8AlEfy5jLo5laqIStygY8cf9cWq8ZZ/sjnfnZvtIybfXmXf6QtDx9u8heSvcM7yd72Q4W0mJ25HXeQE89V06WoEx+lz/Nis/3H9olHFFhcfoCze20ztlcPaAlaRR4IIyTZqHMf51iBMHtM8fl5kB+ce4i0+rZoNQLwszACL1A7TGyntXXGcvbbaXDHkCKz0GHuqZi0ZGPvn1mymP0RmDIav+58zMckVO8whhls5gFgatBrZKHtegxZY5ddq1iC4MQH6afS1rEzCl8m/49C9Y9I5+mRl27JoTkgSbbNk+FSTklq1yxSZ1SdfiUNusFR8GsTdPhfxEnZUZF4PqnT990XnJgQNy/4pDvuGrI7t5CL2XKh6i4VvdJxGs9sXG4d1o4OSpfr5bSjydndFjGUgfMu0lH1K2j9J2PiuAzkacgbU9ShY/0SQGkc4yKjGladYjHPtjC6fvWPPPugmFZoB9Soz/m7fnrNpue6W0O3pbkrTCvn5drteg/R8Ldoowh4HVH72wHqiHk9ZFLlluDWo0i/QI4LOP+GiWkCvHFzvpFvOnoBLNjXhonO3sV4Ois7o30Wb96dVC/LPosaVpbfmGgek/8BblmuZOiBPSnVG1ap0z0H3Cop6dRLeP8Qqxoe6mC3mz6AOV1CoSMSeNQzVCl9p0UEIpd8UHABF861NoON0dSaqI2SVJK5t8sSaOFqnKXitDDV2DGFR96Q1Cj2qiyWFV6JEhvgqufxAmqm1TlY7Gj4uKQfYD5BWAmbA46l61ahf1rTZxKbyij8u3fiDcrahybJ44yF6HfPBcqiTIr0atCsBM+W/oU40lZa5XVL95zQ1TWWhkNmmRDEnyXpBDOQbZeVBXDMKfJbONwJPmFmzGRBcOmevlZmOvuH0+wawCSgJWQ5TCePXFJYVxQC9y/NtppBsraBfv5Cx1DQeeH1uhzGawDC+T8ZgsaBvg8tO7okyjjxQ6DjQnCIqRaYM/3b+0kWgzFXw/nqhF1FrtoizRVtgwAeTLzxq2ef2Xwsd14+9H8GEo6nQf7w3rrD15N5P0HGZa3Ka7sHRYAAAAASUVORK5CYII=;" parent="7" vertex="1">
                    <mxGeometry x="71" y="95.82" width="19" height="8.35" as="geometry"/>
                </mxCell>
                <mxCell id="26" value="" style="shape=image;verticalLabelPosition=bottom;labelBackgroundColor=default;verticalAlign=top;aspect=fixed;imageAspect=0;image=data:image/png,iVBORw0KGgoAAAANSUhEUgAAAVMAAACVCAMAAADSU+lbAAAAkFBMVEX///8jHyAAAADb29uLiYogHB0SDA7r6+sZFBUXERMdGRocFxgHAAD5+fkQCQsbFhgLAATy8vLi4uJ0cnNeXF3FxMVMSUo0MTIrJyhlY2SZmJg5NjeBf4Bsamrh4eGjoqLQ0NCsrKy1tLTHxsa8vLxCP0B8enuTkpNUUlPV1NVJRkezsrMuKis0MjM+OzydnZ1BYdViAAAINklEQVR4nO2daWOiMBCGdSRAuAQPVLyw9aCt2/7/f7dQbyAgFZIQeD6ubRdeM8nMZDLpdBqMOfA33mLpzo/diOPcnS28zfvKYf1g9cT5WA/nMoBhYV1D3RMI6Vi2Aazj8sdXWD9irTB9L9DAxlctEyDVAryT3tsB+xTmeDgFSyfKedNVk0GffbWy5uEPVcD5et7GKxizLeuH5hnn51hE0DMqyNKA9aNzSm8IdmFBT6NVhtE768fnkI8R4D8JehmsuzHrV+CM3gjUFxSN0OGzHas3lOHLip5UHfVYvwoveIZcgqIRKuxN1m/DA/7E+NvKlIolv7F+IeaYe9DKUzQEwajhQat/tEpVNAI3e6geSh6kJxAMGzurOiOoQNEIa97QwKo3LWu5T6IbjUwCbCux+wsIPNYvSB8PSvSg0oAh61ekzaKqqfSGMWL9knTZVy9puFK5TVr+hzQk7XblBolKSdImiUrF8C+isn5ZOkj0JA3n1EYsVGuakoarfwNcqjFdSUM/VXjnf/DHbbxXRBU8TDXnOm1Ju8gWO6GyLD9dmk//W2SPivL6dMESeJ3qVZ03IQHiZv539CfTEwiLukd1MBhJ2u1iQV3/FZvJ9ISgDpXLyvIjEBZx7d+wHKbh2r9gLUD5OF1Ga/4FEK+W6mCzlbSrCrdMKRbjYRoOVNFKKffV7eU/iy5Yflphu0CdEGygzl6pKy+L/idrGcrE42GYhgPVZy1EaZgUCiSegrz0m0qvToylKYukaSqQnp0eLzHUC5m5F3XFOqQoqrig8vOItQOpSUl7pZx5aTDJ9JRiVFmy2QTwMq5p0I7SV7FjR9MZ7ZAJRcz4B2WezWoq6qPxt5ZfAqhrtpZfNvfx6aq1/FK4d/vd1vJLQbtlUX9ay88GaTq5ddL9z/Uv3tSglTQLDKDvgmBigZ0bFV0n1M8+jUerKRYMt+fand76G3Kkstet5eehwuEhNvKD7Eo3fCryY1oVwzlGkMiJfllZFS9oclrzWVbF8A2klZesjhn2j+TI6+dkN4dHQEqRtNNRphmjEFZR0pTeM9YMK5G6u/hJGRFStPAzq4TlHu1IkDTqDkD8LeOLdT0cz2TtLZMrCiyv47a5fQKZVWVkXwlLnTZ1QiK7VmdGSpDoy86xFTWds6NZeEbVgo7EviKOT/A+U1OHdCID7ToKq0NFvBOu35kQI6UJ80J4boGPbE2XpAl1Gn444qHQkD8IxU9XFsRJM/xQKd63uglAztk88kIUfdpafxq545Rk3tPfj1vrTyGvQjdzPu20a38axiZb0x0hAEX/Tp+/tdafQCUlpTrncUj4vdA/7Txp/Ui+ldHeHUZS78trhdrPfiwpSfBF8vm1S5ogd+3HmuQrZ3zvUu6tGcvt4PLPq+2y0v6YtMk+6xyQXH712nUix/rt2cNG1/lYgjqP+cUfR4GGqpZ1NsfPyktdyDxiJM/ifzPqL4r/JS4CciYCZbizWnK4xC0p6+emRkYhP5omp5ZtF75TvGKlL475o3iF7o2M3Xvj7pvI2A5In1nS/8Me/a5ZlaGSrJ9s+TG/dkkKtvRCh/7eBXJ2rcSc98tH1is+xF8OYe1H0e5qAURydu1RijWOs0wR4YefJVg/5CQSE4hUMICP8R0UU8o0RO378ccPKWJokBOjpYoqjvkjGN07jOYm5yhmYntgHb8MTIdJTmo2lfeuQN6/CnPv97ZTc7UdQl49eTJNsFqGkad8xgL4LGr3129nDsb1D8nXSECV73n8AlEfy5jLo5laqIStygY8cf9cWq8ZZ/sjnfnZvtIybfXmXf6QtDx9u8heSvcM7yd72Q4W0mJ25HXeQE89V06WoEx+lz/Nis/3H9olHFFhcfoCze20ztlcPaAlaRR4IIyTZqHMf51iBMHtM8fl5kB+ce4i0+rZoNQLwszACL1A7TGyntXXGcvbbaXDHkCKz0GHuqZi0ZGPvn1mymP0RmDIav+58zMckVO8whhls5gFgatBrZKHtegxZY5ddq1iC4MQH6afS1rEzCl8m/49C9Y9I5+mRl27JoTkgSbbNk+FSTklq1yxSZ1SdfiUNusFR8GsTdPhfxEnZUZF4PqnT990XnJgQNy/4pDvuGrI7t5CL2XKh6i4VvdJxGs9sXG4d1o4OSpfr5bSjydndFjGUgfMu0lH1K2j9J2PiuAzkacgbU9ShY/0SQGkc4yKjGladYjHPtjC6fvWPPPugmFZoB9Soz/m7fnrNpue6W0O3pbkrTCvn5drteg/R8Ldoowh4HVH72wHqiHk9ZFLlluDWo0i/QI4LOP+GiWkCvHFzvpFvOnoBLNjXhonO3sV4Ois7o30Wb96dVC/LPosaVpbfmGgek/8BblmuZOiBPSnVG1ap0z0H3Cop6dRLeP8Qqxoe6mC3mz6AOV1CoSMSeNQzVCl9p0UEIpd8UHABF861NoON0dSaqI2SVJK5t8sSaOFqnKXitDDV2DGFR96Q1Cj2qiyWFV6JEhvgqufxAmqm1TlY7Gj4uKQfYD5BWAmbA46l61ahf1rTZxKbyij8u3fiDcrahybJ44yF6HfPBcqiTIr0atCsBM+W/oU40lZa5XVL95zQ1TWWhkNmmRDEnyXpBDOQbZeVBXDMKfJbONwJPmFmzGRBcOmevlZmOvuH0+wawCSgJWQ5TCePXFJYVxQC9y/NtppBsraBfv5Cx1DQeeH1uhzGawDC+T8ZgsaBvg8tO7okyjjxQ6DjQnCIqRaYM/3b+0kWgzFXw/nqhF1FrtoizRVtgwAeTLzxq2ef2Xwsd14+9H8GEo6nQf7w3rrD15N5P0HGZa3Ka7sHRYAAAAASUVORK5CYII=;" parent="7" vertex="1">
                    <mxGeometry x="60" y="120" width="19" height="8.35" as="geometry"/>
                </mxCell>
                <mxCell id="27" value="" style="shape=image;verticalLabelPosition=bottom;labelBackgroundColor=default;verticalAlign=top;aspect=fixed;imageAspect=0;image=data:image/png,iVBORw0KGgoAAAANSUhEUgAAAVMAAACVCAMAAADSU+lbAAAAkFBMVEX///8jHyAAAADb29uLiYogHB0SDA7r6+sZFBUXERMdGRocFxgHAAD5+fkQCQsbFhgLAATy8vLi4uJ0cnNeXF3FxMVMSUo0MTIrJyhlY2SZmJg5NjeBf4Bsamrh4eGjoqLQ0NCsrKy1tLTHxsa8vLxCP0B8enuTkpNUUlPV1NVJRkezsrMuKis0MjM+OzydnZ1BYdViAAAINklEQVR4nO2daWOiMBCGdSRAuAQPVLyw9aCt2/7/f7dQbyAgFZIQeD6ubRdeM8nMZDLpdBqMOfA33mLpzo/diOPcnS28zfvKYf1g9cT5WA/nMoBhYV1D3RMI6Vi2Aazj8sdXWD9irTB9L9DAxlctEyDVAryT3tsB+xTmeDgFSyfKedNVk0GffbWy5uEPVcD5et7GKxizLeuH5hnn51hE0DMqyNKA9aNzSm8IdmFBT6NVhtE768fnkI8R4D8JehmsuzHrV+CM3gjUFxSN0OGzHas3lOHLip5UHfVYvwoveIZcgqIRKuxN1m/DA/7E+NvKlIolv7F+IeaYe9DKUzQEwajhQat/tEpVNAI3e6geSh6kJxAMGzurOiOoQNEIa97QwKo3LWu5T6IbjUwCbCux+wsIPNYvSB8PSvSg0oAh61ekzaKqqfSGMWL9knTZVy9puFK5TVr+hzQk7XblBolKSdImiUrF8C+isn5ZOkj0JA3n1EYsVGuakoarfwNcqjFdSUM/VXjnf/DHbbxXRBU8TDXnOm1Ju8gWO6GyLD9dmk//W2SPivL6dMESeJ3qVZ03IQHiZv539CfTEwiLukd1MBhJ2u1iQV3/FZvJ9ISgDpXLyvIjEBZx7d+wHKbh2r9gLUD5OF1Ga/4FEK+W6mCzlbSrCrdMKRbjYRoOVNFKKffV7eU/iy5Yflphu0CdEGygzl6pKy+L/idrGcrE42GYhgPVZy1EaZgUCiSegrz0m0qvToylKYukaSqQnp0eLzHUC5m5F3XFOqQoqrig8vOItQOpSUl7pZx5aTDJ9JRiVFmy2QTwMq5p0I7SV7FjR9MZ7ZAJRcz4B2WezWoq6qPxt5ZfAqhrtpZfNvfx6aq1/FK4d/vd1vJLQbtlUX9ay88GaTq5ddL9z/Uv3tSglTQLDKDvgmBigZ0bFV0n1M8+jUerKRYMt+fand76G3Kkstet5eehwuEhNvKD7Eo3fCryY1oVwzlGkMiJfllZFS9oclrzWVbF8A2klZesjhn2j+TI6+dkN4dHQEqRtNNRphmjEFZR0pTeM9YMK5G6u/hJGRFStPAzq4TlHu1IkDTqDkD8LeOLdT0cz2TtLZMrCiyv47a5fQKZVWVkXwlLnTZ1QiK7VmdGSpDoy86xFTWds6NZeEbVgo7EviKOT/A+U1OHdCID7ToKq0NFvBOu35kQI6UJ80J4boGPbE2XpAl1Gn444qHQkD8IxU9XFsRJM/xQKd63uglAztk88kIUfdpafxq545Rk3tPfj1vrTyGvQjdzPu20a38axiZb0x0hAEX/Tp+/tdafQCUlpTrncUj4vdA/7Txp/Ui+ldHeHUZS78trhdrPfiwpSfBF8vm1S5ogd+3HmuQrZ3zvUu6tGcvt4PLPq+2y0v6YtMk+6xyQXH712nUix/rt2cNG1/lYgjqP+cUfR4GGqpZ1NsfPyktdyDxiJM/ifzPqL4r/JS4CciYCZbizWnK4xC0p6+emRkYhP5omp5ZtF75TvGKlL475o3iF7o2M3Xvj7pvI2A5In1nS/8Me/a5ZlaGSrJ9s+TG/dkkKtvRCh/7eBXJ2rcSc98tH1is+xF8OYe1H0e5qAURydu1RijWOs0wR4YefJVg/5CQSE4hUMICP8R0UU8o0RO378ccPKWJokBOjpYoqjvkjGN07jOYm5yhmYntgHb8MTIdJTmo2lfeuQN6/CnPv97ZTc7UdQl49eTJNsFqGkad8xgL4LGr3129nDsb1D8nXSECV73n8AlEfy5jLo5laqIStygY8cf9cWq8ZZ/sjnfnZvtIybfXmXf6QtDx9u8heSvcM7yd72Q4W0mJ25HXeQE89V06WoEx+lz/Nis/3H9olHFFhcfoCze20ztlcPaAlaRR4IIyTZqHMf51iBMHtM8fl5kB+ce4i0+rZoNQLwszACL1A7TGyntXXGcvbbaXDHkCKz0GHuqZi0ZGPvn1mymP0RmDIav+58zMckVO8whhls5gFgatBrZKHtegxZY5ddq1iC4MQH6afS1rEzCl8m/49C9Y9I5+mRl27JoTkgSbbNk+FSTklq1yxSZ1SdfiUNusFR8GsTdPhfxEnZUZF4PqnT990XnJgQNy/4pDvuGrI7t5CL2XKh6i4VvdJxGs9sXG4d1o4OSpfr5bSjydndFjGUgfMu0lH1K2j9J2PiuAzkacgbU9ShY/0SQGkc4yKjGladYjHPtjC6fvWPPPugmFZoB9Soz/m7fnrNpue6W0O3pbkrTCvn5drteg/R8Ldoowh4HVH72wHqiHk9ZFLlluDWo0i/QI4LOP+GiWkCvHFzvpFvOnoBLNjXhonO3sV4Ois7o30Wb96dVC/LPosaVpbfmGgek/8BblmuZOiBPSnVG1ap0z0H3Cop6dRLeP8Qqxoe6mC3mz6AOV1CoSMSeNQzVCl9p0UEIpd8UHABF861NoON0dSaqI2SVJK5t8sSaOFqnKXitDDV2DGFR96Q1Cj2qiyWFV6JEhvgqufxAmqm1TlY7Gj4uKQfYD5BWAmbA46l61ahf1rTZxKbyij8u3fiDcrahybJ44yF6HfPBcqiTIr0atCsBM+W/oU40lZa5XVL95zQ1TWWhkNmmRDEnyXpBDOQbZeVBXDMKfJbONwJPmFmzGRBcOmevlZmOvuH0+wawCSgJWQ5TCePXFJYVxQC9y/NtppBsraBfv5Cx1DQeeH1uhzGawDC+T8ZgsaBvg8tO7okyjjxQ6DjQnCIqRaYM/3b+0kWgzFXw/nqhF1FrtoizRVtgwAeTLzxq2ef2Xwsd14+9H8GEo6nQf7w3rrD15N5P0HGZa3Ka7sHRYAAAAASUVORK5CYII=;" parent="7" vertex="1">
                    <mxGeometry x="60" y="150" width="22.75" height="10" as="geometry"/>
                </mxCell>
                <mxCell id="9" value="&lt;span style=&quot;font-weight: 400;&quot;&gt;Dim_newspaper&lt;/span&gt;" style="swimlane;whiteSpace=wrap;html=1;" parent="1" vertex="1">
                    <mxGeometry x="130" y="60" width="200" height="200" as="geometry"/>
                </mxCell>
                <mxCell id="11" value="&lt;b&gt;&lt;u&gt;title_id&lt;/u&gt;&lt;/b&gt;&lt;br&gt;&lt;br&gt;&lt;div style=&quot;&quot;&gt;&lt;span style=&quot;background-color: initial;&quot;&gt;title_newspaper&lt;/span&gt;&lt;/div&gt;&lt;div style=&quot;&quot;&gt;&lt;br&gt;&lt;/div&gt;&lt;div style=&quot;&quot;&gt;&lt;br&gt;&lt;/div&gt;&lt;div style=&quot;&quot;&gt;&lt;br&gt;&lt;/div&gt;&lt;div style=&quot;&quot;&gt;&lt;br&gt;&lt;/div&gt;" style="text;html=1;align=left;verticalAlign=middle;resizable=0;points=[];autosize=1;strokeColor=none;fillColor=none;" parent="9" vertex="1">
                    <mxGeometry x="10" y="40" width="110" height="110" as="geometry"/>
                </mxCell>
                <mxCell id="22" value="" style="shape=image;verticalLabelPosition=bottom;labelBackgroundColor=default;verticalAlign=top;aspect=fixed;imageAspect=0;image=data:image/webp,UklGRoJEAABXRUJQVlA4WAoAAAAMAAAAUQMAfAIAVlA4IDZBAADQKgGdASpSA30CPm02mEkkIqKhIZNYyIANiWdu/D65inHv8kmUrhN4f/u/4/wk5R8V/oP75+5/9998Ksv5T8mfLrapfC9B/9/7hvm3/s/+l7Hv1z/2f7z8AH6i+on/hfsd77v3D/WT/JfAP9k/+3/nPeU/vv7Pe6/+/f4L/mf3r/b/Ib/Qf7X6Z3sZf3//lewf+x3/n9df9x/ha/sf+//cn4H/2i/+XZu9Lf1x/ufpP+M/qX+V/v37geg/4l86/g/7Z/iv+R/gvcDzX9b+o78j+7v7b+9egX+7/xPiT+P/sv+r/vP7w/6v5AvyD+b/5b+wfuL7i3znZB6h/lv/R/mfYF9lfpf/D/yP5cell9N+pH2P/7HuAfz3/Aek3/S8CL8D/z/YB/o/+c9VD+u/+v+x/0npr/Rv85/9v9T8BX89/vn/i9dv//++D0e/3W//4G9SUi4DVFABP4azjAvfRljxqSwa4uh7qkqkgfDiwKLi5YtGqNifN3PW39xdEGg92Sm4x5XSUWUOb3AkXd1d8ExxHi3qyn2DxhXYv8YCycfjJ6WDpP4DUefZ2rINDuyEQ4PAqPRcsUdpzAMLRLXVxNxJT0e14mkBtQvBbjF5CHR+LcA4GtrOMzvkCM/iqo5eJSyY9gvgzB82394c1gWvyAqou2ZCKwLJ367v1eHDwfmDEeOxLRoC/abdRLwpN4aWxYjvaPaXCJLhrBSPyymTM+C4yE7DkbG12pjqWIlgMqvqbTYxXN9EsrwpwhlgTzdQ+wFQ5DZq0aoO99AxNW/Awqou2ZCKwLX5AVUXbMhFYFr8gKqLtmQmii7ZkIrAtfkBVRdsyEVgWvyAqou2ZCKwN6mQisC1+QFVF2zIRWBa/ICqi7ZkIrAtfltRALX5AVUXbMhFYFr8gKqLtmQisC1+QFWNAwqou2ZCKwLX5AVUXbMhFYFr8gKqLtmRTLsyEVgWvyAqou2ZCKwLX5AVUXbMhFYFseBzWBa/ICixVfsukmjISJjddqRLe92CQBpiQ2rjNXN7EAqou2ZCKwLX5AVUXbQRaXZkIq+d32nJ//4a6e7cG0j+5AfCQDAg7SJdMzVhuJVoIBVRdsyEVgWvyAqpb1BAKqK2nEmbViXlluICl2ZB58yZxxOVc22Ew0o5rAtfkBVRdsyEVgb1MhFYEPBaiqViEM5cJ1+QFVF0I3PlGvgZsWMKqLtmQisC1+QFVGTfiLBfCr5Y+5jDlyo6GqLtmQisCFYIG1ykG5koIBVRdsyEVgWvyAsYlkQy4RcqeEjrq5Q+jh9+K+n8JqKVd/eHNYFr8QqK5w9S9DZjIRWBa/ICqi7ZkJoorGWuD2mZyRogLt+u1uEWYs2mhYRJSAqou2ZB55sNIlGsiIjmsC1+QFVF2zITRRWMQtPFVKZYQKoa5HCw/Wj8BfxRdsyEVgWvlYBBE8OBmh/Pd9MMtT/RwPIXeyJ02zET1W3IrQKDH9D7AVYjr5wXm2jHk7LLg2ubQJ5KM2dxtrmN8VwEIPnZ2EF/XrtPrRLxA3Ffx/Sdy+jpciCC1v0WkFd6fmNzCkz3SlgjPqY5HP9M+Le8ILtmQisC1+PgLPDL6TMzCu1hL2d7uq5qf4rAtfkBVRdvuAVUXbMhFYFr8RImTItW3nfmuV32KIQV26wYMqnhp1XrX5AVUXbMhF/wf3hzWBa/ICp8J4bu/D3f5XtCpoWoGZs4b+RqA9fMSvZ4tNDb9p8sQSynzWV0no1V53Mu73xRYOwocjbvGl2ZFMuzIRWBa/ICqfpcKici7k290sn2aDq5tg5DDJLjWk4o77enbpQfchJ/dRvdFaZ8IAs6w5N/s7nXlC/1KaZCFk+oek0+yBMzkl91rrTOcqpydsl0LbmnbX0p/ekWcTOD8564ELYPFKWQoMdQzNwBLfAk+dJbVIxnHoB2pcRPfpk5AOe9Xc+6q4PHesuzIRV9Ir0sqYaW88G1TWXQfQmjbRnmV329QbDf8MV76FCL7cKtRx9Vl+Itafxg8n113VCufIMhEHKHkk3l9orTjYW+LhzE6NJz1SxTM1eG3przoBPhMs0jmGDP4uYYNHWEbhzEzKRvo00auTKCXYY8JEo34NO/0rzyZQf3hzV8tvnLWlYFGcp7weojOJbk1LkUBB19lIH54DeiEgIpXxgCT16Qh1DrtIYnSs+I8wQiWPIjdvfb/4FsAu27l5CKwLX4jBeaMouSIe9AOp2uAU14e44cDeI0MBFK4uzCvXKwGSKISue0il63OokqCd91jhy1nzJu645oAP1GYWBjxtBwlrf4EUdyeTNMhMaKubWHJYaZ5bweoSJfKSV9pi+nKsvHfmFVF2zIRWBjktJYOGAx0BG/a/IBUjy8LI0JK7T5yjouci6XERXaw9KuB6hVg3/caX1C4U1NBh77T8j/Y2w3TFnR/MSrFBYxEc9a/ICqi7ZkIlSR8W9iL6zIRWBa/Hwz6zkm+fh0gDsPr9kWNL7nMmQ5T8BYEUjhXSCuu2T9f+fGm6g8JDtsZgktfkBVRdsw0W1AHy8jFBAKqLtmQisK6EVgWQ7pxU9sS//VKodjgvxe+wOLDp3Ey1BAKqLtmQiU+zsCEhYFr8gKqLtmRTLsyESzEbJ6TgdaqQnWwXDY/gWvyAqou02hr0OsopaKwLX5AVUXbMimXZkIrAtbcre/mNnfX88PZkIrAtfMcSaHWTvF7cwqou2ZCKwLX5bUQC1+QFU/yRCLq64Mh3CsO7b8gKqLoiXRV3PrG7izWBa/ICqi7ZkJoou2ZCKwLWwl9jRcuUEh7zoMIRWBa1/vV1Z33ICMjj+8OawLX5AVUXb7gFVF2zIRV9asTG/SezuVem7/F+QCT5y9w5f+0zzdiEaXZkIrAtfkBVReRiAVUXbMhFYEUiKzI00k++81vHprcHPO9lodYS7vocz8ztN1YqHn8VXNJSAqou2ZCKwLX5CcsC1+QFVF2zIRWH2hAKqLtmQisC1+QFVGTfkBVRdsyEVgWv8p61+QFVF2zIRWBa/ICxiWvyAqou2ZCKwN6mQisC1+QFVF2zIRWBcn4c1gWvyAqou2ZoEuzIRWBa/ICqi7ZkIrZ7+8OawLX5AVUXkYgFVF2zIRWBa/ICqi7fcAqou2ZCKwLX5CcsC1+QFVF2zIRWBa/IEBgWvyAqou2ZCKwroRWBa/ICqi7ZkIrAtf5T1r8gKqLtmQisK6EVgWvyAQAAD+4HKq3h6rTiIjeWvfKhdbnv9BhS4NmZFP3yokVLh/IcOBuZ9o73aPIGa6o/rAkdssBjCtjpUNsOlOSQeZk+THf/MZDPeJLYtI7U0yItaiiNhP4532Ph95y3VUjKSoD8Qj5Y7a6XCCq4+EoGhc+UxcVr+iyjIEj6DUfugVVs8hjIrO47SttJcJI4KqYqZ3uqSeFWlw6eliVgkprRuAN64v+A1Vuf7iEyRt8n4b4xiAM1Bd6aPUdknrPRrgOD1FW436p03RNfcCplbBKsqxPXorR/LakHmQbxe0RTOgcy/JoHajL7azq64jVRdKCJKI7/z/KdIL9r8l1XDhu4neTuLJHLpVkgF4T7a4x5PO80ml4SBfYJQB9iUI4XpJWVcx9EDpbzwZEXRoYdLiONmxS+SCQ9WIQvvZgtqfeKSlTyuJipaPGLj+fDHfM4V0b1SdxikfbxlPG6IjdfkMbOJOLaenMTbXokOHeEDcVHXcKOKYAxHsKWSraiyPUbvlUIGNHhGpq/Af1wV2qcgfCLPdgd2GrqOC6MuRV1UZ1TsZnlOtWhujVyE8jdllEdiak5yzIlyA24d9AZwMHhFYDyLAkPClKkBahjF57oNpHGb/kkKG2tFsIQ5r6ePZhs+cIzi5Mb833O9CLDxq+8qfhhEekt9LN1fw7lgPFyU/7d8JKdjqgRgCMc3kcmoxxDMotvwY7i7Q5XIdx6xMp0vAb8u07N/X2ZpvCUl9oLfFifLOByCWYpXUSYVFwI+Eds+a6O8FCdy+eADol856DlHm62nuIXvGMZx85wvsTN9ua9MHVQT147Njo0ev0/p+g8NqluOkwj81gSzlSTPpwqNZmgWoPx0RKRhjwL/E1C7TfzsqAh1xZAN9MxyoB+jihk8lkxj9v81S1NM1h+3lZjkPPWLSxP5RXJQmLs4sCKyv92c+NafxMveWIlBFp+r1/P8hfvfFHWSgWHpi66PGmclF6fbcQJmRR30XfpJinRn32tIHteeNtMF9TSmx0znMHqG50ZN/VRqX7jvJvzognRMUZGkm3UqR+ePNgKqVxTgZF/hDuNuLyxsDMuT+PuKfgGvN/8PZpq/qz1LeJHN8CtEHXH89xfeLuzedA5RVyHTNdGBsoRx2JxJO69W5wpxTi31JDwY+t9dm7YqOSVQuE8CoI7Og0T8qh8wxmDtaGQhGdRTn24rXxZJRzxhvkEglbDKXt7SU5Wc+BPPZIbunR/KgZP5eGOoDH8DBUeaZbbX0fmMfTeXPLt09RvSnLSDUNNyAQwTldKAB3HeRcsKzC5cf5NPJxdqzKgah7EVgmOuD6CCzk37Y4fxhn91nD+oQimPBtoD/DSuxvdVvGdAv8yOt1oRJ6yEsXKrEeqLitnUEezwAcIcnzliOoe4xTEo1Sfrgyalzd3eeRvhE4hrB3GuZET6MLPwj/ZhOu0gPGoyPROlxXasXj8gGEYHP+Qh11iNtXsqfpRqJuQ1gCucKqoaQWEc6YJz+YNjd6Rq1iIXzSzW6XjfvgtTLwcw7/oi96Vke/vnOAqw2qeIFLCyM0Ks10W07N/X2ZpvB3eTQOqLkcvAHAPe3jwVANMX9HWmxaSwZe8DtrHH5KgC/kZtrj37Y0lJK0KeJDBMtidBUAlJrRS4f73XN6QD8f6xHQMmbm4XGNBo1ndscBgWey1AuIsg0vJ+Dh95VuRe9pdiHYJC/gYXy5AskXTDKOMiFAMKYSSR5xd+uQ+mDBfqTSOZZ/F+lG3DZk8Y/VznhNM5qNJjiah5Ypc1gQGJSrxnE3BBVz/CE+uDdBtu14FpCjTv0PEnne0sEDm/firWYVKzFhHPoSZ0VgxFKeqjPzTqnNpdxqyvAWTGoW2C8YUfCzj78QAqomPu5z1+mKCgg5uUUlvBCDjje26RDaPQhZbICQohhY6OY62j5AO0JDAo1fkNnDEgWqd5vZPnV+6CYt/6CFgq9y5XyubgAzOdCsW1vfTpzdRg5noyhY6zP/nEnI8KTrmYwxaiO2q3SanlLG3eR6kjv9riMFeSG5py6UJogpVkWjUNsWOfouwYybRycya9XphQvPHuywhLPOyd810uqOPrW4Wuk4lzeEuAZeCekGfR5EvTeKogmd6yLE/PCVAtvRKXAPMpOwU56vepPWrzlmf2SaQwQoZXJIOFr/ylW0kis3jz/r5quOcPWjVJoQ7tgrkfrvQFpv8UHGMJm3AkGzJqRtvHnErT8mFBx3ZmFkOIISZrwoEFhwDv79fmW5T3zfseSxadAD9kFBu2eC8edV2k31nCuzANbhf9CnJh0XDefDoL8/h/nNMzpTRfKNG793++OViHZlFcMfppqtpdXfWi/uBzqOLHmHsTV3avH5TT1fIrBJmE9wcE6TX9g5MVyDRvaIr47kE75ytQmZMsbX8BK0Mcj5TGrFKh+uVSbF6WxNXMyUI7OZcldJoIdVz2CxAYS1c197WykL09t/7V21Zr8YtzsWtWRd83InmHjUC/dLdcPwyVt0liMStCXKDMlLhrGah4E8F1YoA1yj0GBpXBRxgZW0DjLDkH2qe0lYQGivbvsn4rJ7uCwa/eaU0yA+2o/+2ifQ7TJM7akji7Ve/yJU+SDiapSAqFAmWX7GPXSo2vModE3SknNLf3W/93sQeAzZ5vLqfa+pPffZqu60aLfD23fMo5Tan6rUpKPTM/+iNLwJEEfZ25OFC9QJ4dmlrN5A8IFK0ImUm98xgvmWF0VpWI6GU45y62GuZFBzjadEZRnDkq8d2etlFyAwMS2dKMJn9o5jpGtSYA4T2AfsbQ7rlRrUj36K+mLSMf1h89e5KoC4CIm/IJAk2RIuVZ5n+NHXd1Zvmv9yTeZ/wH/m037GA66bUZ25UtYewNztgiPcy7sLb83feHDFKUe/K/TEfe3EplRNl2+WO7cpSABdc/5Lw4NJmQhyG+eKlIaiHUhQI+3EF00L+4xvUNPny3Avd5YwjDoiu6ZbECqV9IoEUBkpGvz1dt1WydJtv7tyZrn3+BVdNXNEmCRptJV+7VMvJsiz+O8uhhci/uCQGsYdDnx6aVZoszhdlMUh3VAJ82416GQ1br5wq8Hk3x2QMFbOnH9KVwx+UmXZFK1xN4qAmviU6cjPDcqHjBMyZnd4GSydHhPVu0gT26++Kyq3djgI6Nhi8DTc6ZhCJWsrMgTlp0npgIUPnpCxPntwrvPvQQEbxxjiOY2jzfW0y920Xwefli7nqrqfSMghqNC+c6jLjKRdw+pSB6pOYKrW+ss0VcFZ+Rfj76tXJgrKm2ug1U0Eni3wjnq2fN+whdNTbnJj0Lqi8GJOqcDY52mDRyVFxsdUPbPG1ZqEzfka7AXi9GiTZUIFE8SeSU+0B4teT/4Lgsamdkd8Ds2MmrBfPqAeT15PPZbyruidVvk2TT76nUsXFOrBSOP3h+k8Z6CKPtpX9Ed5fEMhwMWTWit/eV4fvV/yMXyP0NDKRXDwcwexlEDIHwWsIc8a9Bxul9SwdH4XZyd5Gm1o1dxeNXYr/iP5M5MjTJmXKPKogh9BKbjpnpcpWHUgzSfPLnwSghOkpc1ftVBOn/t+4JaCNXflUL1PCwbegsSgA9vIxXEp67L9NgTp6vPyI+MDpE0bpSqRVF8J/KdgypBZwHLzT4ranibAyer179TkC3FAVtiAoUuiGxs8sH56jaQc/LE1/gSrNTozIabrv+3CwOih3tW6ZqO/Zo8JBd/ju1LzIJbSFU3fRYA//6KhV8lfNv9F84vj0WJNABrEMRfk5O+uWIbAkFnp8vdAtJA1dirCJXRyiQBhlpMkWblg7PHEwHIuoTjdZ+3kUtd6nd4NH/LcepmwRV/9NR/gpayWV0YoELGs/zhJmemiHFxCeycQWJhyfksHuYcpWC93enj1Rcv8E10BdxUQDGRd7ClLd8YbAX583FmG2W3/cAXXmKihFYMv1LyCPt20HIyHjs2AB+0xs/AKoN5n/h1m+ZsUJfFrPQBM+1qBh1AnEaQ1cNdq8u8rnHMRWxX9ILrw8Mp07ZDOGvJq8DbKskBFHp8GicZS5xtM8nQAAP04AAAAAAAAAAAAAAAAAjY4wooa/EkkNBvg8gXQdQMibpttpdiC3+YXaOs/QoLMNuv2q2OXtmQXDSaxKdrqP4T6Xxbu0noI07+y8uIh03Qd8Xf0FlJWf2DvHGQhov8xb6gBMosPe/K9xZc7ccjNedr52qElQS6kdDjHhwMDvH/LjQqN0CBaHCSRa2KFug+1TOZwqnzQtcVRfS1ozrNcd5INhUcfvuoiUrr/jUr3Q5C8D3wP6r5OadtZZ+BYIgGc7onlE5+N08Xz+kXCFKEFeRS8TQ2TI5UriK98+XyIN1xRFj/wvV1GvJ1p5zsqpJ0nLDWwZKDPJTZNNpU5ye5ePF5jmxHL2ihjsXPUGudOPFEoLWAITkA3REbwDdfXPiXWXvR5F3c6FkGjR7ERPLzQ/bYADH17lLxfj1DQv+3bJY0+7/Vsbggb7zqt93Al2y7pUKsEwQGIsWAJLxNMF/yZ1VX26bQ8LhJfqLdHYMNW8JRggnpLX7YfAtGOZA5A+0SFApJ0uNdt45pjIY+gPV139BlvzhLdUXFzwVtaNghCPn8us1lMZX13XWd9nkkbJavI/X3x0bBQbZxUlqdBZmoxUvkIaSSBcssTw1hgi3e5jyjmJAHvaobfjXmPmhcE0x9bV4H/xqfVn9NQgFQq9zoFXjqD/2JcbXzlNRly+R69MnQAlzbZd/8xPaMLFhAHMqYSXkbHHF+qPk8DNokiUR+OpozNRgj+LLFYIAtJtUZefcKD1NRAj5ARvqLJ5czXkDGhma/hwtpk07BO/ne0m2LoegMjaASXAAH5R/Yxe7g4IIUpT9n//jFPWQ5/ZzW+DIWV4TiaIK2XNdEfv5ukP2Ti4aa9v9/ogGsQd+mbOgPCnM7gDsgqo0KdG7Yj+vwnVlVH0SgPIqVg6LgfcIcwMMXl1iBAtTUNt1dhFjAeGTpxTo/lR5Dgs05zAYQ5VN/FGl0wjAAaGO2PV0OpOgzfVG/SXgb7GdyluTF7GKWZ7J7I1xcR49sFBOqIbnR5Gd6kGgyrqCAWvH6fsb5E2AABK3O0gowIAXvUlfOVT7491u7s5Doa99uyk2Z160UV0f5674SVWWABB2ld9r/qqT9x0hl5p9AM0cuVxgQIMjAnZ+i1kB9YKDpbVA2bWYEo4l64NErn5ahSfg1Rfn++W2OcTZkJGOnVjOuK93t3No7ulTDxbY3g1K1JvLgXgTLo1iqJxG8iczURzvIAAeAkIqxzzUZ6PJfo2Qs/hX1bKoELdqhdj1u6JwJxYFJ2LdqO+WdanJPOrZlFb9ILcDhPlB7FZ1pOlFYnTD2wdMrpaEI496JfOCPZuwZdmTbgQBO9G4j4MfjdR4sRbyli/pnK0I42/EQOpN+K/I3UwN7YcC8zpX0OrjSde7h3A8MLWtFM9U8eLlxat6qowqOSCpz60/UQSGCNk5UDAIcqkYNPHk2f1NQJqVS+rRx2V8MzmDalivaMDYJAAIJ4i/m7Ve+isx9CTfzUkYCmOvhfXfTwMNgY3/gQ+/2IwCnFEePIk+9sRFVVu0clwkveNFxfoGXqw5hgIUJEmfiFx8euXyzKAAR8NGrbkJYL2nN364BinTqcAcl+Q4ULF5Zg3/ttnQITVrZ0dN4JU+V3oGRUaUmYeNNd1rJTj+YBfRXY0N0QTZuKBmH6pWehDfyA3A8SKGHog/39V/05WLt/VCO0j7oHgACmcu2IxZblChdtvGLD6g72JUEF6X9ffPtPBVvrIL9VEOoYvuV/lqsa0CxguUd0tpcZFXiKiqo7P/MUd8J8LgazX8xOfi9jG00joYD60FapOAYAZMe5XAdr3BPAacvmSYXt3G9rGFAEOe6iCpvrZIGJA7kglUkmm0QoW7r1oKloCAWYd4r2x8haM0UA3BG0hwFfy7e/zA3qz2CVm9IzwIVMCxgUD9beNCxwK79e0F6UK7hTs3uWoyPd5Q+b0HXJS0sXYyPZyOn5kwpURxUEVAJLgAs1nugdLrsM1RiuBLXsvqXhHppixantvYoLs5A0wk+w7jK0HhA87hWTdtYeWeoJSJs99O/wHDunGm7f+MswXAmyhQ50WIxLFSA94nILjIorLWFnHHW0+VpadEQfq2YCYGojkR6alfEHHNCMqvTJbESXWR16FJ49xngSs1MTb0GnSLqA1CKCQOLBKy5gH+Rv/WUCaa8aF7mnoQQwcWR7/Hq08kffnsdS0Cwbo2NGPHvMi4t7++lfiJXorlu8xnhDq+sBUT320nG45RW+qgcDsa/5me9/kkbmUWlt7T6njA2gALagiElva4/05FNnkNrIKsQUO4N1h+6aIRjo1DlOrKE7anjQfvIN7HxkgevhAMKOyplxTN55eoPal2voB3pIKgBG40rmQln8NaEv7dIADqKrKT4smeon1ULFJzaUaWy1u/bWOKokx8porrIdvDnZ2byZIxBjV7ghFK7XT0FNt2gqhdgukNSaDZ7NGcd8s8Oyup75uiaUDmLGrFcfmfNyLbmbNllgMFZdfztO4o0flzC4ZareRLaO6r1ozGbi69LztLEF9amUmYmXUDMrLEVBf6BpNQq4sIDd+0vDDHhy6bmXVMtaiiuES8KimKKyIM37enMMir0U65oxClbVZbp0OMUMq+nAciy0RiotKTTNsRAj1BOLG3/dOh5IEQaqc+e6lu33L3lib8Auj/69/4QVkYmncs5SwX8xNIAsEcwcwy+QgjqF2L/D/Y9nX2ujz3FFHIIQ7fVRn6y/YZCe3s9azNzb2L89xIVUNtZKkmnKC1VEi0nNpAuVxSz49mJ++C7ZtpidEvn/+K2kUxnd6UFq4tuRHHhlgnwob3YeRh//Bq3EjzmieTKFmDrFLjhUkQ7Hp6MoCSti8Mc5jVV0a6/xcQWRpQH7u4Xr/fF5grRDLtk2OlB8EAgB7SUENjxf/n6h08PtOt8GV7XSmHbZNPlHuFSA22Bbf1rEOd3ZOXxxTcBUaThP2ikA6uM1Y41wx3vpNPwZyqj0R4KxrC7PL1M2fgU2rj1exuRddArNef6u1FlsVbpUOWxYkaAlNf7CYTBQFficFqAtbXOyiAIIY0HeSQJZ8b7zzmQe8Gmlx8MD4PUeqGGJ517zXM6DogrBzyrOK7283YX/taYc5+dV7CGIUPGPlpuQKJEIks+zlMVWi1A5OXYvhhFnaljN0fjuy8ZEmGGT9D4yEfD17/uZqPJSuCiByF24t4/HE2QkFdvmkH+PgAwIUprp66KE3VCJ9pDHrHUAXdh83NHMnpUWoaf0zYx8g0TslBhTPykNqVzWTq8klH6bcFVU2lywwx016tUJP9q9opMnNRpw4I2sqowmU7Y0NEN7EoetDaHKGg7qKfcsKEoszqjtFBKgZ71ROYB0yzM/ZBpmT3mlNLSjKyhDRTOOR4DJajkE2nEUKk/7H+v8FSjNL1hN/8bUu1Kgaj5KcRLcuAfu3sdOysO22cReG9tGHTmF90coIhTX3RyRyhYK1BYr2c6QXe4NC04YHN83wrf23vTzkg429EIZouvdVM8i/SAOIliTHtZ8QfBlEii3RPX1F0VFFcN+0ISU5rpWVYM3tjTs4PgK85jktoW1Mf3m6F0Sx8uiukTWH+RyfG00U12lQ3goq3MagjdHsZwxM7Ksu8qERSBcmqOeDHHuF2mMwoCbiWOxBYfuSCH5ucOfWWpZT+UCq/b52yBfpYu924MDtchIJr7y+pv878cCtDjqpELqziow3GSSOtIrx8pL9nEHQZm33t49Zr5pMw+hMvzlZGrIOT6Unqn31lh9eRjZdB7yqYQUIjQ90zT2DelapWH10VXFPAs8v+UJodt6VKiYApaDmHumJkRuaq+yuSiT9BrNwrXgMhh/CrmTrERZpXglNFbDuGUXSbUf9p2OBGFqXWXIvFvbHoDC4lpFGog55euXPdHZnAqorJAClLF7qoqt0H6HfsgC7PcdKb0GkJTyPtxheMol1gQQ3GA6oBaGVDg2+iIKuqmY+YTz3u44tlYD1/y322k1WmgohGlqH+I1w9xudEF2bBaaASu5e8gCGO9lVlBMpliE8xTcUmVYumjfVOcd7oT6yezdf1J0xZLlGQAUhYa29VALL8ILj6RgIqI4YNXao35xXIR8/mpfKRm8ymx7NNqgqGcwDSZZ1JWrxF30V+3iasrDZzZw4evIwWR5pYjJ06l3M5SDyxUF27+ck67/TAJOK1977w9sShOzxd/CD4AMN5IYLuiBu9BSa30o8si6BZzfNxOOOQg5MbZahpBy6pe+wjdEFlfLCM9PxXrGLJ3hx3mkrUmIdZtdzyyAC53/zs9SrtQi66JwAABL5R5Ui10DhI94A1RsT3ZbvS0c2trHgFYrmejbNacVCsqm0Qu8Epz4W7pGxQKChXqr/mnOLbE11n89TzDNcKsO6Dp4sru5zPQLR5TXuB6vYQAEbbVOmuGivdbbk9JH3oaPpSwbZaOR/LtMi52DskNmA7zXKEFWutA+H2ajhu6gQLwnNYYdXmvkVx1KE8VfmGkaMZlS5s3cLtX0QGGoGzzomSAZTegds6JsUFAUTGjVWfyinh8XzJWbVYrWMrqMz01oMCJa2AbAn24jdYAp7oaPkRxDCXsQ7atg0mNkA/caWaSoqiau7t+TIt0/ouhea8L6PBTfRzGotPMreGAhShxPfrzd5YgxQAANif9iBx/ttCPxvX7T4yjWrbG85/4UD8sHcHmYC5BWSD5V+GJux10MckKIHXhse/p9bBX2tYs40JP5NH7ctZLnxdmq3nR7succgtKRCxGNUSEg+yIg60i2Hum4Qhhdl+6HQbnr8QtmGdlTdMmVgova6wAB+SRYf8NoPL/mUkZRaZD5TG9G1O1/B84k+FJHEE9iVnz8JFZj49JgYjvnRxhKPA2pIJ9jpVHTZ0nuZ3m1HsvPMitfWT6IBg8z9EiAcqo+OBGzmpbzYB18HzcID45HjK6gsFk5f9YcR2OxZTukv+Sv987rRHEfVterwtffRjEBfOBDqPGSrNa2oD8b7Kp2fP5+K6afu7BkDTqpMFMkM++Qlcf42/Zvq5IV8HCiyqTDzYNk2sGGHCx9/IIIrwpfozpjWe/98X9Uwkg59IHS9b2ifmu3OseGtwD8GyELjEpEveghXEf4sVwnS4psjmozsBYSGlWTWVvyUlsSv9wNH4MHb0G79w1rhOis4hzFoLOBJ4P2vAK8eYl41HFL4igkxe5YobZMv3n9WcFHagBtrLlyPgsczCoMze+nZJNy8+mRVyeUigGZW1aontAAqrNcjOIsfVHAxU7w9FDLatrrCSuQ88cqp5oHmUK2LUPruAsnImX/KNY89mySHv4tVMdq2xQibwFLcBmUuxSxSwKEs4jAD2dn3sOPXMf56Jz1QR6DFWjfkIUjPkSRQK+QMPL6WSYAVq1+5/QO9aq6PDaVuR4bNPPzblmDy3okrLrqLTOPeXfBG/kHsPYFCN1jA4+H9E4oUe1YeuL/aOSI2jRR7ZCRezNn9mDSL57WQv49u/uVLSWFHvakAUqAwoDf1ZYBfZAH8GjM4J74CcVWfWlHjW3bXQn1CkoYwlObcR4y0uklzTTbqddpYXkJp22UD9WVjg5i6GYnnvrv2am4xO+NvV+zqtFh1JoGT0Icjxtwes5qUoHheTtOE3O67BUk90wFQ7Key0/U6F5mDqdMB8v/hHkod7HCU7xRwu266LjMgSNOGEWD0sRrA4gTzFjXtaebVYRTUQB2VxiawvJFTEljl6oG87JW74yEm6CrqN+G3mO93ubZcQJbNkYlJE5mYYdh0ByJz06agYtLIHmFx7/0uhywU+bm5KO+1RNhZqnAQ1Np6eK4Lzlz3qGx/DVZtLN019GZ1gGpCrxZJ2CUPiOrGkqR2r5huLnTM3fHlY+3pvPbuhOBvkAL6ffBJzxCI2WciKXGFbC8j6EWegPkhdJ1Ggv43jDH+3o7p08MGYexCXLUxhQzrkcMMnJmxKh4MicFwB3fuRLjlwcXQEA4FK/kNFgcCr9C7XVzG1Q7bJJ+LMWI5WAeDbaucNSkDcnYomU9L1n2Gk/eqF5Gz2ophUipJIT9HRyw3t6uQqfI6Db3JQR7zRvoGIizxFbQWk0mcNQ9ntdw6MbdC6r7rqZl2w5J4wSSzK0y/wgB5uYRmnxJgMMaqFNlIvQBC/iApYR5mn2zLwoXj05AfvHTtc2UaXbltSgUfnrtfAGo4T5iy6Qp8jp3/ruN+7vddbMgBYnQWGZdKk4EFiSTIMbGsx7EUs0vn8IU/14+AmJMndpevAGgjXyGvyMTFH7BbJKhcTd1A7ggclxYcUw0kdZWzmD23nIgSQEYTjvav3F65nlFif7G9XY29zDdjfuqBZs4jk2hXuKvs6mU3fqSLgmWSRuUPnHJ80qT4GgvH84xiTS7N3P/oDSHTB5OFWx9a8uHrI3cTbEcAD3ayT6mhyM5/LScC0tNG9jisZdGvRVO66wRcbYLYI6f1LdTFNkZxoSNXMevEVXVxJTZDHWLJnWsN9qrpXvPDaLpZyhpjkAsMVMPEjYoYNgzwF3tIUyTpG6YMRbXkmGFpu1HIQcFDvMoMY9oFdI80A/fXcWFt6yq2QoPaOmP0QvEhu3NxJTjDvYtFDjM/QHG98FYzRDoGqDuHpLHQ8OEflvDlX/Hd5ez/kzRfqTWcf+hIKXZCVgdJQWRIvH7tFYNM0XJY0RpWv4OyGa9jTlSdNIUSmBqyg83ts6u9gyoZKGbOCNCS8LVfPiePJLde8ikpc5SI9EUY5zifoT2CRMC5PVCzHXRSUFOhYz0zAys3cttDTMCEaGRo8N9jBBIRoF6kx5bP35HWda9hJGAYtUA2IZdlNvWPMWjE46Ys/k/O0ae8QLiV1Cvju57wW0eGAYvmOw2Lv83CVQLGYOA+RCjjI/Wf823wt4RQTvua0iyjUEWJw6ThMyhh9AIAE2AcjhzKICn0b802PchSGyNIBoDT0/JypkN2SLWtDaN4+e5AIBXpc8SLFQ1iq44dSU22l1LKxvq8nXMs8HiYfVh31VVsi1sOxl8nTRI0lhe7auQ37jwKLAP4YvMMuDxTAvTrsYq4GyP4rzMO/7ciDxND3JnOWdcOSRXYKpdAxQT/SjEqPtSyc3KtwFdUYlf61JtfY1iM5VAP8xGGhe9WXwllLmgJY4NfFtkL3YwXzXt6cFTAZDKN2/tUDl3MKlftXHHht4qpRLuuHg7v/WsFD/5CtqA/Grs+VUKMLk4PPU0XrbCw44f4KXa6tdw6ldIdUQ+Rto50qBsm9qECVCeic8eT+WR0wZtCSpJ0vUYEoJ2Enwx5YZbkhpyONZ1HPcTKJ8UOKFVsspX4jruyJnvdHbDczwyl/KruPunaON6lfk/4wB04qdnHcj4npgl2KUn9SYXm7NKIqH6KUwiiM41AZgq475XYL9uuFngr+HCKNWXHutj7VxpNvV+miITNAc16pcnK5fy4ZZLh6kXpPQ1aayDpJDlzXZwfCdiXSBMO6fIFOgESZoZiJPAZKob2LxUge4oC9VwnmpKmX2LixA2o3m8I5/sDu3T8kLLwUYGAJTeE6PQW5IhUof5QQZ27G62XcshDtVNJv/bSW2+xotbLriELuauuiZHRd8l3GGfRA3ILw9lBYbJnC78/AHczSXyw3N8mzVietWX9ggbOjN38qQV3Bw+T4I+iyGbYmT8u/b4ShY91I/g4ZUAkZElxn35p99Ui4Nh8F2nkC1JHH6h1TQdBhEsdfzC39JVPXdqLx48Jr/y3QCvwbQuwQg4cjkEUoe3s0WpWgI9hx2xuCjoWaWJqBTQr18L5DfCLFEzR6sAHWh05SqYLCFqKV8H19ZgrFeEBOxgifYaAgV7vel0IlMaxKKKhZhOIwu/IkRYG2CXh81Xt3WS3rSWm3KaZvc/isFbLEm+AGs2tw5N0qpIcnqug2LQHXmfQYVutr3LKI4Il5TE0IdHUX+hAOLmKBUR3dT8zt8UiUUU0UPYhVicGuJueWlQYD7eFCt297cU6OuRitXI8ZviKlDnYXggEI4TofZY/9VTqdqFSmaDTLzfhR1O6OsPZiBIM1CbJ9LQO6kyzcJturxWtXQTV7QHVMZ1ZvfCTqBtlDps0SRSNQ5arfKZtoYw3j4TRZ+3/zQQZzt9BVbqti8xoqHQAZCkRi/lh+jmBFWE6i2sy6GrJT/qYg8TZ95zRV9PcqgXrBEzZ/NyNGIQl9Mb9OwKu7hDLWDOhR9wqUAKazXZRnW4yieKDr0oMuTsusJRmrbwmx3OOKgrHxKZeqrjDseDK2sRYysBFFUAPjeJjX9xCv4vWR59hjzpb1nWNE4Z1l7vU/i4+ELapEK6AZ9Vy9hBBYmaU6HeBmOHPQlbKrC+FcnHS5Sp3fbYPkwiHlWVmpGqlXDkvyazOK7sjvD/8b3D4ebIMSyk62xc1+5v4LwYKLDjyjulDOJLE3dytnLlizm3kg12qzOa87xtzDlYQIUANfhkwOSEG0UFI8RNO1EU69xDKyTEnyi0QycqMl8CI+Pgntn53AwsbU6jnBMA0y798yB0CJ1Kmiw8p4BktNa8acO9bX52StTjGWPtHuzKYbkl9E2hORBpO1y2OnUn7dnAOSf2B182N5yNjrmhR6sGgLXnIAYKxgTW+7HLlOFmWsg2+j63tnPlCO1m8tAgAbQz7ax9QKqKmV08TuvFxmS13NdCEyt50kuLX2Ni8ZGnt2xWVdJF7/GVs1YsH0U93az/k4fsKYUxTwVpbpg1jgkD10otToGMnE6owRbzEXOmgcThuhZmUuzHnY2PZRYVzhRZ2R1TNZvC6noVX6ouG3nmIYF0gjw5V32QfeqqqqWIdLFOrCIB6/r4RaCTvYK7+6vkyze14fYkBgSDvNZWcQV6Tj9QUj3CWAjGv2dbIHdM//LTHETZXjUV3imEK4gaUBIANroCFZZqvQavENVo1w0LDxvgNRw3iIfOM9bcfJ6MJwZGNDRRWpYMVQ01szbfGmw23VVWl+CHExcT3gtFEayJ9mOkNszb/t/Zsi7GdrK3j0kusjh6oM1plsGhTXYFl4ITHHdGPElsi9kTUOkV9YxgOjMKJ6JxIy2b3a7KxTy4mPqAMA6njrvHUxRcXbzY/rckh6sCXKksyuQX22JlYoJ6S42c0x+HIT8A7FsGDoFCO4ga94Ahfx21dhLRX2BwN+afapbv+JTnT/L4cJltKxSpEd4dNZOSb/J7/cswMhkL0j6JYCF6YPlmXcdsz8K8/3ETqVfQS655j4OmwX72F8TNK7VGjBG8XpX8QcuNWEK7PAriUnCQB1hj/Mx/zaEvAELtqMQ4MaTzg09AKTQiOBPh3s37r1nW+3GuHHnauRalsdmw5Lhf/9WP9AWHWvZeFwuqsichHBKemJ0UuRBrwEJ5xrabWQuaooHtRrcHtjJfRIwCcYot8GczdeaAuBqqU4GtSBpSk1WSo8+Qn8xGl5y9JAx5bi2KmyWyrXe9IAx7vMheDrH221XSk/6SL7RDmj6gSgDgJdJ6jgFiGmhswvZFPDh+NJ31fVzBn4DgMzKEo2PqIRtH88tLHFvBULuMsKjLIuF0wkEi7Lc39BqYDA1Pvlp22jYlDxvGDv/OlkSelmS06Y25kiz8whW96t2wpjCyl2OreeRmkL10DT37+vQ+34jWqOzoFLsLqgMwo9Fd4jXb1hDh86hLFU+LlrYuuLYADfr7uQPGuqVet2jqC5jXzcWRyirZcN29OslhSVhsXx84ZOAbUclH4Adgz/D9jWYAiupppw4ZHHtTBxmpPIUTQGFiDLS6Pw9NJI4UJbfO4maPXyzWS2ukBJBwFeKXp7tcFN2LoLRr0tZIm40czgAAAcbPvpofmsUv0/p9dUUuNQdro3Kl2eNfn+ffaVNVvvwyDOrGvVk1Oas85gGouOHf6fIvJRFhHTWpK48AFu7sdbBFPayg/078+npafs4jBJHohTnmw0MuCECtVGlu/hU22QgRPt9DztD6XgeBQ8KM0hZ4bahsLgsjfyrXVb0GNE5KADlkDBOwVKRKFJrijn/MuwX1FY/H1BGCsRpoEQpSXPli9EDdNX6N56mpGIvtWdkBOicONL65PlsRx48MZ/4lcc1jWYDAAJWvQSNgcH6o6fzGYlkIBYFmulBQMdXpxIB31/bCQPOHre9i/BFJ/UJn/hvE4lAE8CeSFymMEB+P97+JpXoIbUpWrWk30aMyf2Ezy4acRbgw6xUuervBQdZE0jgjeIrOV+A4vZjAnuqZnXYsccw03FDzmiwRMLh5ARHdHrh8jPHoaTW32a4Jz3Bs/Eza1+MY02CPUop4sRFm+jCSU9nxj8hiVHEB+pioHXGkuy/Gg0EAMBoTZVN79G4AvEauZw7tUFXSWBrlVtgqzzRaJEJ+slWFQOCIeYiAqBjGUqT3RYRsk+9KEQ0OEQtRTZ80+enDqV3zhzSd0Q/oq2yV0eNfzeOyCJji9mMvM/YNIcE50HF/cl3LXnqfUcbLsaplvZagZXUoMdhossUiWkyoj7n3BRAoVqvEqJAWtYkhOly58xb3N1J6TLdSFgzABLxFRW4zm7aRJJu925pL6tt9ydQjv6UP3YdiXm9ysXTc4TP4Kx1lnjZoe/XazP2p03HjnaNVRz9jNEWUV1O5VwxL4iIJ+Q0lS/jSYr/r+eWd18iZxlmLvIMCEXOAZzRmkR1k71mrfqkZ2bH/R5cZDtVT/Mgv5PAZx1YuhsbjLg84dQTZfaFPk77ae7RcvQClxNJllXKWhmZ3YobNYl4A/Ww1R3BDO0ACs+4YR6gHJS2hgpu4DKhB/YbwT8gI953TYcsEhnoEzGxAHY2yYwTujd2NPQyMZwMqP4ilGaIQWC1mgtELU+fALSHQ/zMfzQOsNLv2pu3UCcqBZ0hmxMDS625RBvGa5WPIVa8V+LAVuYyezlN/aRtgreM9IG/rVL1yQJMTNf6USXkadynZKbAvLHe3+DOOvVRaMMKLpOCS5CiAh7za1+SVpFpoTWmmMo4N5W4MxEi3iqmey4ujiAGUkt25aI2J2unqKtdn4G1uiKdf95KVSXYm4kJvvrgZSErvhKqADElfFW9ljrHQZxzGhY8nK3Iic89DlihMC4kvbtVwYCqM45F6OU9Q8DC9mV8sCUsuwJGwKe2tFO2vl9qhJGznxWExMmD37TV2Z+pq3kL3by9PSiYePmExSgAW7oUitrsPXTJA02Xo88x0SAAtPe3Odm0gaR/xGJm/X1Gb9LNFj/ooOkvzTkWnASksiC994Ah3lHtCSyxjF8a/f/TXrhtyPq+3TgAAHwl3riZk6j3xlAd4ZIdx74WB+pejEF3xFClpzeOOOgq1xtS/rBhXyn5/jjtygKQ8EILTU1mwfLeo+dCEh4ChFNxYjFcrAY0u1VKKI4Hzl7AZj2JHCDMyozNiuSprbnHTTcJcL6OOZyBAJa3CzJgI4jydNK7tb0cflSmxRoL5kP6yquoGJPTunAwLQVPdvDZFJbS7xfThcLSiEAQuU2vXGn2rEJGGYfpDGKOapadnsdr1vmk9trpIuQ2gfurgSAaLV4dgwuDwumCeiI51/Eq4f+JLe+7Nt4Q317e+PcJCl7PMHV9thCXjo4etqfY9lbgMbUt9k+DcQxRb0Y1Oa/w/3X7L3YNmaPUPcbg4396A6Ce0CQ/kFXW6MwHjoM/BSCyuUMkAfsWEp/6VLNAaPgTWBZ7gLPI6kH9BSO0GWVnSvxtJuH70E5BqXlXYBQxyI8WZ+Ct76HelY/91X9eH41kxAxKgrMdPdFqb+ZoTZbOJUeZCqptdzisf+72azhrmKABn19NzrdwWIvIo9VIymWpzIKXCmGpP9RZpE6a8+BSl98vLrOEd83Vr+6qmX27hhHpNUm2MNGKlij7/3pCS3XQpjsLzW9lIAXxXJiUGW14AwcPD4TQLFKiefb7jIREqYSfb0Jbed0+oESJBOC/4u+xJ9XR5ssGYPhz0nhcRdqYbavgfmgEdrtqxABb6zi1HS6LPIO5lVSeQmmabm7eMPIT3z+WPQcdWYI8cRPd107c/Z74R8N80itycUG/16Mb2/00HctiPYxf0Rev4qybT5uucpNoCHpXY/vC6BEHdirRbKIcAb3EfjK/YMUH6mWOrQT/T2IsokYETIB3Sh0aZGgtEcAVeYG/ycz/MHyq6dWaboJcka6X/fmZ+gXk4OzuyhPkTN3SVMH4wAShBewfpH8JcqLDb5V7Y+5DtjmuPSRMtgyqd0ZjO+CyLBM4xkEbXxXqq6S/QFAXWNkK0EIhBKDk5kKoAZwO3efMBCP3LNEqqTtOF+YKL4XEUcm7GHgIKE3BdO+y3B2ggrqpGA6zyB0ARcnv9kJ0qLgCjbuurPXwbXM/4PNkfJROMJ3YFeD0KHvchC4XdsjRC9yHlnuvndAOH5odzq++d3GFW3qRVKU/gqydHElU9NlCxpFsTd9Hjgq0DVsXgDPs9gaXvIJyiOuAotDcG99tfiUdpCDZpHa76yOStHFRiK7bQ9mnfjYJCevMyeFNCEhPkCX+j2wQKbrijlETDdraMtcNR9ltTIrFfGotokF58w2oxf1mTY58nDBSjh32XD2mvQzZoIFkiGEoXWVyZhxqpBpXGAMnCdyeISJDbuzaXJ4ATIFhjHDK/D95sHT/v3UMxqQXa57gdrnYIl+h3JswGTYHceF5TZ+8XUyIjPlwPfyaBbJ8R1v6yLgqGCczLi1NLaXPwfiiXHiUTkGfitRxvCSl5P7lkC5pkbqGMABq63IJiymyVTQ9JczS6g5rdGVsvMiyeIJv6tlC4VEKwOyPBHzMyDsogLUjCfDdM2mMqpLKp6mVQB5hfOKmNfOVRCh6Ol8lkpZ93IbH01PWIMol1awCHs8lOIiHKsR+oTtXmJAFHoRieeoxX+paRGdeLf06E1pkUvSy21PFEPEEvOORo4VTGUKeWKrinrQBZhkrwVeAqC7ON5urg7o61Tjzak4k9LReIvRP8XGJUhu9OnkG9sRLlQiv3AAb/043ao3nrx/UufEqxvSYAaYT34EcUEGrH54AVbTX1tAlIEz0QzeIueb5h6PD0Tmm/6IbugRe2rN+6DDSeFlDsq1hXFL0KUEGNocEEZwMh6of0Oo1fGYPU9oU6l5ZicdPAh2eUZITITGt/uZKyHOPHniWCe6WVhlBe2WbqXZA5kYOCQABuabCeZi25vBqpW984CEACbIBRCT8m6oizsNrj+UwaKeRh3TOeYZj6fe/11Evp2MWhuKx9rIRaMYAICbfObP/AMWa1shM3JOMjNAXeuwc/kkDpH1l1jjYXu8mZ4wjt07YO9/hdv3ci5f5FgDZ2iORxViEJ+67ju5w0LMCLost3tgwmGGcJ86HUI6fuPgMNhiYUuvwSBandbtH9o2ViRjXpy3rACcAMPP3wlWoEKF1U1tXfWavIXsoOwaaOKRHrcOwdjwijGCpudHNjXupJSkT9ld00dIoGNteADW7p+kh3ecT4FBBhNMdh7mWQRxSm38hMAaLFUCtgT3pOLpD+i1/tWLDD/awF+1S7JaHIVcXFaBpic/ZNvjltADvLSIj5nSpVr+C1AQ/IOOUNo6Ow5iWbeEWH6f5JCgs9ydzljvt9Qhnkz7Dj8L0/6eJ8lz7Aaruv0pW1Knb8DImb+tzZ6xHpPAC6L1KUEkbAilHsHJ/B29bMPKMXunSDszLYAAWI82EFkZ7MPW8CEv567qLBbNag98f4Nqp1Be1Z512QSRleuZEC76BuUYrHijfXtjutvFtv6qtXVSTayonYPFi5iDIDOxm0ondQpJXFWokvZ7oZ94HIiQQfcGv4lYo0vI9OCV56I1cvt9QGiGOU1EWnZi8YZobD2N51EArgQhZEh5L4OVGTalvhgi5vHm3xhrFqXBniIsQw186PFH2XeXScGU1G1qSAAAIz9kMqAyWhoSNODbicndNkEtjDiZZReoqoAE1iZBL1VxghLhj/LUCevnAOJNeLZT/faclJa3RJMdaBupYVGusn0Br0aCQEB52xtpfmtrjS+Gz/2gz9/kbCy+tPEbiWvJ18b3KLHJoBE8OKQ1hJaH38vokaR42cEOb7Uo1Q5hzDgdITIh5Laln97AEE+4DfwHoRqNkTVT9uySFBYdsqGtTfNTNVmofJs8lzsiXrN9JgKzWouVVEVenGxUNg00t53ZwHrFqXbp9c85lREeMXAZMREdnf57AAAAz57ZrQUvByKhvbFPxzjGzSqVdRvW/x7xQYmZ6M/nw8GbOLAsrefRU+wYrJUw5fOsFRP4tLH3UmyRgAzISuj5QH4wY6cHiv/ukdx3SD5WihlYu5/hEfVVvWFW0z9XExmo0Nhrvdh0sudUoiDEwy2h0bW6Z8A3U0RPrN+X8oiiLdVZA4xpvFTuzjfZtQW7Sp9eHtIuH+K6gPBAapgnSrAdxdIcAXd908LBhLadw1nDDqxglQ1NZ6PGQDE7YX4fLoi2A8/VIdebEkcx1X0IlKzWKGh+PIKAKcXxABWjUeHy4hJnrKVwKmatOKeqV6itFjddH1ymiIGcn052Df+hOAAABLrOwg4QbsBRInIs6T+OWIkv1iI7b+ngae4ZBHYG0UegwbSA62HMTyMKm7QP0RfTdVOEWo35pAcm/mw78U+KGpLn8d8IsxgHbhmtN0LbtTOLb5CTnVwljhIrPhJ1hoEfvvQdOHqlnIlAquxe+blo79+t8ZX6VqTrsli4WgQn0v+ppcHpWenbUCmnW6//nQnJ/EaTJgw0SZwLW8dKOdFaMHCw4Ffk9a433rAocctYRxenU8DOqzsrvr8SAsYaY7XoBtS1V+ehg1avKhKcOvJAkmEidn+LJyyBPC/CTt6P7xkSz336tFkfCImbQAzMTZJcOwSm+D48iXieMpP4D3/UIK511bye/LiZy24gvlbViE1pRxDYGg/PZG6tFjdB12UChf9Hm3cMUwFwt3Uiongv6Y2tbOIl7GYP9Pq3Blx4WuLcfRTDyoX7RDKa8LffIzm1vm3VfayA8JDEI6eooM9Tptly4Owtllih4d4uIC5ck30LkPfiRIN9wAAAAA4dyKcAAAAAAAAAAAAAAAAAAAAAAAAAAAEVYSUYQAAAASUkqAAgAAAAAAAAAAAAAAFhNUCAOAwAAPD94cGFja2V0IGJlZ2luPSLvu78iIGlkPSJXNU0wTXBDZWhpSHpyZVN6TlRjemtjOWQiPz4gPHg6eG1wbWV0YSB4bWxuczp4PSJhZG9iZTpuczptZXRhLyIgeDp4bXB0az0iQWRvYmUgWE1QIENvcmUgNS42LWMxNDUgNzkuMTYzNDk5LCAyMDE4LzA4LzEzLTE2OjQwOjIyICAgICAgICAiPiA8cmRmOlJERiB4bWxuczpyZGY9Imh0dHA6Ly93d3cudzMub3JnLzE5OTkvMDIvMjItcmRmLXN5bnRheC1ucyMiPiA8cmRmOkRlc2NyaXB0aW9uIHJkZjphYm91dD0iIiB4bWxuczp4bXA9Imh0dHA6Ly9ucy5hZG9iZS5jb20veGFwLzEuMC8iIHhtbG5zOnhtcE1NPSJodHRwOi8vbnMuYWRvYmUuY29tL3hhcC8xLjAvbW0vIiB4bWxuczpzdFJlZj0iaHR0cDovL25zLmFkb2JlLmNvbS94YXAvMS4wL3NUeXBlL1Jlc291cmNlUmVmIyIgeG1wOkNyZWF0b3JUb29sPSJBZG9iZSBQaG90b3Nob3AgQ0MgMjAxOSBXaW5kb3dzIiB4bXBNTTpJbnN0YW5jZUlEPSJ4bXAuaWlkOkI3M0UxRUMyMTFDNzExRURCOEU2QTcwRkI4OTBFQTIxIiB4bXBNTTpEb2N1bWVudElEPSJ4bXAuZGlkOkI3M0UxRUMzMTFDNzExRURCOEU2QTcwRkI4OTBFQTIxIj4gPHhtcE1NOkRlcml2ZWRGcm9tIHN0UmVmOmluc3RhbmNlSUQ9InhtcC5paWQ6QjczRTFFQzAxMUM3MTFFREI4RTZBNzBGQjg5MEVBMjEiIHN0UmVmOmRvY3VtZW50SUQ9InhtcC5kaWQ6QjczRTFFQzExMUM3MTFFREI4RTZBNzBGQjg5MEVBMjEiLz4gPC9yZGY6RGVzY3JpcHRpb24+IDwvcmRmOlJERj4gPC94OnhtcG1ldGE+IDw/eHBhY2tldCBlbmQ9InIiPz4=;" parent="9" vertex="1">
                    <mxGeometry x="60" y="40" width="19.5" height="14.61" as="geometry"/>
                </mxCell>
                <mxCell id="12" value="&lt;span style=&quot;font-weight: 400;&quot;&gt;Dim_author&lt;/span&gt;" style="swimlane;whiteSpace=wrap;html=1;" parent="1" vertex="1">
                    <mxGeometry x="730" y="40" width="200" height="200" as="geometry"/>
                </mxCell>
                <mxCell id="13" value="&lt;b&gt;&lt;u&gt;author_id&lt;/u&gt;&lt;/b&gt;&lt;br&gt;&lt;br&gt;&lt;div style=&quot;&quot;&gt;&lt;span style=&quot;background-color: initial;&quot;&gt;author_name&lt;/span&gt;&lt;/div&gt;" style="text;html=1;align=left;verticalAlign=middle;resizable=0;points=[];autosize=1;strokeColor=none;fillColor=none;" parent="12" vertex="1">
                    <mxGeometry x="10" y="30" width="90" height="60" as="geometry"/>
                </mxCell>
                <mxCell id="19" value="" style="shape=image;verticalLabelPosition=bottom;labelBackgroundColor=default;verticalAlign=top;aspect=fixed;imageAspect=0;image=data:image/webp,UklGRoJEAABXRUJQVlA4WAoAAAAMAAAAUQMAfAIAVlA4IDZBAADQKgGdASpSA30CPm02mEkkIqKhIZNYyIANiWdu/D65inHv8kmUrhN4f/u/4/wk5R8V/oP75+5/9998Ksv5T8mfLrapfC9B/9/7hvm3/s/+l7Hv1z/2f7z8AH6i+on/hfsd77v3D/WT/JfAP9k/+3/nPeU/vv7Pe6/+/f4L/mf3r/b/Ib/Qf7X6Z3sZf3//lewf+x3/n9df9x/ha/sf+//cn4H/2i/+XZu9Lf1x/ufpP+M/qX+V/v37geg/4l86/g/7Z/iv+R/gvcDzX9b+o78j+7v7b+9egX+7/xPiT+P/sv+r/vP7w/6v5AvyD+b/5b+wfuL7i3znZB6h/lv/R/mfYF9lfpf/D/yP5cell9N+pH2P/7HuAfz3/Aek3/S8CL8D/z/YB/o/+c9VD+u/+v+x/0npr/Rv85/9v9T8BX89/vn/i9dv//++D0e/3W//4G9SUi4DVFABP4azjAvfRljxqSwa4uh7qkqkgfDiwKLi5YtGqNifN3PW39xdEGg92Sm4x5XSUWUOb3AkXd1d8ExxHi3qyn2DxhXYv8YCycfjJ6WDpP4DUefZ2rINDuyEQ4PAqPRcsUdpzAMLRLXVxNxJT0e14mkBtQvBbjF5CHR+LcA4GtrOMzvkCM/iqo5eJSyY9gvgzB82394c1gWvyAqou2ZCKwLJ367v1eHDwfmDEeOxLRoC/abdRLwpN4aWxYjvaPaXCJLhrBSPyymTM+C4yE7DkbG12pjqWIlgMqvqbTYxXN9EsrwpwhlgTzdQ+wFQ5DZq0aoO99AxNW/Awqou2ZCKwLX5AVUXbMhFYFr8gKqLtmQmii7ZkIrAtfkBVRdsyEVgWvyAqou2ZCKwN6mQisC1+QFVF2zIRWBa/ICqi7ZkIrAtfltRALX5AVUXbMhFYFr8gKqLtmQisC1+QFWNAwqou2ZCKwLX5AVUXbMhFYFr8gKqLtmRTLsyEVgWvyAqou2ZCKwLX5AVUXbMhFYFseBzWBa/ICixVfsukmjISJjddqRLe92CQBpiQ2rjNXN7EAqou2ZCKwLX5AVUXbQRaXZkIq+d32nJ//4a6e7cG0j+5AfCQDAg7SJdMzVhuJVoIBVRdsyEVgWvyAqpb1BAKqK2nEmbViXlluICl2ZB58yZxxOVc22Ew0o5rAtfkBVRdsyEVgb1MhFYEPBaiqViEM5cJ1+QFVF0I3PlGvgZsWMKqLtmQisC1+QFVGTfiLBfCr5Y+5jDlyo6GqLtmQisCFYIG1ykG5koIBVRdsyEVgWvyAsYlkQy4RcqeEjrq5Q+jh9+K+n8JqKVd/eHNYFr8QqK5w9S9DZjIRWBa/ICqi7ZkJoorGWuD2mZyRogLt+u1uEWYs2mhYRJSAqou2ZB55sNIlGsiIjmsC1+QFVF2zITRRWMQtPFVKZYQKoa5HCw/Wj8BfxRdsyEVgWvlYBBE8OBmh/Pd9MMtT/RwPIXeyJ02zET1W3IrQKDH9D7AVYjr5wXm2jHk7LLg2ubQJ5KM2dxtrmN8VwEIPnZ2EF/XrtPrRLxA3Ffx/Sdy+jpciCC1v0WkFd6fmNzCkz3SlgjPqY5HP9M+Le8ILtmQisC1+PgLPDL6TMzCu1hL2d7uq5qf4rAtfkBVRdvuAVUXbMhFYFr8RImTItW3nfmuV32KIQV26wYMqnhp1XrX5AVUXbMhF/wf3hzWBa/ICp8J4bu/D3f5XtCpoWoGZs4b+RqA9fMSvZ4tNDb9p8sQSynzWV0no1V53Mu73xRYOwocjbvGl2ZFMuzIRWBa/ICqfpcKici7k290sn2aDq5tg5DDJLjWk4o77enbpQfchJ/dRvdFaZ8IAs6w5N/s7nXlC/1KaZCFk+oek0+yBMzkl91rrTOcqpydsl0LbmnbX0p/ekWcTOD8564ELYPFKWQoMdQzNwBLfAk+dJbVIxnHoB2pcRPfpk5AOe9Xc+6q4PHesuzIRV9Ir0sqYaW88G1TWXQfQmjbRnmV329QbDf8MV76FCL7cKtRx9Vl+Itafxg8n113VCufIMhEHKHkk3l9orTjYW+LhzE6NJz1SxTM1eG3przoBPhMs0jmGDP4uYYNHWEbhzEzKRvo00auTKCXYY8JEo34NO/0rzyZQf3hzV8tvnLWlYFGcp7weojOJbk1LkUBB19lIH54DeiEgIpXxgCT16Qh1DrtIYnSs+I8wQiWPIjdvfb/4FsAu27l5CKwLX4jBeaMouSIe9AOp2uAU14e44cDeI0MBFK4uzCvXKwGSKISue0il63OokqCd91jhy1nzJu645oAP1GYWBjxtBwlrf4EUdyeTNMhMaKubWHJYaZ5bweoSJfKSV9pi+nKsvHfmFVF2zIRWBjktJYOGAx0BG/a/IBUjy8LI0JK7T5yjouci6XERXaw9KuB6hVg3/caX1C4U1NBh77T8j/Y2w3TFnR/MSrFBYxEc9a/ICqi7ZkIlSR8W9iL6zIRWBa/Hwz6zkm+fh0gDsPr9kWNL7nMmQ5T8BYEUjhXSCuu2T9f+fGm6g8JDtsZgktfkBVRdsw0W1AHy8jFBAKqLtmQisK6EVgWQ7pxU9sS//VKodjgvxe+wOLDp3Ey1BAKqLtmQiU+zsCEhYFr8gKqLtmRTLsyESzEbJ6TgdaqQnWwXDY/gWvyAqou02hr0OsopaKwLX5AVUXbMimXZkIrAtbcre/mNnfX88PZkIrAtfMcSaHWTvF7cwqou2ZCKwLX5bUQC1+QFU/yRCLq64Mh3CsO7b8gKqLoiXRV3PrG7izWBa/ICqi7ZkJoou2ZCKwLWwl9jRcuUEh7zoMIRWBa1/vV1Z33ICMjj+8OawLX5AVUXb7gFVF2zIRV9asTG/SezuVem7/F+QCT5y9w5f+0zzdiEaXZkIrAtfkBVReRiAVUXbMhFYEUiKzI00k++81vHprcHPO9lodYS7vocz8ztN1YqHn8VXNJSAqou2ZCKwLX5CcsC1+QFVF2zIRWH2hAKqLtmQisC1+QFVGTfkBVRdsyEVgWv8p61+QFVF2zIRWBa/ICxiWvyAqou2ZCKwN6mQisC1+QFVF2zIRWBcn4c1gWvyAqou2ZoEuzIRWBa/ICqi7ZkIrZ7+8OawLX5AVUXkYgFVF2zIRWBa/ICqi7fcAqou2ZCKwLX5CcsC1+QFVF2zIRWBa/IEBgWvyAqou2ZCKwroRWBa/ICqi7ZkIrAtf5T1r8gKqLtmQisK6EVgWvyAQAAD+4HKq3h6rTiIjeWvfKhdbnv9BhS4NmZFP3yokVLh/IcOBuZ9o73aPIGa6o/rAkdssBjCtjpUNsOlOSQeZk+THf/MZDPeJLYtI7U0yItaiiNhP4532Ph95y3VUjKSoD8Qj5Y7a6XCCq4+EoGhc+UxcVr+iyjIEj6DUfugVVs8hjIrO47SttJcJI4KqYqZ3uqSeFWlw6eliVgkprRuAN64v+A1Vuf7iEyRt8n4b4xiAM1Bd6aPUdknrPRrgOD1FW436p03RNfcCplbBKsqxPXorR/LakHmQbxe0RTOgcy/JoHajL7azq64jVRdKCJKI7/z/KdIL9r8l1XDhu4neTuLJHLpVkgF4T7a4x5PO80ml4SBfYJQB9iUI4XpJWVcx9EDpbzwZEXRoYdLiONmxS+SCQ9WIQvvZgtqfeKSlTyuJipaPGLj+fDHfM4V0b1SdxikfbxlPG6IjdfkMbOJOLaenMTbXokOHeEDcVHXcKOKYAxHsKWSraiyPUbvlUIGNHhGpq/Af1wV2qcgfCLPdgd2GrqOC6MuRV1UZ1TsZnlOtWhujVyE8jdllEdiak5yzIlyA24d9AZwMHhFYDyLAkPClKkBahjF57oNpHGb/kkKG2tFsIQ5r6ePZhs+cIzi5Mb833O9CLDxq+8qfhhEekt9LN1fw7lgPFyU/7d8JKdjqgRgCMc3kcmoxxDMotvwY7i7Q5XIdx6xMp0vAb8u07N/X2ZpvCUl9oLfFifLOByCWYpXUSYVFwI+Eds+a6O8FCdy+eADol856DlHm62nuIXvGMZx85wvsTN9ua9MHVQT147Njo0ev0/p+g8NqluOkwj81gSzlSTPpwqNZmgWoPx0RKRhjwL/E1C7TfzsqAh1xZAN9MxyoB+jihk8lkxj9v81S1NM1h+3lZjkPPWLSxP5RXJQmLs4sCKyv92c+NafxMveWIlBFp+r1/P8hfvfFHWSgWHpi66PGmclF6fbcQJmRR30XfpJinRn32tIHteeNtMF9TSmx0znMHqG50ZN/VRqX7jvJvzognRMUZGkm3UqR+ePNgKqVxTgZF/hDuNuLyxsDMuT+PuKfgGvN/8PZpq/qz1LeJHN8CtEHXH89xfeLuzedA5RVyHTNdGBsoRx2JxJO69W5wpxTi31JDwY+t9dm7YqOSVQuE8CoI7Og0T8qh8wxmDtaGQhGdRTn24rXxZJRzxhvkEglbDKXt7SU5Wc+BPPZIbunR/KgZP5eGOoDH8DBUeaZbbX0fmMfTeXPLt09RvSnLSDUNNyAQwTldKAB3HeRcsKzC5cf5NPJxdqzKgah7EVgmOuD6CCzk37Y4fxhn91nD+oQimPBtoD/DSuxvdVvGdAv8yOt1oRJ6yEsXKrEeqLitnUEezwAcIcnzliOoe4xTEo1Sfrgyalzd3eeRvhE4hrB3GuZET6MLPwj/ZhOu0gPGoyPROlxXasXj8gGEYHP+Qh11iNtXsqfpRqJuQ1gCucKqoaQWEc6YJz+YNjd6Rq1iIXzSzW6XjfvgtTLwcw7/oi96Vke/vnOAqw2qeIFLCyM0Ks10W07N/X2ZpvB3eTQOqLkcvAHAPe3jwVANMX9HWmxaSwZe8DtrHH5KgC/kZtrj37Y0lJK0KeJDBMtidBUAlJrRS4f73XN6QD8f6xHQMmbm4XGNBo1ndscBgWey1AuIsg0vJ+Dh95VuRe9pdiHYJC/gYXy5AskXTDKOMiFAMKYSSR5xd+uQ+mDBfqTSOZZ/F+lG3DZk8Y/VznhNM5qNJjiah5Ypc1gQGJSrxnE3BBVz/CE+uDdBtu14FpCjTv0PEnne0sEDm/firWYVKzFhHPoSZ0VgxFKeqjPzTqnNpdxqyvAWTGoW2C8YUfCzj78QAqomPu5z1+mKCgg5uUUlvBCDjje26RDaPQhZbICQohhY6OY62j5AO0JDAo1fkNnDEgWqd5vZPnV+6CYt/6CFgq9y5XyubgAzOdCsW1vfTpzdRg5noyhY6zP/nEnI8KTrmYwxaiO2q3SanlLG3eR6kjv9riMFeSG5py6UJogpVkWjUNsWOfouwYybRycya9XphQvPHuywhLPOyd810uqOPrW4Wuk4lzeEuAZeCekGfR5EvTeKogmd6yLE/PCVAtvRKXAPMpOwU56vepPWrzlmf2SaQwQoZXJIOFr/ylW0kis3jz/r5quOcPWjVJoQ7tgrkfrvQFpv8UHGMJm3AkGzJqRtvHnErT8mFBx3ZmFkOIISZrwoEFhwDv79fmW5T3zfseSxadAD9kFBu2eC8edV2k31nCuzANbhf9CnJh0XDefDoL8/h/nNMzpTRfKNG793++OViHZlFcMfppqtpdXfWi/uBzqOLHmHsTV3avH5TT1fIrBJmE9wcE6TX9g5MVyDRvaIr47kE75ytQmZMsbX8BK0Mcj5TGrFKh+uVSbF6WxNXMyUI7OZcldJoIdVz2CxAYS1c197WykL09t/7V21Zr8YtzsWtWRd83InmHjUC/dLdcPwyVt0liMStCXKDMlLhrGah4E8F1YoA1yj0GBpXBRxgZW0DjLDkH2qe0lYQGivbvsn4rJ7uCwa/eaU0yA+2o/+2ifQ7TJM7akji7Ve/yJU+SDiapSAqFAmWX7GPXSo2vModE3SknNLf3W/93sQeAzZ5vLqfa+pPffZqu60aLfD23fMo5Tan6rUpKPTM/+iNLwJEEfZ25OFC9QJ4dmlrN5A8IFK0ImUm98xgvmWF0VpWI6GU45y62GuZFBzjadEZRnDkq8d2etlFyAwMS2dKMJn9o5jpGtSYA4T2AfsbQ7rlRrUj36K+mLSMf1h89e5KoC4CIm/IJAk2RIuVZ5n+NHXd1Zvmv9yTeZ/wH/m037GA66bUZ25UtYewNztgiPcy7sLb83feHDFKUe/K/TEfe3EplRNl2+WO7cpSABdc/5Lw4NJmQhyG+eKlIaiHUhQI+3EF00L+4xvUNPny3Avd5YwjDoiu6ZbECqV9IoEUBkpGvz1dt1WydJtv7tyZrn3+BVdNXNEmCRptJV+7VMvJsiz+O8uhhci/uCQGsYdDnx6aVZoszhdlMUh3VAJ82416GQ1br5wq8Hk3x2QMFbOnH9KVwx+UmXZFK1xN4qAmviU6cjPDcqHjBMyZnd4GSydHhPVu0gT26++Kyq3djgI6Nhi8DTc6ZhCJWsrMgTlp0npgIUPnpCxPntwrvPvQQEbxxjiOY2jzfW0y920Xwefli7nqrqfSMghqNC+c6jLjKRdw+pSB6pOYKrW+ss0VcFZ+Rfj76tXJgrKm2ug1U0Eni3wjnq2fN+whdNTbnJj0Lqi8GJOqcDY52mDRyVFxsdUPbPG1ZqEzfka7AXi9GiTZUIFE8SeSU+0B4teT/4Lgsamdkd8Ds2MmrBfPqAeT15PPZbyruidVvk2TT76nUsXFOrBSOP3h+k8Z6CKPtpX9Ed5fEMhwMWTWit/eV4fvV/yMXyP0NDKRXDwcwexlEDIHwWsIc8a9Bxul9SwdH4XZyd5Gm1o1dxeNXYr/iP5M5MjTJmXKPKogh9BKbjpnpcpWHUgzSfPLnwSghOkpc1ftVBOn/t+4JaCNXflUL1PCwbegsSgA9vIxXEp67L9NgTp6vPyI+MDpE0bpSqRVF8J/KdgypBZwHLzT4ranibAyer179TkC3FAVtiAoUuiGxs8sH56jaQc/LE1/gSrNTozIabrv+3CwOih3tW6ZqO/Zo8JBd/ju1LzIJbSFU3fRYA//6KhV8lfNv9F84vj0WJNABrEMRfk5O+uWIbAkFnp8vdAtJA1dirCJXRyiQBhlpMkWblg7PHEwHIuoTjdZ+3kUtd6nd4NH/LcepmwRV/9NR/gpayWV0YoELGs/zhJmemiHFxCeycQWJhyfksHuYcpWC93enj1Rcv8E10BdxUQDGRd7ClLd8YbAX583FmG2W3/cAXXmKihFYMv1LyCPt20HIyHjs2AB+0xs/AKoN5n/h1m+ZsUJfFrPQBM+1qBh1AnEaQ1cNdq8u8rnHMRWxX9ILrw8Mp07ZDOGvJq8DbKskBFHp8GicZS5xtM8nQAAP04AAAAAAAAAAAAAAAAAjY4wooa/EkkNBvg8gXQdQMibpttpdiC3+YXaOs/QoLMNuv2q2OXtmQXDSaxKdrqP4T6Xxbu0noI07+y8uIh03Qd8Xf0FlJWf2DvHGQhov8xb6gBMosPe/K9xZc7ccjNedr52qElQS6kdDjHhwMDvH/LjQqN0CBaHCSRa2KFug+1TOZwqnzQtcVRfS1ozrNcd5INhUcfvuoiUrr/jUr3Q5C8D3wP6r5OadtZZ+BYIgGc7onlE5+N08Xz+kXCFKEFeRS8TQ2TI5UriK98+XyIN1xRFj/wvV1GvJ1p5zsqpJ0nLDWwZKDPJTZNNpU5ye5ePF5jmxHL2ihjsXPUGudOPFEoLWAITkA3REbwDdfXPiXWXvR5F3c6FkGjR7ERPLzQ/bYADH17lLxfj1DQv+3bJY0+7/Vsbggb7zqt93Al2y7pUKsEwQGIsWAJLxNMF/yZ1VX26bQ8LhJfqLdHYMNW8JRggnpLX7YfAtGOZA5A+0SFApJ0uNdt45pjIY+gPV139BlvzhLdUXFzwVtaNghCPn8us1lMZX13XWd9nkkbJavI/X3x0bBQbZxUlqdBZmoxUvkIaSSBcssTw1hgi3e5jyjmJAHvaobfjXmPmhcE0x9bV4H/xqfVn9NQgFQq9zoFXjqD/2JcbXzlNRly+R69MnQAlzbZd/8xPaMLFhAHMqYSXkbHHF+qPk8DNokiUR+OpozNRgj+LLFYIAtJtUZefcKD1NRAj5ARvqLJ5czXkDGhma/hwtpk07BO/ne0m2LoegMjaASXAAH5R/Yxe7g4IIUpT9n//jFPWQ5/ZzW+DIWV4TiaIK2XNdEfv5ukP2Ti4aa9v9/ogGsQd+mbOgPCnM7gDsgqo0KdG7Yj+vwnVlVH0SgPIqVg6LgfcIcwMMXl1iBAtTUNt1dhFjAeGTpxTo/lR5Dgs05zAYQ5VN/FGl0wjAAaGO2PV0OpOgzfVG/SXgb7GdyluTF7GKWZ7J7I1xcR49sFBOqIbnR5Gd6kGgyrqCAWvH6fsb5E2AABK3O0gowIAXvUlfOVT7491u7s5Doa99uyk2Z160UV0f5674SVWWABB2ld9r/qqT9x0hl5p9AM0cuVxgQIMjAnZ+i1kB9YKDpbVA2bWYEo4l64NErn5ahSfg1Rfn++W2OcTZkJGOnVjOuK93t3No7ulTDxbY3g1K1JvLgXgTLo1iqJxG8iczURzvIAAeAkIqxzzUZ6PJfo2Qs/hX1bKoELdqhdj1u6JwJxYFJ2LdqO+WdanJPOrZlFb9ILcDhPlB7FZ1pOlFYnTD2wdMrpaEI496JfOCPZuwZdmTbgQBO9G4j4MfjdR4sRbyli/pnK0I42/EQOpN+K/I3UwN7YcC8zpX0OrjSde7h3A8MLWtFM9U8eLlxat6qowqOSCpz60/UQSGCNk5UDAIcqkYNPHk2f1NQJqVS+rRx2V8MzmDalivaMDYJAAIJ4i/m7Ve+isx9CTfzUkYCmOvhfXfTwMNgY3/gQ+/2IwCnFEePIk+9sRFVVu0clwkveNFxfoGXqw5hgIUJEmfiFx8euXyzKAAR8NGrbkJYL2nN364BinTqcAcl+Q4ULF5Zg3/ttnQITVrZ0dN4JU+V3oGRUaUmYeNNd1rJTj+YBfRXY0N0QTZuKBmH6pWehDfyA3A8SKGHog/39V/05WLt/VCO0j7oHgACmcu2IxZblChdtvGLD6g72JUEF6X9ffPtPBVvrIL9VEOoYvuV/lqsa0CxguUd0tpcZFXiKiqo7P/MUd8J8LgazX8xOfi9jG00joYD60FapOAYAZMe5XAdr3BPAacvmSYXt3G9rGFAEOe6iCpvrZIGJA7kglUkmm0QoW7r1oKloCAWYd4r2x8haM0UA3BG0hwFfy7e/zA3qz2CVm9IzwIVMCxgUD9beNCxwK79e0F6UK7hTs3uWoyPd5Q+b0HXJS0sXYyPZyOn5kwpURxUEVAJLgAs1nugdLrsM1RiuBLXsvqXhHppixantvYoLs5A0wk+w7jK0HhA87hWTdtYeWeoJSJs99O/wHDunGm7f+MswXAmyhQ50WIxLFSA94nILjIorLWFnHHW0+VpadEQfq2YCYGojkR6alfEHHNCMqvTJbESXWR16FJ49xngSs1MTb0GnSLqA1CKCQOLBKy5gH+Rv/WUCaa8aF7mnoQQwcWR7/Hq08kffnsdS0Cwbo2NGPHvMi4t7++lfiJXorlu8xnhDq+sBUT320nG45RW+qgcDsa/5me9/kkbmUWlt7T6njA2gALagiElva4/05FNnkNrIKsQUO4N1h+6aIRjo1DlOrKE7anjQfvIN7HxkgevhAMKOyplxTN55eoPal2voB3pIKgBG40rmQln8NaEv7dIADqKrKT4smeon1ULFJzaUaWy1u/bWOKokx8porrIdvDnZ2byZIxBjV7ghFK7XT0FNt2gqhdgukNSaDZ7NGcd8s8Oyup75uiaUDmLGrFcfmfNyLbmbNllgMFZdfztO4o0flzC4ZareRLaO6r1ozGbi69LztLEF9amUmYmXUDMrLEVBf6BpNQq4sIDd+0vDDHhy6bmXVMtaiiuES8KimKKyIM37enMMir0U65oxClbVZbp0OMUMq+nAciy0RiotKTTNsRAj1BOLG3/dOh5IEQaqc+e6lu33L3lib8Auj/69/4QVkYmncs5SwX8xNIAsEcwcwy+QgjqF2L/D/Y9nX2ujz3FFHIIQ7fVRn6y/YZCe3s9azNzb2L89xIVUNtZKkmnKC1VEi0nNpAuVxSz49mJ++C7ZtpidEvn/+K2kUxnd6UFq4tuRHHhlgnwob3YeRh//Bq3EjzmieTKFmDrFLjhUkQ7Hp6MoCSti8Mc5jVV0a6/xcQWRpQH7u4Xr/fF5grRDLtk2OlB8EAgB7SUENjxf/n6h08PtOt8GV7XSmHbZNPlHuFSA22Bbf1rEOd3ZOXxxTcBUaThP2ikA6uM1Y41wx3vpNPwZyqj0R4KxrC7PL1M2fgU2rj1exuRddArNef6u1FlsVbpUOWxYkaAlNf7CYTBQFficFqAtbXOyiAIIY0HeSQJZ8b7zzmQe8Gmlx8MD4PUeqGGJ517zXM6DogrBzyrOK7283YX/taYc5+dV7CGIUPGPlpuQKJEIks+zlMVWi1A5OXYvhhFnaljN0fjuy8ZEmGGT9D4yEfD17/uZqPJSuCiByF24t4/HE2QkFdvmkH+PgAwIUprp66KE3VCJ9pDHrHUAXdh83NHMnpUWoaf0zYx8g0TslBhTPykNqVzWTq8klH6bcFVU2lywwx016tUJP9q9opMnNRpw4I2sqowmU7Y0NEN7EoetDaHKGg7qKfcsKEoszqjtFBKgZ71ROYB0yzM/ZBpmT3mlNLSjKyhDRTOOR4DJajkE2nEUKk/7H+v8FSjNL1hN/8bUu1Kgaj5KcRLcuAfu3sdOysO22cReG9tGHTmF90coIhTX3RyRyhYK1BYr2c6QXe4NC04YHN83wrf23vTzkg429EIZouvdVM8i/SAOIliTHtZ8QfBlEii3RPX1F0VFFcN+0ISU5rpWVYM3tjTs4PgK85jktoW1Mf3m6F0Sx8uiukTWH+RyfG00U12lQ3goq3MagjdHsZwxM7Ksu8qERSBcmqOeDHHuF2mMwoCbiWOxBYfuSCH5ucOfWWpZT+UCq/b52yBfpYu924MDtchIJr7y+pv878cCtDjqpELqziow3GSSOtIrx8pL9nEHQZm33t49Zr5pMw+hMvzlZGrIOT6Unqn31lh9eRjZdB7yqYQUIjQ90zT2DelapWH10VXFPAs8v+UJodt6VKiYApaDmHumJkRuaq+yuSiT9BrNwrXgMhh/CrmTrERZpXglNFbDuGUXSbUf9p2OBGFqXWXIvFvbHoDC4lpFGog55euXPdHZnAqorJAClLF7qoqt0H6HfsgC7PcdKb0GkJTyPtxheMol1gQQ3GA6oBaGVDg2+iIKuqmY+YTz3u44tlYD1/y322k1WmgohGlqH+I1w9xudEF2bBaaASu5e8gCGO9lVlBMpliE8xTcUmVYumjfVOcd7oT6yezdf1J0xZLlGQAUhYa29VALL8ILj6RgIqI4YNXao35xXIR8/mpfKRm8ymx7NNqgqGcwDSZZ1JWrxF30V+3iasrDZzZw4evIwWR5pYjJ06l3M5SDyxUF27+ck67/TAJOK1977w9sShOzxd/CD4AMN5IYLuiBu9BSa30o8si6BZzfNxOOOQg5MbZahpBy6pe+wjdEFlfLCM9PxXrGLJ3hx3mkrUmIdZtdzyyAC53/zs9SrtQi66JwAABL5R5Ui10DhI94A1RsT3ZbvS0c2trHgFYrmejbNacVCsqm0Qu8Epz4W7pGxQKChXqr/mnOLbE11n89TzDNcKsO6Dp4sru5zPQLR5TXuB6vYQAEbbVOmuGivdbbk9JH3oaPpSwbZaOR/LtMi52DskNmA7zXKEFWutA+H2ajhu6gQLwnNYYdXmvkVx1KE8VfmGkaMZlS5s3cLtX0QGGoGzzomSAZTegds6JsUFAUTGjVWfyinh8XzJWbVYrWMrqMz01oMCJa2AbAn24jdYAp7oaPkRxDCXsQ7atg0mNkA/caWaSoqiau7t+TIt0/ouhea8L6PBTfRzGotPMreGAhShxPfrzd5YgxQAANif9iBx/ttCPxvX7T4yjWrbG85/4UD8sHcHmYC5BWSD5V+GJux10MckKIHXhse/p9bBX2tYs40JP5NH7ctZLnxdmq3nR7succgtKRCxGNUSEg+yIg60i2Hum4Qhhdl+6HQbnr8QtmGdlTdMmVgova6wAB+SRYf8NoPL/mUkZRaZD5TG9G1O1/B84k+FJHEE9iVnz8JFZj49JgYjvnRxhKPA2pIJ9jpVHTZ0nuZ3m1HsvPMitfWT6IBg8z9EiAcqo+OBGzmpbzYB18HzcID45HjK6gsFk5f9YcR2OxZTukv+Sv987rRHEfVterwtffRjEBfOBDqPGSrNa2oD8b7Kp2fP5+K6afu7BkDTqpMFMkM++Qlcf42/Zvq5IV8HCiyqTDzYNk2sGGHCx9/IIIrwpfozpjWe/98X9Uwkg59IHS9b2ifmu3OseGtwD8GyELjEpEveghXEf4sVwnS4psjmozsBYSGlWTWVvyUlsSv9wNH4MHb0G79w1rhOis4hzFoLOBJ4P2vAK8eYl41HFL4igkxe5YobZMv3n9WcFHagBtrLlyPgsczCoMze+nZJNy8+mRVyeUigGZW1aontAAqrNcjOIsfVHAxU7w9FDLatrrCSuQ88cqp5oHmUK2LUPruAsnImX/KNY89mySHv4tVMdq2xQibwFLcBmUuxSxSwKEs4jAD2dn3sOPXMf56Jz1QR6DFWjfkIUjPkSRQK+QMPL6WSYAVq1+5/QO9aq6PDaVuR4bNPPzblmDy3okrLrqLTOPeXfBG/kHsPYFCN1jA4+H9E4oUe1YeuL/aOSI2jRR7ZCRezNn9mDSL57WQv49u/uVLSWFHvakAUqAwoDf1ZYBfZAH8GjM4J74CcVWfWlHjW3bXQn1CkoYwlObcR4y0uklzTTbqddpYXkJp22UD9WVjg5i6GYnnvrv2am4xO+NvV+zqtFh1JoGT0Icjxtwes5qUoHheTtOE3O67BUk90wFQ7Key0/U6F5mDqdMB8v/hHkod7HCU7xRwu266LjMgSNOGEWD0sRrA4gTzFjXtaebVYRTUQB2VxiawvJFTEljl6oG87JW74yEm6CrqN+G3mO93ubZcQJbNkYlJE5mYYdh0ByJz06agYtLIHmFx7/0uhywU+bm5KO+1RNhZqnAQ1Np6eK4Lzlz3qGx/DVZtLN019GZ1gGpCrxZJ2CUPiOrGkqR2r5huLnTM3fHlY+3pvPbuhOBvkAL6ffBJzxCI2WciKXGFbC8j6EWegPkhdJ1Ggv43jDH+3o7p08MGYexCXLUxhQzrkcMMnJmxKh4MicFwB3fuRLjlwcXQEA4FK/kNFgcCr9C7XVzG1Q7bJJ+LMWI5WAeDbaucNSkDcnYomU9L1n2Gk/eqF5Gz2ophUipJIT9HRyw3t6uQqfI6Db3JQR7zRvoGIizxFbQWk0mcNQ9ntdw6MbdC6r7rqZl2w5J4wSSzK0y/wgB5uYRmnxJgMMaqFNlIvQBC/iApYR5mn2zLwoXj05AfvHTtc2UaXbltSgUfnrtfAGo4T5iy6Qp8jp3/ruN+7vddbMgBYnQWGZdKk4EFiSTIMbGsx7EUs0vn8IU/14+AmJMndpevAGgjXyGvyMTFH7BbJKhcTd1A7ggclxYcUw0kdZWzmD23nIgSQEYTjvav3F65nlFif7G9XY29zDdjfuqBZs4jk2hXuKvs6mU3fqSLgmWSRuUPnHJ80qT4GgvH84xiTS7N3P/oDSHTB5OFWx9a8uHrI3cTbEcAD3ayT6mhyM5/LScC0tNG9jisZdGvRVO66wRcbYLYI6f1LdTFNkZxoSNXMevEVXVxJTZDHWLJnWsN9qrpXvPDaLpZyhpjkAsMVMPEjYoYNgzwF3tIUyTpG6YMRbXkmGFpu1HIQcFDvMoMY9oFdI80A/fXcWFt6yq2QoPaOmP0QvEhu3NxJTjDvYtFDjM/QHG98FYzRDoGqDuHpLHQ8OEflvDlX/Hd5ez/kzRfqTWcf+hIKXZCVgdJQWRIvH7tFYNM0XJY0RpWv4OyGa9jTlSdNIUSmBqyg83ts6u9gyoZKGbOCNCS8LVfPiePJLde8ikpc5SI9EUY5zifoT2CRMC5PVCzHXRSUFOhYz0zAys3cttDTMCEaGRo8N9jBBIRoF6kx5bP35HWda9hJGAYtUA2IZdlNvWPMWjE46Ys/k/O0ae8QLiV1Cvju57wW0eGAYvmOw2Lv83CVQLGYOA+RCjjI/Wf823wt4RQTvua0iyjUEWJw6ThMyhh9AIAE2AcjhzKICn0b802PchSGyNIBoDT0/JypkN2SLWtDaN4+e5AIBXpc8SLFQ1iq44dSU22l1LKxvq8nXMs8HiYfVh31VVsi1sOxl8nTRI0lhe7auQ37jwKLAP4YvMMuDxTAvTrsYq4GyP4rzMO/7ciDxND3JnOWdcOSRXYKpdAxQT/SjEqPtSyc3KtwFdUYlf61JtfY1iM5VAP8xGGhe9WXwllLmgJY4NfFtkL3YwXzXt6cFTAZDKN2/tUDl3MKlftXHHht4qpRLuuHg7v/WsFD/5CtqA/Grs+VUKMLk4PPU0XrbCw44f4KXa6tdw6ldIdUQ+Rto50qBsm9qECVCeic8eT+WR0wZtCSpJ0vUYEoJ2Enwx5YZbkhpyONZ1HPcTKJ8UOKFVsspX4jruyJnvdHbDczwyl/KruPunaON6lfk/4wB04qdnHcj4npgl2KUn9SYXm7NKIqH6KUwiiM41AZgq475XYL9uuFngr+HCKNWXHutj7VxpNvV+miITNAc16pcnK5fy4ZZLh6kXpPQ1aayDpJDlzXZwfCdiXSBMO6fIFOgESZoZiJPAZKob2LxUge4oC9VwnmpKmX2LixA2o3m8I5/sDu3T8kLLwUYGAJTeE6PQW5IhUof5QQZ27G62XcshDtVNJv/bSW2+xotbLriELuauuiZHRd8l3GGfRA3ILw9lBYbJnC78/AHczSXyw3N8mzVietWX9ggbOjN38qQV3Bw+T4I+iyGbYmT8u/b4ShY91I/g4ZUAkZElxn35p99Ui4Nh8F2nkC1JHH6h1TQdBhEsdfzC39JVPXdqLx48Jr/y3QCvwbQuwQg4cjkEUoe3s0WpWgI9hx2xuCjoWaWJqBTQr18L5DfCLFEzR6sAHWh05SqYLCFqKV8H19ZgrFeEBOxgifYaAgV7vel0IlMaxKKKhZhOIwu/IkRYG2CXh81Xt3WS3rSWm3KaZvc/isFbLEm+AGs2tw5N0qpIcnqug2LQHXmfQYVutr3LKI4Il5TE0IdHUX+hAOLmKBUR3dT8zt8UiUUU0UPYhVicGuJueWlQYD7eFCt297cU6OuRitXI8ZviKlDnYXggEI4TofZY/9VTqdqFSmaDTLzfhR1O6OsPZiBIM1CbJ9LQO6kyzcJturxWtXQTV7QHVMZ1ZvfCTqBtlDps0SRSNQ5arfKZtoYw3j4TRZ+3/zQQZzt9BVbqti8xoqHQAZCkRi/lh+jmBFWE6i2sy6GrJT/qYg8TZ95zRV9PcqgXrBEzZ/NyNGIQl9Mb9OwKu7hDLWDOhR9wqUAKazXZRnW4yieKDr0oMuTsusJRmrbwmx3OOKgrHxKZeqrjDseDK2sRYysBFFUAPjeJjX9xCv4vWR59hjzpb1nWNE4Z1l7vU/i4+ELapEK6AZ9Vy9hBBYmaU6HeBmOHPQlbKrC+FcnHS5Sp3fbYPkwiHlWVmpGqlXDkvyazOK7sjvD/8b3D4ebIMSyk62xc1+5v4LwYKLDjyjulDOJLE3dytnLlizm3kg12qzOa87xtzDlYQIUANfhkwOSEG0UFI8RNO1EU69xDKyTEnyi0QycqMl8CI+Pgntn53AwsbU6jnBMA0y798yB0CJ1Kmiw8p4BktNa8acO9bX52StTjGWPtHuzKYbkl9E2hORBpO1y2OnUn7dnAOSf2B182N5yNjrmhR6sGgLXnIAYKxgTW+7HLlOFmWsg2+j63tnPlCO1m8tAgAbQz7ax9QKqKmV08TuvFxmS13NdCEyt50kuLX2Ni8ZGnt2xWVdJF7/GVs1YsH0U93az/k4fsKYUxTwVpbpg1jgkD10otToGMnE6owRbzEXOmgcThuhZmUuzHnY2PZRYVzhRZ2R1TNZvC6noVX6ouG3nmIYF0gjw5V32QfeqqqqWIdLFOrCIB6/r4RaCTvYK7+6vkyze14fYkBgSDvNZWcQV6Tj9QUj3CWAjGv2dbIHdM//LTHETZXjUV3imEK4gaUBIANroCFZZqvQavENVo1w0LDxvgNRw3iIfOM9bcfJ6MJwZGNDRRWpYMVQ01szbfGmw23VVWl+CHExcT3gtFEayJ9mOkNszb/t/Zsi7GdrK3j0kusjh6oM1plsGhTXYFl4ITHHdGPElsi9kTUOkV9YxgOjMKJ6JxIy2b3a7KxTy4mPqAMA6njrvHUxRcXbzY/rckh6sCXKksyuQX22JlYoJ6S42c0x+HIT8A7FsGDoFCO4ga94Ahfx21dhLRX2BwN+afapbv+JTnT/L4cJltKxSpEd4dNZOSb/J7/cswMhkL0j6JYCF6YPlmXcdsz8K8/3ETqVfQS655j4OmwX72F8TNK7VGjBG8XpX8QcuNWEK7PAriUnCQB1hj/Mx/zaEvAELtqMQ4MaTzg09AKTQiOBPh3s37r1nW+3GuHHnauRalsdmw5Lhf/9WP9AWHWvZeFwuqsichHBKemJ0UuRBrwEJ5xrabWQuaooHtRrcHtjJfRIwCcYot8GczdeaAuBqqU4GtSBpSk1WSo8+Qn8xGl5y9JAx5bi2KmyWyrXe9IAx7vMheDrH221XSk/6SL7RDmj6gSgDgJdJ6jgFiGmhswvZFPDh+NJ31fVzBn4DgMzKEo2PqIRtH88tLHFvBULuMsKjLIuF0wkEi7Lc39BqYDA1Pvlp22jYlDxvGDv/OlkSelmS06Y25kiz8whW96t2wpjCyl2OreeRmkL10DT37+vQ+34jWqOzoFLsLqgMwo9Fd4jXb1hDh86hLFU+LlrYuuLYADfr7uQPGuqVet2jqC5jXzcWRyirZcN29OslhSVhsXx84ZOAbUclH4Adgz/D9jWYAiupppw4ZHHtTBxmpPIUTQGFiDLS6Pw9NJI4UJbfO4maPXyzWS2ukBJBwFeKXp7tcFN2LoLRr0tZIm40czgAAAcbPvpofmsUv0/p9dUUuNQdro3Kl2eNfn+ffaVNVvvwyDOrGvVk1Oas85gGouOHf6fIvJRFhHTWpK48AFu7sdbBFPayg/078+npafs4jBJHohTnmw0MuCECtVGlu/hU22QgRPt9DztD6XgeBQ8KM0hZ4bahsLgsjfyrXVb0GNE5KADlkDBOwVKRKFJrijn/MuwX1FY/H1BGCsRpoEQpSXPli9EDdNX6N56mpGIvtWdkBOicONL65PlsRx48MZ/4lcc1jWYDAAJWvQSNgcH6o6fzGYlkIBYFmulBQMdXpxIB31/bCQPOHre9i/BFJ/UJn/hvE4lAE8CeSFymMEB+P97+JpXoIbUpWrWk30aMyf2Ezy4acRbgw6xUuervBQdZE0jgjeIrOV+A4vZjAnuqZnXYsccw03FDzmiwRMLh5ARHdHrh8jPHoaTW32a4Jz3Bs/Eza1+MY02CPUop4sRFm+jCSU9nxj8hiVHEB+pioHXGkuy/Gg0EAMBoTZVN79G4AvEauZw7tUFXSWBrlVtgqzzRaJEJ+slWFQOCIeYiAqBjGUqT3RYRsk+9KEQ0OEQtRTZ80+enDqV3zhzSd0Q/oq2yV0eNfzeOyCJji9mMvM/YNIcE50HF/cl3LXnqfUcbLsaplvZagZXUoMdhossUiWkyoj7n3BRAoVqvEqJAWtYkhOly58xb3N1J6TLdSFgzABLxFRW4zm7aRJJu925pL6tt9ydQjv6UP3YdiXm9ysXTc4TP4Kx1lnjZoe/XazP2p03HjnaNVRz9jNEWUV1O5VwxL4iIJ+Q0lS/jSYr/r+eWd18iZxlmLvIMCEXOAZzRmkR1k71mrfqkZ2bH/R5cZDtVT/Mgv5PAZx1YuhsbjLg84dQTZfaFPk77ae7RcvQClxNJllXKWhmZ3YobNYl4A/Ww1R3BDO0ACs+4YR6gHJS2hgpu4DKhB/YbwT8gI953TYcsEhnoEzGxAHY2yYwTujd2NPQyMZwMqP4ilGaIQWC1mgtELU+fALSHQ/zMfzQOsNLv2pu3UCcqBZ0hmxMDS625RBvGa5WPIVa8V+LAVuYyezlN/aRtgreM9IG/rVL1yQJMTNf6USXkadynZKbAvLHe3+DOOvVRaMMKLpOCS5CiAh7za1+SVpFpoTWmmMo4N5W4MxEi3iqmey4ujiAGUkt25aI2J2unqKtdn4G1uiKdf95KVSXYm4kJvvrgZSErvhKqADElfFW9ljrHQZxzGhY8nK3Iic89DlihMC4kvbtVwYCqM45F6OU9Q8DC9mV8sCUsuwJGwKe2tFO2vl9qhJGznxWExMmD37TV2Z+pq3kL3by9PSiYePmExSgAW7oUitrsPXTJA02Xo88x0SAAtPe3Odm0gaR/xGJm/X1Gb9LNFj/ooOkvzTkWnASksiC994Ah3lHtCSyxjF8a/f/TXrhtyPq+3TgAAHwl3riZk6j3xlAd4ZIdx74WB+pejEF3xFClpzeOOOgq1xtS/rBhXyn5/jjtygKQ8EILTU1mwfLeo+dCEh4ChFNxYjFcrAY0u1VKKI4Hzl7AZj2JHCDMyozNiuSprbnHTTcJcL6OOZyBAJa3CzJgI4jydNK7tb0cflSmxRoL5kP6yquoGJPTunAwLQVPdvDZFJbS7xfThcLSiEAQuU2vXGn2rEJGGYfpDGKOapadnsdr1vmk9trpIuQ2gfurgSAaLV4dgwuDwumCeiI51/Eq4f+JLe+7Nt4Q317e+PcJCl7PMHV9thCXjo4etqfY9lbgMbUt9k+DcQxRb0Y1Oa/w/3X7L3YNmaPUPcbg4396A6Ce0CQ/kFXW6MwHjoM/BSCyuUMkAfsWEp/6VLNAaPgTWBZ7gLPI6kH9BSO0GWVnSvxtJuH70E5BqXlXYBQxyI8WZ+Ct76HelY/91X9eH41kxAxKgrMdPdFqb+ZoTZbOJUeZCqptdzisf+72azhrmKABn19NzrdwWIvIo9VIymWpzIKXCmGpP9RZpE6a8+BSl98vLrOEd83Vr+6qmX27hhHpNUm2MNGKlij7/3pCS3XQpjsLzW9lIAXxXJiUGW14AwcPD4TQLFKiefb7jIREqYSfb0Jbed0+oESJBOC/4u+xJ9XR5ssGYPhz0nhcRdqYbavgfmgEdrtqxABb6zi1HS6LPIO5lVSeQmmabm7eMPIT3z+WPQcdWYI8cRPd107c/Z74R8N80itycUG/16Mb2/00HctiPYxf0Rev4qybT5uucpNoCHpXY/vC6BEHdirRbKIcAb3EfjK/YMUH6mWOrQT/T2IsokYETIB3Sh0aZGgtEcAVeYG/ycz/MHyq6dWaboJcka6X/fmZ+gXk4OzuyhPkTN3SVMH4wAShBewfpH8JcqLDb5V7Y+5DtjmuPSRMtgyqd0ZjO+CyLBM4xkEbXxXqq6S/QFAXWNkK0EIhBKDk5kKoAZwO3efMBCP3LNEqqTtOF+YKL4XEUcm7GHgIKE3BdO+y3B2ggrqpGA6zyB0ARcnv9kJ0qLgCjbuurPXwbXM/4PNkfJROMJ3YFeD0KHvchC4XdsjRC9yHlnuvndAOH5odzq++d3GFW3qRVKU/gqydHElU9NlCxpFsTd9Hjgq0DVsXgDPs9gaXvIJyiOuAotDcG99tfiUdpCDZpHa76yOStHFRiK7bQ9mnfjYJCevMyeFNCEhPkCX+j2wQKbrijlETDdraMtcNR9ltTIrFfGotokF58w2oxf1mTY58nDBSjh32XD2mvQzZoIFkiGEoXWVyZhxqpBpXGAMnCdyeISJDbuzaXJ4ATIFhjHDK/D95sHT/v3UMxqQXa57gdrnYIl+h3JswGTYHceF5TZ+8XUyIjPlwPfyaBbJ8R1v6yLgqGCczLi1NLaXPwfiiXHiUTkGfitRxvCSl5P7lkC5pkbqGMABq63IJiymyVTQ9JczS6g5rdGVsvMiyeIJv6tlC4VEKwOyPBHzMyDsogLUjCfDdM2mMqpLKp6mVQB5hfOKmNfOVRCh6Ol8lkpZ93IbH01PWIMol1awCHs8lOIiHKsR+oTtXmJAFHoRieeoxX+paRGdeLf06E1pkUvSy21PFEPEEvOORo4VTGUKeWKrinrQBZhkrwVeAqC7ON5urg7o61Tjzak4k9LReIvRP8XGJUhu9OnkG9sRLlQiv3AAb/043ao3nrx/UufEqxvSYAaYT34EcUEGrH54AVbTX1tAlIEz0QzeIueb5h6PD0Tmm/6IbugRe2rN+6DDSeFlDsq1hXFL0KUEGNocEEZwMh6of0Oo1fGYPU9oU6l5ZicdPAh2eUZITITGt/uZKyHOPHniWCe6WVhlBe2WbqXZA5kYOCQABuabCeZi25vBqpW984CEACbIBRCT8m6oizsNrj+UwaKeRh3TOeYZj6fe/11Evp2MWhuKx9rIRaMYAICbfObP/AMWa1shM3JOMjNAXeuwc/kkDpH1l1jjYXu8mZ4wjt07YO9/hdv3ci5f5FgDZ2iORxViEJ+67ju5w0LMCLost3tgwmGGcJ86HUI6fuPgMNhiYUuvwSBandbtH9o2ViRjXpy3rACcAMPP3wlWoEKF1U1tXfWavIXsoOwaaOKRHrcOwdjwijGCpudHNjXupJSkT9ld00dIoGNteADW7p+kh3ecT4FBBhNMdh7mWQRxSm38hMAaLFUCtgT3pOLpD+i1/tWLDD/awF+1S7JaHIVcXFaBpic/ZNvjltADvLSIj5nSpVr+C1AQ/IOOUNo6Ow5iWbeEWH6f5JCgs9ydzljvt9Qhnkz7Dj8L0/6eJ8lz7Aaruv0pW1Knb8DImb+tzZ6xHpPAC6L1KUEkbAilHsHJ/B29bMPKMXunSDszLYAAWI82EFkZ7MPW8CEv567qLBbNag98f4Nqp1Be1Z512QSRleuZEC76BuUYrHijfXtjutvFtv6qtXVSTayonYPFi5iDIDOxm0ondQpJXFWokvZ7oZ94HIiQQfcGv4lYo0vI9OCV56I1cvt9QGiGOU1EWnZi8YZobD2N51EArgQhZEh5L4OVGTalvhgi5vHm3xhrFqXBniIsQw186PFH2XeXScGU1G1qSAAAIz9kMqAyWhoSNODbicndNkEtjDiZZReoqoAE1iZBL1VxghLhj/LUCevnAOJNeLZT/faclJa3RJMdaBupYVGusn0Br0aCQEB52xtpfmtrjS+Gz/2gz9/kbCy+tPEbiWvJ18b3KLHJoBE8OKQ1hJaH38vokaR42cEOb7Uo1Q5hzDgdITIh5Laln97AEE+4DfwHoRqNkTVT9uySFBYdsqGtTfNTNVmofJs8lzsiXrN9JgKzWouVVEVenGxUNg00t53ZwHrFqXbp9c85lREeMXAZMREdnf57AAAAz57ZrQUvByKhvbFPxzjGzSqVdRvW/x7xQYmZ6M/nw8GbOLAsrefRU+wYrJUw5fOsFRP4tLH3UmyRgAzISuj5QH4wY6cHiv/ukdx3SD5WihlYu5/hEfVVvWFW0z9XExmo0Nhrvdh0sudUoiDEwy2h0bW6Z8A3U0RPrN+X8oiiLdVZA4xpvFTuzjfZtQW7Sp9eHtIuH+K6gPBAapgnSrAdxdIcAXd908LBhLadw1nDDqxglQ1NZ6PGQDE7YX4fLoi2A8/VIdebEkcx1X0IlKzWKGh+PIKAKcXxABWjUeHy4hJnrKVwKmatOKeqV6itFjddH1ymiIGcn052Df+hOAAABLrOwg4QbsBRInIs6T+OWIkv1iI7b+ngae4ZBHYG0UegwbSA62HMTyMKm7QP0RfTdVOEWo35pAcm/mw78U+KGpLn8d8IsxgHbhmtN0LbtTOLb5CTnVwljhIrPhJ1hoEfvvQdOHqlnIlAquxe+blo79+t8ZX6VqTrsli4WgQn0v+ppcHpWenbUCmnW6//nQnJ/EaTJgw0SZwLW8dKOdFaMHCw4Ffk9a433rAocctYRxenU8DOqzsrvr8SAsYaY7XoBtS1V+ehg1avKhKcOvJAkmEidn+LJyyBPC/CTt6P7xkSz336tFkfCImbQAzMTZJcOwSm+D48iXieMpP4D3/UIK511bye/LiZy24gvlbViE1pRxDYGg/PZG6tFjdB12UChf9Hm3cMUwFwt3Uiongv6Y2tbOIl7GYP9Pq3Blx4WuLcfRTDyoX7RDKa8LffIzm1vm3VfayA8JDEI6eooM9Tptly4Owtllih4d4uIC5ck30LkPfiRIN9wAAAAA4dyKcAAAAAAAAAAAAAAAAAAAAAAAAAAAEVYSUYQAAAASUkqAAgAAAAAAAAAAAAAAFhNUCAOAwAAPD94cGFja2V0IGJlZ2luPSLvu78iIGlkPSJXNU0wTXBDZWhpSHpyZVN6TlRjemtjOWQiPz4gPHg6eG1wbWV0YSB4bWxuczp4PSJhZG9iZTpuczptZXRhLyIgeDp4bXB0az0iQWRvYmUgWE1QIENvcmUgNS42LWMxNDUgNzkuMTYzNDk5LCAyMDE4LzA4LzEzLTE2OjQwOjIyICAgICAgICAiPiA8cmRmOlJERiB4bWxuczpyZGY9Imh0dHA6Ly93d3cudzMub3JnLzE5OTkvMDIvMjItcmRmLXN5bnRheC1ucyMiPiA8cmRmOkRlc2NyaXB0aW9uIHJkZjphYm91dD0iIiB4bWxuczp4bXA9Imh0dHA6Ly9ucy5hZG9iZS5jb20veGFwLzEuMC8iIHhtbG5zOnhtcE1NPSJodHRwOi8vbnMuYWRvYmUuY29tL3hhcC8xLjAvbW0vIiB4bWxuczpzdFJlZj0iaHR0cDovL25zLmFkb2JlLmNvbS94YXAvMS4wL3NUeXBlL1Jlc291cmNlUmVmIyIgeG1wOkNyZWF0b3JUb29sPSJBZG9iZSBQaG90b3Nob3AgQ0MgMjAxOSBXaW5kb3dzIiB4bXBNTTpJbnN0YW5jZUlEPSJ4bXAuaWlkOkI3M0UxRUMyMTFDNzExRURCOEU2QTcwRkI4OTBFQTIxIiB4bXBNTTpEb2N1bWVudElEPSJ4bXAuZGlkOkI3M0UxRUMzMTFDNzExRURCOEU2QTcwRkI4OTBFQTIxIj4gPHhtcE1NOkRlcml2ZWRGcm9tIHN0UmVmOmluc3RhbmNlSUQ9InhtcC5paWQ6QjczRTFFQzAxMUM3MTFFREI4RTZBNzBGQjg5MEVBMjEiIHN0UmVmOmRvY3VtZW50SUQ9InhtcC5kaWQ6QjczRTFFQzExMUM3MTFFREI4RTZBNzBGQjg5MEVBMjEiLz4gPC9yZGY6RGVzY3JpcHRpb24+IDwvcmRmOlJERj4gPC94OnhtcG1ldGE+IDw/eHBhY2tldCBlbmQ9InIiPz4=;" parent="12" vertex="1">
                    <mxGeometry x="80" y="40" width="19.5" height="14.61" as="geometry"/>
                </mxCell>
                <mxCell id="14" value="&lt;span style=&quot;font-weight: 400;&quot;&gt;Dim_date&lt;/span&gt;" style="swimlane;whiteSpace=wrap;html=1;" parent="1" vertex="1">
                    <mxGeometry x="110" y="310" width="200" height="200" as="geometry"/>
                </mxCell>
                <mxCell id="15" value="&lt;b&gt;&lt;u&gt;date_id&lt;/u&gt;&lt;/b&gt;&lt;br&gt;&lt;br&gt;&lt;div style=&quot;&quot;&gt;date&lt;/div&gt;&lt;div style=&quot;&quot;&gt;&lt;br&gt;&lt;/div&gt;&lt;div style=&quot;&quot;&gt;month&lt;/div&gt;&lt;div style=&quot;&quot;&gt;&lt;br&gt;&lt;/div&gt;&lt;div style=&quot;&quot;&gt;year&lt;/div&gt;&lt;div style=&quot;&quot;&gt;&lt;br&gt;&lt;/div&gt;&lt;div style=&quot;&quot;&gt;month_name&lt;/div&gt;&lt;div style=&quot;&quot;&gt;&lt;br&gt;&lt;/div&gt;&lt;div style=&quot;&quot;&gt;&lt;br&gt;&lt;/div&gt;" style="text;html=1;align=left;verticalAlign=middle;resizable=0;points=[];autosize=1;strokeColor=none;fillColor=none;" parent="14" vertex="1">
                    <mxGeometry x="10" y="30" width="90" height="170" as="geometry"/>
                </mxCell>
                <mxCell id="21" value="" style="shape=image;verticalLabelPosition=bottom;labelBackgroundColor=default;verticalAlign=top;aspect=fixed;imageAspect=0;image=data:image/webp,UklGRoJEAABXRUJQVlA4WAoAAAAMAAAAUQMAfAIAVlA4IDZBAADQKgGdASpSA30CPm02mEkkIqKhIZNYyIANiWdu/D65inHv8kmUrhN4f/u/4/wk5R8V/oP75+5/9998Ksv5T8mfLrapfC9B/9/7hvm3/s/+l7Hv1z/2f7z8AH6i+on/hfsd77v3D/WT/JfAP9k/+3/nPeU/vv7Pe6/+/f4L/mf3r/b/Ib/Qf7X6Z3sZf3//lewf+x3/n9df9x/ha/sf+//cn4H/2i/+XZu9Lf1x/ufpP+M/qX+V/v37geg/4l86/g/7Z/iv+R/gvcDzX9b+o78j+7v7b+9egX+7/xPiT+P/sv+r/vP7w/6v5AvyD+b/5b+wfuL7i3znZB6h/lv/R/mfYF9lfpf/D/yP5cell9N+pH2P/7HuAfz3/Aek3/S8CL8D/z/YB/o/+c9VD+u/+v+x/0npr/Rv85/9v9T8BX89/vn/i9dv//++D0e/3W//4G9SUi4DVFABP4azjAvfRljxqSwa4uh7qkqkgfDiwKLi5YtGqNifN3PW39xdEGg92Sm4x5XSUWUOb3AkXd1d8ExxHi3qyn2DxhXYv8YCycfjJ6WDpP4DUefZ2rINDuyEQ4PAqPRcsUdpzAMLRLXVxNxJT0e14mkBtQvBbjF5CHR+LcA4GtrOMzvkCM/iqo5eJSyY9gvgzB82394c1gWvyAqou2ZCKwLJ367v1eHDwfmDEeOxLRoC/abdRLwpN4aWxYjvaPaXCJLhrBSPyymTM+C4yE7DkbG12pjqWIlgMqvqbTYxXN9EsrwpwhlgTzdQ+wFQ5DZq0aoO99AxNW/Awqou2ZCKwLX5AVUXbMhFYFr8gKqLtmQmii7ZkIrAtfkBVRdsyEVgWvyAqou2ZCKwN6mQisC1+QFVF2zIRWBa/ICqi7ZkIrAtfltRALX5AVUXbMhFYFr8gKqLtmQisC1+QFWNAwqou2ZCKwLX5AVUXbMhFYFr8gKqLtmRTLsyEVgWvyAqou2ZCKwLX5AVUXbMhFYFseBzWBa/ICixVfsukmjISJjddqRLe92CQBpiQ2rjNXN7EAqou2ZCKwLX5AVUXbQRaXZkIq+d32nJ//4a6e7cG0j+5AfCQDAg7SJdMzVhuJVoIBVRdsyEVgWvyAqpb1BAKqK2nEmbViXlluICl2ZB58yZxxOVc22Ew0o5rAtfkBVRdsyEVgb1MhFYEPBaiqViEM5cJ1+QFVF0I3PlGvgZsWMKqLtmQisC1+QFVGTfiLBfCr5Y+5jDlyo6GqLtmQisCFYIG1ykG5koIBVRdsyEVgWvyAsYlkQy4RcqeEjrq5Q+jh9+K+n8JqKVd/eHNYFr8QqK5w9S9DZjIRWBa/ICqi7ZkJoorGWuD2mZyRogLt+u1uEWYs2mhYRJSAqou2ZB55sNIlGsiIjmsC1+QFVF2zITRRWMQtPFVKZYQKoa5HCw/Wj8BfxRdsyEVgWvlYBBE8OBmh/Pd9MMtT/RwPIXeyJ02zET1W3IrQKDH9D7AVYjr5wXm2jHk7LLg2ubQJ5KM2dxtrmN8VwEIPnZ2EF/XrtPrRLxA3Ffx/Sdy+jpciCC1v0WkFd6fmNzCkz3SlgjPqY5HP9M+Le8ILtmQisC1+PgLPDL6TMzCu1hL2d7uq5qf4rAtfkBVRdvuAVUXbMhFYFr8RImTItW3nfmuV32KIQV26wYMqnhp1XrX5AVUXbMhF/wf3hzWBa/ICp8J4bu/D3f5XtCpoWoGZs4b+RqA9fMSvZ4tNDb9p8sQSynzWV0no1V53Mu73xRYOwocjbvGl2ZFMuzIRWBa/ICqfpcKici7k290sn2aDq5tg5DDJLjWk4o77enbpQfchJ/dRvdFaZ8IAs6w5N/s7nXlC/1KaZCFk+oek0+yBMzkl91rrTOcqpydsl0LbmnbX0p/ekWcTOD8564ELYPFKWQoMdQzNwBLfAk+dJbVIxnHoB2pcRPfpk5AOe9Xc+6q4PHesuzIRV9Ir0sqYaW88G1TWXQfQmjbRnmV329QbDf8MV76FCL7cKtRx9Vl+Itafxg8n113VCufIMhEHKHkk3l9orTjYW+LhzE6NJz1SxTM1eG3przoBPhMs0jmGDP4uYYNHWEbhzEzKRvo00auTKCXYY8JEo34NO/0rzyZQf3hzV8tvnLWlYFGcp7weojOJbk1LkUBB19lIH54DeiEgIpXxgCT16Qh1DrtIYnSs+I8wQiWPIjdvfb/4FsAu27l5CKwLX4jBeaMouSIe9AOp2uAU14e44cDeI0MBFK4uzCvXKwGSKISue0il63OokqCd91jhy1nzJu645oAP1GYWBjxtBwlrf4EUdyeTNMhMaKubWHJYaZ5bweoSJfKSV9pi+nKsvHfmFVF2zIRWBjktJYOGAx0BG/a/IBUjy8LI0JK7T5yjouci6XERXaw9KuB6hVg3/caX1C4U1NBh77T8j/Y2w3TFnR/MSrFBYxEc9a/ICqi7ZkIlSR8W9iL6zIRWBa/Hwz6zkm+fh0gDsPr9kWNL7nMmQ5T8BYEUjhXSCuu2T9f+fGm6g8JDtsZgktfkBVRdsw0W1AHy8jFBAKqLtmQisK6EVgWQ7pxU9sS//VKodjgvxe+wOLDp3Ey1BAKqLtmQiU+zsCEhYFr8gKqLtmRTLsyESzEbJ6TgdaqQnWwXDY/gWvyAqou02hr0OsopaKwLX5AVUXbMimXZkIrAtbcre/mNnfX88PZkIrAtfMcSaHWTvF7cwqou2ZCKwLX5bUQC1+QFU/yRCLq64Mh3CsO7b8gKqLoiXRV3PrG7izWBa/ICqi7ZkJoou2ZCKwLWwl9jRcuUEh7zoMIRWBa1/vV1Z33ICMjj+8OawLX5AVUXb7gFVF2zIRV9asTG/SezuVem7/F+QCT5y9w5f+0zzdiEaXZkIrAtfkBVReRiAVUXbMhFYEUiKzI00k++81vHprcHPO9lodYS7vocz8ztN1YqHn8VXNJSAqou2ZCKwLX5CcsC1+QFVF2zIRWH2hAKqLtmQisC1+QFVGTfkBVRdsyEVgWv8p61+QFVF2zIRWBa/ICxiWvyAqou2ZCKwN6mQisC1+QFVF2zIRWBcn4c1gWvyAqou2ZoEuzIRWBa/ICqi7ZkIrZ7+8OawLX5AVUXkYgFVF2zIRWBa/ICqi7fcAqou2ZCKwLX5CcsC1+QFVF2zIRWBa/IEBgWvyAqou2ZCKwroRWBa/ICqi7ZkIrAtf5T1r8gKqLtmQisK6EVgWvyAQAAD+4HKq3h6rTiIjeWvfKhdbnv9BhS4NmZFP3yokVLh/IcOBuZ9o73aPIGa6o/rAkdssBjCtjpUNsOlOSQeZk+THf/MZDPeJLYtI7U0yItaiiNhP4532Ph95y3VUjKSoD8Qj5Y7a6XCCq4+EoGhc+UxcVr+iyjIEj6DUfugVVs8hjIrO47SttJcJI4KqYqZ3uqSeFWlw6eliVgkprRuAN64v+A1Vuf7iEyRt8n4b4xiAM1Bd6aPUdknrPRrgOD1FW436p03RNfcCplbBKsqxPXorR/LakHmQbxe0RTOgcy/JoHajL7azq64jVRdKCJKI7/z/KdIL9r8l1XDhu4neTuLJHLpVkgF4T7a4x5PO80ml4SBfYJQB9iUI4XpJWVcx9EDpbzwZEXRoYdLiONmxS+SCQ9WIQvvZgtqfeKSlTyuJipaPGLj+fDHfM4V0b1SdxikfbxlPG6IjdfkMbOJOLaenMTbXokOHeEDcVHXcKOKYAxHsKWSraiyPUbvlUIGNHhGpq/Af1wV2qcgfCLPdgd2GrqOC6MuRV1UZ1TsZnlOtWhujVyE8jdllEdiak5yzIlyA24d9AZwMHhFYDyLAkPClKkBahjF57oNpHGb/kkKG2tFsIQ5r6ePZhs+cIzi5Mb833O9CLDxq+8qfhhEekt9LN1fw7lgPFyU/7d8JKdjqgRgCMc3kcmoxxDMotvwY7i7Q5XIdx6xMp0vAb8u07N/X2ZpvCUl9oLfFifLOByCWYpXUSYVFwI+Eds+a6O8FCdy+eADol856DlHm62nuIXvGMZx85wvsTN9ua9MHVQT147Njo0ev0/p+g8NqluOkwj81gSzlSTPpwqNZmgWoPx0RKRhjwL/E1C7TfzsqAh1xZAN9MxyoB+jihk8lkxj9v81S1NM1h+3lZjkPPWLSxP5RXJQmLs4sCKyv92c+NafxMveWIlBFp+r1/P8hfvfFHWSgWHpi66PGmclF6fbcQJmRR30XfpJinRn32tIHteeNtMF9TSmx0znMHqG50ZN/VRqX7jvJvzognRMUZGkm3UqR+ePNgKqVxTgZF/hDuNuLyxsDMuT+PuKfgGvN/8PZpq/qz1LeJHN8CtEHXH89xfeLuzedA5RVyHTNdGBsoRx2JxJO69W5wpxTi31JDwY+t9dm7YqOSVQuE8CoI7Og0T8qh8wxmDtaGQhGdRTn24rXxZJRzxhvkEglbDKXt7SU5Wc+BPPZIbunR/KgZP5eGOoDH8DBUeaZbbX0fmMfTeXPLt09RvSnLSDUNNyAQwTldKAB3HeRcsKzC5cf5NPJxdqzKgah7EVgmOuD6CCzk37Y4fxhn91nD+oQimPBtoD/DSuxvdVvGdAv8yOt1oRJ6yEsXKrEeqLitnUEezwAcIcnzliOoe4xTEo1Sfrgyalzd3eeRvhE4hrB3GuZET6MLPwj/ZhOu0gPGoyPROlxXasXj8gGEYHP+Qh11iNtXsqfpRqJuQ1gCucKqoaQWEc6YJz+YNjd6Rq1iIXzSzW6XjfvgtTLwcw7/oi96Vke/vnOAqw2qeIFLCyM0Ks10W07N/X2ZpvB3eTQOqLkcvAHAPe3jwVANMX9HWmxaSwZe8DtrHH5KgC/kZtrj37Y0lJK0KeJDBMtidBUAlJrRS4f73XN6QD8f6xHQMmbm4XGNBo1ndscBgWey1AuIsg0vJ+Dh95VuRe9pdiHYJC/gYXy5AskXTDKOMiFAMKYSSR5xd+uQ+mDBfqTSOZZ/F+lG3DZk8Y/VznhNM5qNJjiah5Ypc1gQGJSrxnE3BBVz/CE+uDdBtu14FpCjTv0PEnne0sEDm/firWYVKzFhHPoSZ0VgxFKeqjPzTqnNpdxqyvAWTGoW2C8YUfCzj78QAqomPu5z1+mKCgg5uUUlvBCDjje26RDaPQhZbICQohhY6OY62j5AO0JDAo1fkNnDEgWqd5vZPnV+6CYt/6CFgq9y5XyubgAzOdCsW1vfTpzdRg5noyhY6zP/nEnI8KTrmYwxaiO2q3SanlLG3eR6kjv9riMFeSG5py6UJogpVkWjUNsWOfouwYybRycya9XphQvPHuywhLPOyd810uqOPrW4Wuk4lzeEuAZeCekGfR5EvTeKogmd6yLE/PCVAtvRKXAPMpOwU56vepPWrzlmf2SaQwQoZXJIOFr/ylW0kis3jz/r5quOcPWjVJoQ7tgrkfrvQFpv8UHGMJm3AkGzJqRtvHnErT8mFBx3ZmFkOIISZrwoEFhwDv79fmW5T3zfseSxadAD9kFBu2eC8edV2k31nCuzANbhf9CnJh0XDefDoL8/h/nNMzpTRfKNG793++OViHZlFcMfppqtpdXfWi/uBzqOLHmHsTV3avH5TT1fIrBJmE9wcE6TX9g5MVyDRvaIr47kE75ytQmZMsbX8BK0Mcj5TGrFKh+uVSbF6WxNXMyUI7OZcldJoIdVz2CxAYS1c197WykL09t/7V21Zr8YtzsWtWRd83InmHjUC/dLdcPwyVt0liMStCXKDMlLhrGah4E8F1YoA1yj0GBpXBRxgZW0DjLDkH2qe0lYQGivbvsn4rJ7uCwa/eaU0yA+2o/+2ifQ7TJM7akji7Ve/yJU+SDiapSAqFAmWX7GPXSo2vModE3SknNLf3W/93sQeAzZ5vLqfa+pPffZqu60aLfD23fMo5Tan6rUpKPTM/+iNLwJEEfZ25OFC9QJ4dmlrN5A8IFK0ImUm98xgvmWF0VpWI6GU45y62GuZFBzjadEZRnDkq8d2etlFyAwMS2dKMJn9o5jpGtSYA4T2AfsbQ7rlRrUj36K+mLSMf1h89e5KoC4CIm/IJAk2RIuVZ5n+NHXd1Zvmv9yTeZ/wH/m037GA66bUZ25UtYewNztgiPcy7sLb83feHDFKUe/K/TEfe3EplRNl2+WO7cpSABdc/5Lw4NJmQhyG+eKlIaiHUhQI+3EF00L+4xvUNPny3Avd5YwjDoiu6ZbECqV9IoEUBkpGvz1dt1WydJtv7tyZrn3+BVdNXNEmCRptJV+7VMvJsiz+O8uhhci/uCQGsYdDnx6aVZoszhdlMUh3VAJ82416GQ1br5wq8Hk3x2QMFbOnH9KVwx+UmXZFK1xN4qAmviU6cjPDcqHjBMyZnd4GSydHhPVu0gT26++Kyq3djgI6Nhi8DTc6ZhCJWsrMgTlp0npgIUPnpCxPntwrvPvQQEbxxjiOY2jzfW0y920Xwefli7nqrqfSMghqNC+c6jLjKRdw+pSB6pOYKrW+ss0VcFZ+Rfj76tXJgrKm2ug1U0Eni3wjnq2fN+whdNTbnJj0Lqi8GJOqcDY52mDRyVFxsdUPbPG1ZqEzfka7AXi9GiTZUIFE8SeSU+0B4teT/4Lgsamdkd8Ds2MmrBfPqAeT15PPZbyruidVvk2TT76nUsXFOrBSOP3h+k8Z6CKPtpX9Ed5fEMhwMWTWit/eV4fvV/yMXyP0NDKRXDwcwexlEDIHwWsIc8a9Bxul9SwdH4XZyd5Gm1o1dxeNXYr/iP5M5MjTJmXKPKogh9BKbjpnpcpWHUgzSfPLnwSghOkpc1ftVBOn/t+4JaCNXflUL1PCwbegsSgA9vIxXEp67L9NgTp6vPyI+MDpE0bpSqRVF8J/KdgypBZwHLzT4ranibAyer179TkC3FAVtiAoUuiGxs8sH56jaQc/LE1/gSrNTozIabrv+3CwOih3tW6ZqO/Zo8JBd/ju1LzIJbSFU3fRYA//6KhV8lfNv9F84vj0WJNABrEMRfk5O+uWIbAkFnp8vdAtJA1dirCJXRyiQBhlpMkWblg7PHEwHIuoTjdZ+3kUtd6nd4NH/LcepmwRV/9NR/gpayWV0YoELGs/zhJmemiHFxCeycQWJhyfksHuYcpWC93enj1Rcv8E10BdxUQDGRd7ClLd8YbAX583FmG2W3/cAXXmKihFYMv1LyCPt20HIyHjs2AB+0xs/AKoN5n/h1m+ZsUJfFrPQBM+1qBh1AnEaQ1cNdq8u8rnHMRWxX9ILrw8Mp07ZDOGvJq8DbKskBFHp8GicZS5xtM8nQAAP04AAAAAAAAAAAAAAAAAjY4wooa/EkkNBvg8gXQdQMibpttpdiC3+YXaOs/QoLMNuv2q2OXtmQXDSaxKdrqP4T6Xxbu0noI07+y8uIh03Qd8Xf0FlJWf2DvHGQhov8xb6gBMosPe/K9xZc7ccjNedr52qElQS6kdDjHhwMDvH/LjQqN0CBaHCSRa2KFug+1TOZwqnzQtcVRfS1ozrNcd5INhUcfvuoiUrr/jUr3Q5C8D3wP6r5OadtZZ+BYIgGc7onlE5+N08Xz+kXCFKEFeRS8TQ2TI5UriK98+XyIN1xRFj/wvV1GvJ1p5zsqpJ0nLDWwZKDPJTZNNpU5ye5ePF5jmxHL2ihjsXPUGudOPFEoLWAITkA3REbwDdfXPiXWXvR5F3c6FkGjR7ERPLzQ/bYADH17lLxfj1DQv+3bJY0+7/Vsbggb7zqt93Al2y7pUKsEwQGIsWAJLxNMF/yZ1VX26bQ8LhJfqLdHYMNW8JRggnpLX7YfAtGOZA5A+0SFApJ0uNdt45pjIY+gPV139BlvzhLdUXFzwVtaNghCPn8us1lMZX13XWd9nkkbJavI/X3x0bBQbZxUlqdBZmoxUvkIaSSBcssTw1hgi3e5jyjmJAHvaobfjXmPmhcE0x9bV4H/xqfVn9NQgFQq9zoFXjqD/2JcbXzlNRly+R69MnQAlzbZd/8xPaMLFhAHMqYSXkbHHF+qPk8DNokiUR+OpozNRgj+LLFYIAtJtUZefcKD1NRAj5ARvqLJ5czXkDGhma/hwtpk07BO/ne0m2LoegMjaASXAAH5R/Yxe7g4IIUpT9n//jFPWQ5/ZzW+DIWV4TiaIK2XNdEfv5ukP2Ti4aa9v9/ogGsQd+mbOgPCnM7gDsgqo0KdG7Yj+vwnVlVH0SgPIqVg6LgfcIcwMMXl1iBAtTUNt1dhFjAeGTpxTo/lR5Dgs05zAYQ5VN/FGl0wjAAaGO2PV0OpOgzfVG/SXgb7GdyluTF7GKWZ7J7I1xcR49sFBOqIbnR5Gd6kGgyrqCAWvH6fsb5E2AABK3O0gowIAXvUlfOVT7491u7s5Doa99uyk2Z160UV0f5674SVWWABB2ld9r/qqT9x0hl5p9AM0cuVxgQIMjAnZ+i1kB9YKDpbVA2bWYEo4l64NErn5ahSfg1Rfn++W2OcTZkJGOnVjOuK93t3No7ulTDxbY3g1K1JvLgXgTLo1iqJxG8iczURzvIAAeAkIqxzzUZ6PJfo2Qs/hX1bKoELdqhdj1u6JwJxYFJ2LdqO+WdanJPOrZlFb9ILcDhPlB7FZ1pOlFYnTD2wdMrpaEI496JfOCPZuwZdmTbgQBO9G4j4MfjdR4sRbyli/pnK0I42/EQOpN+K/I3UwN7YcC8zpX0OrjSde7h3A8MLWtFM9U8eLlxat6qowqOSCpz60/UQSGCNk5UDAIcqkYNPHk2f1NQJqVS+rRx2V8MzmDalivaMDYJAAIJ4i/m7Ve+isx9CTfzUkYCmOvhfXfTwMNgY3/gQ+/2IwCnFEePIk+9sRFVVu0clwkveNFxfoGXqw5hgIUJEmfiFx8euXyzKAAR8NGrbkJYL2nN364BinTqcAcl+Q4ULF5Zg3/ttnQITVrZ0dN4JU+V3oGRUaUmYeNNd1rJTj+YBfRXY0N0QTZuKBmH6pWehDfyA3A8SKGHog/39V/05WLt/VCO0j7oHgACmcu2IxZblChdtvGLD6g72JUEF6X9ffPtPBVvrIL9VEOoYvuV/lqsa0CxguUd0tpcZFXiKiqo7P/MUd8J8LgazX8xOfi9jG00joYD60FapOAYAZMe5XAdr3BPAacvmSYXt3G9rGFAEOe6iCpvrZIGJA7kglUkmm0QoW7r1oKloCAWYd4r2x8haM0UA3BG0hwFfy7e/zA3qz2CVm9IzwIVMCxgUD9beNCxwK79e0F6UK7hTs3uWoyPd5Q+b0HXJS0sXYyPZyOn5kwpURxUEVAJLgAs1nugdLrsM1RiuBLXsvqXhHppixantvYoLs5A0wk+w7jK0HhA87hWTdtYeWeoJSJs99O/wHDunGm7f+MswXAmyhQ50WIxLFSA94nILjIorLWFnHHW0+VpadEQfq2YCYGojkR6alfEHHNCMqvTJbESXWR16FJ49xngSs1MTb0GnSLqA1CKCQOLBKy5gH+Rv/WUCaa8aF7mnoQQwcWR7/Hq08kffnsdS0Cwbo2NGPHvMi4t7++lfiJXorlu8xnhDq+sBUT320nG45RW+qgcDsa/5me9/kkbmUWlt7T6njA2gALagiElva4/05FNnkNrIKsQUO4N1h+6aIRjo1DlOrKE7anjQfvIN7HxkgevhAMKOyplxTN55eoPal2voB3pIKgBG40rmQln8NaEv7dIADqKrKT4smeon1ULFJzaUaWy1u/bWOKokx8porrIdvDnZ2byZIxBjV7ghFK7XT0FNt2gqhdgukNSaDZ7NGcd8s8Oyup75uiaUDmLGrFcfmfNyLbmbNllgMFZdfztO4o0flzC4ZareRLaO6r1ozGbi69LztLEF9amUmYmXUDMrLEVBf6BpNQq4sIDd+0vDDHhy6bmXVMtaiiuES8KimKKyIM37enMMir0U65oxClbVZbp0OMUMq+nAciy0RiotKTTNsRAj1BOLG3/dOh5IEQaqc+e6lu33L3lib8Auj/69/4QVkYmncs5SwX8xNIAsEcwcwy+QgjqF2L/D/Y9nX2ujz3FFHIIQ7fVRn6y/YZCe3s9azNzb2L89xIVUNtZKkmnKC1VEi0nNpAuVxSz49mJ++C7ZtpidEvn/+K2kUxnd6UFq4tuRHHhlgnwob3YeRh//Bq3EjzmieTKFmDrFLjhUkQ7Hp6MoCSti8Mc5jVV0a6/xcQWRpQH7u4Xr/fF5grRDLtk2OlB8EAgB7SUENjxf/n6h08PtOt8GV7XSmHbZNPlHuFSA22Bbf1rEOd3ZOXxxTcBUaThP2ikA6uM1Y41wx3vpNPwZyqj0R4KxrC7PL1M2fgU2rj1exuRddArNef6u1FlsVbpUOWxYkaAlNf7CYTBQFficFqAtbXOyiAIIY0HeSQJZ8b7zzmQe8Gmlx8MD4PUeqGGJ517zXM6DogrBzyrOK7283YX/taYc5+dV7CGIUPGPlpuQKJEIks+zlMVWi1A5OXYvhhFnaljN0fjuy8ZEmGGT9D4yEfD17/uZqPJSuCiByF24t4/HE2QkFdvmkH+PgAwIUprp66KE3VCJ9pDHrHUAXdh83NHMnpUWoaf0zYx8g0TslBhTPykNqVzWTq8klH6bcFVU2lywwx016tUJP9q9opMnNRpw4I2sqowmU7Y0NEN7EoetDaHKGg7qKfcsKEoszqjtFBKgZ71ROYB0yzM/ZBpmT3mlNLSjKyhDRTOOR4DJajkE2nEUKk/7H+v8FSjNL1hN/8bUu1Kgaj5KcRLcuAfu3sdOysO22cReG9tGHTmF90coIhTX3RyRyhYK1BYr2c6QXe4NC04YHN83wrf23vTzkg429EIZouvdVM8i/SAOIliTHtZ8QfBlEii3RPX1F0VFFcN+0ISU5rpWVYM3tjTs4PgK85jktoW1Mf3m6F0Sx8uiukTWH+RyfG00U12lQ3goq3MagjdHsZwxM7Ksu8qERSBcmqOeDHHuF2mMwoCbiWOxBYfuSCH5ucOfWWpZT+UCq/b52yBfpYu924MDtchIJr7y+pv878cCtDjqpELqziow3GSSOtIrx8pL9nEHQZm33t49Zr5pMw+hMvzlZGrIOT6Unqn31lh9eRjZdB7yqYQUIjQ90zT2DelapWH10VXFPAs8v+UJodt6VKiYApaDmHumJkRuaq+yuSiT9BrNwrXgMhh/CrmTrERZpXglNFbDuGUXSbUf9p2OBGFqXWXIvFvbHoDC4lpFGog55euXPdHZnAqorJAClLF7qoqt0H6HfsgC7PcdKb0GkJTyPtxheMol1gQQ3GA6oBaGVDg2+iIKuqmY+YTz3u44tlYD1/y322k1WmgohGlqH+I1w9xudEF2bBaaASu5e8gCGO9lVlBMpliE8xTcUmVYumjfVOcd7oT6yezdf1J0xZLlGQAUhYa29VALL8ILj6RgIqI4YNXao35xXIR8/mpfKRm8ymx7NNqgqGcwDSZZ1JWrxF30V+3iasrDZzZw4evIwWR5pYjJ06l3M5SDyxUF27+ck67/TAJOK1977w9sShOzxd/CD4AMN5IYLuiBu9BSa30o8si6BZzfNxOOOQg5MbZahpBy6pe+wjdEFlfLCM9PxXrGLJ3hx3mkrUmIdZtdzyyAC53/zs9SrtQi66JwAABL5R5Ui10DhI94A1RsT3ZbvS0c2trHgFYrmejbNacVCsqm0Qu8Epz4W7pGxQKChXqr/mnOLbE11n89TzDNcKsO6Dp4sru5zPQLR5TXuB6vYQAEbbVOmuGivdbbk9JH3oaPpSwbZaOR/LtMi52DskNmA7zXKEFWutA+H2ajhu6gQLwnNYYdXmvkVx1KE8VfmGkaMZlS5s3cLtX0QGGoGzzomSAZTegds6JsUFAUTGjVWfyinh8XzJWbVYrWMrqMz01oMCJa2AbAn24jdYAp7oaPkRxDCXsQ7atg0mNkA/caWaSoqiau7t+TIt0/ouhea8L6PBTfRzGotPMreGAhShxPfrzd5YgxQAANif9iBx/ttCPxvX7T4yjWrbG85/4UD8sHcHmYC5BWSD5V+GJux10MckKIHXhse/p9bBX2tYs40JP5NH7ctZLnxdmq3nR7succgtKRCxGNUSEg+yIg60i2Hum4Qhhdl+6HQbnr8QtmGdlTdMmVgova6wAB+SRYf8NoPL/mUkZRaZD5TG9G1O1/B84k+FJHEE9iVnz8JFZj49JgYjvnRxhKPA2pIJ9jpVHTZ0nuZ3m1HsvPMitfWT6IBg8z9EiAcqo+OBGzmpbzYB18HzcID45HjK6gsFk5f9YcR2OxZTukv+Sv987rRHEfVterwtffRjEBfOBDqPGSrNa2oD8b7Kp2fP5+K6afu7BkDTqpMFMkM++Qlcf42/Zvq5IV8HCiyqTDzYNk2sGGHCx9/IIIrwpfozpjWe/98X9Uwkg59IHS9b2ifmu3OseGtwD8GyELjEpEveghXEf4sVwnS4psjmozsBYSGlWTWVvyUlsSv9wNH4MHb0G79w1rhOis4hzFoLOBJ4P2vAK8eYl41HFL4igkxe5YobZMv3n9WcFHagBtrLlyPgsczCoMze+nZJNy8+mRVyeUigGZW1aontAAqrNcjOIsfVHAxU7w9FDLatrrCSuQ88cqp5oHmUK2LUPruAsnImX/KNY89mySHv4tVMdq2xQibwFLcBmUuxSxSwKEs4jAD2dn3sOPXMf56Jz1QR6DFWjfkIUjPkSRQK+QMPL6WSYAVq1+5/QO9aq6PDaVuR4bNPPzblmDy3okrLrqLTOPeXfBG/kHsPYFCN1jA4+H9E4oUe1YeuL/aOSI2jRR7ZCRezNn9mDSL57WQv49u/uVLSWFHvakAUqAwoDf1ZYBfZAH8GjM4J74CcVWfWlHjW3bXQn1CkoYwlObcR4y0uklzTTbqddpYXkJp22UD9WVjg5i6GYnnvrv2am4xO+NvV+zqtFh1JoGT0Icjxtwes5qUoHheTtOE3O67BUk90wFQ7Key0/U6F5mDqdMB8v/hHkod7HCU7xRwu266LjMgSNOGEWD0sRrA4gTzFjXtaebVYRTUQB2VxiawvJFTEljl6oG87JW74yEm6CrqN+G3mO93ubZcQJbNkYlJE5mYYdh0ByJz06agYtLIHmFx7/0uhywU+bm5KO+1RNhZqnAQ1Np6eK4Lzlz3qGx/DVZtLN019GZ1gGpCrxZJ2CUPiOrGkqR2r5huLnTM3fHlY+3pvPbuhOBvkAL6ffBJzxCI2WciKXGFbC8j6EWegPkhdJ1Ggv43jDH+3o7p08MGYexCXLUxhQzrkcMMnJmxKh4MicFwB3fuRLjlwcXQEA4FK/kNFgcCr9C7XVzG1Q7bJJ+LMWI5WAeDbaucNSkDcnYomU9L1n2Gk/eqF5Gz2ophUipJIT9HRyw3t6uQqfI6Db3JQR7zRvoGIizxFbQWk0mcNQ9ntdw6MbdC6r7rqZl2w5J4wSSzK0y/wgB5uYRmnxJgMMaqFNlIvQBC/iApYR5mn2zLwoXj05AfvHTtc2UaXbltSgUfnrtfAGo4T5iy6Qp8jp3/ruN+7vddbMgBYnQWGZdKk4EFiSTIMbGsx7EUs0vn8IU/14+AmJMndpevAGgjXyGvyMTFH7BbJKhcTd1A7ggclxYcUw0kdZWzmD23nIgSQEYTjvav3F65nlFif7G9XY29zDdjfuqBZs4jk2hXuKvs6mU3fqSLgmWSRuUPnHJ80qT4GgvH84xiTS7N3P/oDSHTB5OFWx9a8uHrI3cTbEcAD3ayT6mhyM5/LScC0tNG9jisZdGvRVO66wRcbYLYI6f1LdTFNkZxoSNXMevEVXVxJTZDHWLJnWsN9qrpXvPDaLpZyhpjkAsMVMPEjYoYNgzwF3tIUyTpG6YMRbXkmGFpu1HIQcFDvMoMY9oFdI80A/fXcWFt6yq2QoPaOmP0QvEhu3NxJTjDvYtFDjM/QHG98FYzRDoGqDuHpLHQ8OEflvDlX/Hd5ez/kzRfqTWcf+hIKXZCVgdJQWRIvH7tFYNM0XJY0RpWv4OyGa9jTlSdNIUSmBqyg83ts6u9gyoZKGbOCNCS8LVfPiePJLde8ikpc5SI9EUY5zifoT2CRMC5PVCzHXRSUFOhYz0zAys3cttDTMCEaGRo8N9jBBIRoF6kx5bP35HWda9hJGAYtUA2IZdlNvWPMWjE46Ys/k/O0ae8QLiV1Cvju57wW0eGAYvmOw2Lv83CVQLGYOA+RCjjI/Wf823wt4RQTvua0iyjUEWJw6ThMyhh9AIAE2AcjhzKICn0b802PchSGyNIBoDT0/JypkN2SLWtDaN4+e5AIBXpc8SLFQ1iq44dSU22l1LKxvq8nXMs8HiYfVh31VVsi1sOxl8nTRI0lhe7auQ37jwKLAP4YvMMuDxTAvTrsYq4GyP4rzMO/7ciDxND3JnOWdcOSRXYKpdAxQT/SjEqPtSyc3KtwFdUYlf61JtfY1iM5VAP8xGGhe9WXwllLmgJY4NfFtkL3YwXzXt6cFTAZDKN2/tUDl3MKlftXHHht4qpRLuuHg7v/WsFD/5CtqA/Grs+VUKMLk4PPU0XrbCw44f4KXa6tdw6ldIdUQ+Rto50qBsm9qECVCeic8eT+WR0wZtCSpJ0vUYEoJ2Enwx5YZbkhpyONZ1HPcTKJ8UOKFVsspX4jruyJnvdHbDczwyl/KruPunaON6lfk/4wB04qdnHcj4npgl2KUn9SYXm7NKIqH6KUwiiM41AZgq475XYL9uuFngr+HCKNWXHutj7VxpNvV+miITNAc16pcnK5fy4ZZLh6kXpPQ1aayDpJDlzXZwfCdiXSBMO6fIFOgESZoZiJPAZKob2LxUge4oC9VwnmpKmX2LixA2o3m8I5/sDu3T8kLLwUYGAJTeE6PQW5IhUof5QQZ27G62XcshDtVNJv/bSW2+xotbLriELuauuiZHRd8l3GGfRA3ILw9lBYbJnC78/AHczSXyw3N8mzVietWX9ggbOjN38qQV3Bw+T4I+iyGbYmT8u/b4ShY91I/g4ZUAkZElxn35p99Ui4Nh8F2nkC1JHH6h1TQdBhEsdfzC39JVPXdqLx48Jr/y3QCvwbQuwQg4cjkEUoe3s0WpWgI9hx2xuCjoWaWJqBTQr18L5DfCLFEzR6sAHWh05SqYLCFqKV8H19ZgrFeEBOxgifYaAgV7vel0IlMaxKKKhZhOIwu/IkRYG2CXh81Xt3WS3rSWm3KaZvc/isFbLEm+AGs2tw5N0qpIcnqug2LQHXmfQYVutr3LKI4Il5TE0IdHUX+hAOLmKBUR3dT8zt8UiUUU0UPYhVicGuJueWlQYD7eFCt297cU6OuRitXI8ZviKlDnYXggEI4TofZY/9VTqdqFSmaDTLzfhR1O6OsPZiBIM1CbJ9LQO6kyzcJturxWtXQTV7QHVMZ1ZvfCTqBtlDps0SRSNQ5arfKZtoYw3j4TRZ+3/zQQZzt9BVbqti8xoqHQAZCkRi/lh+jmBFWE6i2sy6GrJT/qYg8TZ95zRV9PcqgXrBEzZ/NyNGIQl9Mb9OwKu7hDLWDOhR9wqUAKazXZRnW4yieKDr0oMuTsusJRmrbwmx3OOKgrHxKZeqrjDseDK2sRYysBFFUAPjeJjX9xCv4vWR59hjzpb1nWNE4Z1l7vU/i4+ELapEK6AZ9Vy9hBBYmaU6HeBmOHPQlbKrC+FcnHS5Sp3fbYPkwiHlWVmpGqlXDkvyazOK7sjvD/8b3D4ebIMSyk62xc1+5v4LwYKLDjyjulDOJLE3dytnLlizm3kg12qzOa87xtzDlYQIUANfhkwOSEG0UFI8RNO1EU69xDKyTEnyi0QycqMl8CI+Pgntn53AwsbU6jnBMA0y798yB0CJ1Kmiw8p4BktNa8acO9bX52StTjGWPtHuzKYbkl9E2hORBpO1y2OnUn7dnAOSf2B182N5yNjrmhR6sGgLXnIAYKxgTW+7HLlOFmWsg2+j63tnPlCO1m8tAgAbQz7ax9QKqKmV08TuvFxmS13NdCEyt50kuLX2Ni8ZGnt2xWVdJF7/GVs1YsH0U93az/k4fsKYUxTwVpbpg1jgkD10otToGMnE6owRbzEXOmgcThuhZmUuzHnY2PZRYVzhRZ2R1TNZvC6noVX6ouG3nmIYF0gjw5V32QfeqqqqWIdLFOrCIB6/r4RaCTvYK7+6vkyze14fYkBgSDvNZWcQV6Tj9QUj3CWAjGv2dbIHdM//LTHETZXjUV3imEK4gaUBIANroCFZZqvQavENVo1w0LDxvgNRw3iIfOM9bcfJ6MJwZGNDRRWpYMVQ01szbfGmw23VVWl+CHExcT3gtFEayJ9mOkNszb/t/Zsi7GdrK3j0kusjh6oM1plsGhTXYFl4ITHHdGPElsi9kTUOkV9YxgOjMKJ6JxIy2b3a7KxTy4mPqAMA6njrvHUxRcXbzY/rckh6sCXKksyuQX22JlYoJ6S42c0x+HIT8A7FsGDoFCO4ga94Ahfx21dhLRX2BwN+afapbv+JTnT/L4cJltKxSpEd4dNZOSb/J7/cswMhkL0j6JYCF6YPlmXcdsz8K8/3ETqVfQS655j4OmwX72F8TNK7VGjBG8XpX8QcuNWEK7PAriUnCQB1hj/Mx/zaEvAELtqMQ4MaTzg09AKTQiOBPh3s37r1nW+3GuHHnauRalsdmw5Lhf/9WP9AWHWvZeFwuqsichHBKemJ0UuRBrwEJ5xrabWQuaooHtRrcHtjJfRIwCcYot8GczdeaAuBqqU4GtSBpSk1WSo8+Qn8xGl5y9JAx5bi2KmyWyrXe9IAx7vMheDrH221XSk/6SL7RDmj6gSgDgJdJ6jgFiGmhswvZFPDh+NJ31fVzBn4DgMzKEo2PqIRtH88tLHFvBULuMsKjLIuF0wkEi7Lc39BqYDA1Pvlp22jYlDxvGDv/OlkSelmS06Y25kiz8whW96t2wpjCyl2OreeRmkL10DT37+vQ+34jWqOzoFLsLqgMwo9Fd4jXb1hDh86hLFU+LlrYuuLYADfr7uQPGuqVet2jqC5jXzcWRyirZcN29OslhSVhsXx84ZOAbUclH4Adgz/D9jWYAiupppw4ZHHtTBxmpPIUTQGFiDLS6Pw9NJI4UJbfO4maPXyzWS2ukBJBwFeKXp7tcFN2LoLRr0tZIm40czgAAAcbPvpofmsUv0/p9dUUuNQdro3Kl2eNfn+ffaVNVvvwyDOrGvVk1Oas85gGouOHf6fIvJRFhHTWpK48AFu7sdbBFPayg/078+npafs4jBJHohTnmw0MuCECtVGlu/hU22QgRPt9DztD6XgeBQ8KM0hZ4bahsLgsjfyrXVb0GNE5KADlkDBOwVKRKFJrijn/MuwX1FY/H1BGCsRpoEQpSXPli9EDdNX6N56mpGIvtWdkBOicONL65PlsRx48MZ/4lcc1jWYDAAJWvQSNgcH6o6fzGYlkIBYFmulBQMdXpxIB31/bCQPOHre9i/BFJ/UJn/hvE4lAE8CeSFymMEB+P97+JpXoIbUpWrWk30aMyf2Ezy4acRbgw6xUuervBQdZE0jgjeIrOV+A4vZjAnuqZnXYsccw03FDzmiwRMLh5ARHdHrh8jPHoaTW32a4Jz3Bs/Eza1+MY02CPUop4sRFm+jCSU9nxj8hiVHEB+pioHXGkuy/Gg0EAMBoTZVN79G4AvEauZw7tUFXSWBrlVtgqzzRaJEJ+slWFQOCIeYiAqBjGUqT3RYRsk+9KEQ0OEQtRTZ80+enDqV3zhzSd0Q/oq2yV0eNfzeOyCJji9mMvM/YNIcE50HF/cl3LXnqfUcbLsaplvZagZXUoMdhossUiWkyoj7n3BRAoVqvEqJAWtYkhOly58xb3N1J6TLdSFgzABLxFRW4zm7aRJJu925pL6tt9ydQjv6UP3YdiXm9ysXTc4TP4Kx1lnjZoe/XazP2p03HjnaNVRz9jNEWUV1O5VwxL4iIJ+Q0lS/jSYr/r+eWd18iZxlmLvIMCEXOAZzRmkR1k71mrfqkZ2bH/R5cZDtVT/Mgv5PAZx1YuhsbjLg84dQTZfaFPk77ae7RcvQClxNJllXKWhmZ3YobNYl4A/Ww1R3BDO0ACs+4YR6gHJS2hgpu4DKhB/YbwT8gI953TYcsEhnoEzGxAHY2yYwTujd2NPQyMZwMqP4ilGaIQWC1mgtELU+fALSHQ/zMfzQOsNLv2pu3UCcqBZ0hmxMDS625RBvGa5WPIVa8V+LAVuYyezlN/aRtgreM9IG/rVL1yQJMTNf6USXkadynZKbAvLHe3+DOOvVRaMMKLpOCS5CiAh7za1+SVpFpoTWmmMo4N5W4MxEi3iqmey4ujiAGUkt25aI2J2unqKtdn4G1uiKdf95KVSXYm4kJvvrgZSErvhKqADElfFW9ljrHQZxzGhY8nK3Iic89DlihMC4kvbtVwYCqM45F6OU9Q8DC9mV8sCUsuwJGwKe2tFO2vl9qhJGznxWExMmD37TV2Z+pq3kL3by9PSiYePmExSgAW7oUitrsPXTJA02Xo88x0SAAtPe3Odm0gaR/xGJm/X1Gb9LNFj/ooOkvzTkWnASksiC994Ah3lHtCSyxjF8a/f/TXrhtyPq+3TgAAHwl3riZk6j3xlAd4ZIdx74WB+pejEF3xFClpzeOOOgq1xtS/rBhXyn5/jjtygKQ8EILTU1mwfLeo+dCEh4ChFNxYjFcrAY0u1VKKI4Hzl7AZj2JHCDMyozNiuSprbnHTTcJcL6OOZyBAJa3CzJgI4jydNK7tb0cflSmxRoL5kP6yquoGJPTunAwLQVPdvDZFJbS7xfThcLSiEAQuU2vXGn2rEJGGYfpDGKOapadnsdr1vmk9trpIuQ2gfurgSAaLV4dgwuDwumCeiI51/Eq4f+JLe+7Nt4Q317e+PcJCl7PMHV9thCXjo4etqfY9lbgMbUt9k+DcQxRb0Y1Oa/w/3X7L3YNmaPUPcbg4396A6Ce0CQ/kFXW6MwHjoM/BSCyuUMkAfsWEp/6VLNAaPgTWBZ7gLPI6kH9BSO0GWVnSvxtJuH70E5BqXlXYBQxyI8WZ+Ct76HelY/91X9eH41kxAxKgrMdPdFqb+ZoTZbOJUeZCqptdzisf+72azhrmKABn19NzrdwWIvIo9VIymWpzIKXCmGpP9RZpE6a8+BSl98vLrOEd83Vr+6qmX27hhHpNUm2MNGKlij7/3pCS3XQpjsLzW9lIAXxXJiUGW14AwcPD4TQLFKiefb7jIREqYSfb0Jbed0+oESJBOC/4u+xJ9XR5ssGYPhz0nhcRdqYbavgfmgEdrtqxABb6zi1HS6LPIO5lVSeQmmabm7eMPIT3z+WPQcdWYI8cRPd107c/Z74R8N80itycUG/16Mb2/00HctiPYxf0Rev4qybT5uucpNoCHpXY/vC6BEHdirRbKIcAb3EfjK/YMUH6mWOrQT/T2IsokYETIB3Sh0aZGgtEcAVeYG/ycz/MHyq6dWaboJcka6X/fmZ+gXk4OzuyhPkTN3SVMH4wAShBewfpH8JcqLDb5V7Y+5DtjmuPSRMtgyqd0ZjO+CyLBM4xkEbXxXqq6S/QFAXWNkK0EIhBKDk5kKoAZwO3efMBCP3LNEqqTtOF+YKL4XEUcm7GHgIKE3BdO+y3B2ggrqpGA6zyB0ARcnv9kJ0qLgCjbuurPXwbXM/4PNkfJROMJ3YFeD0KHvchC4XdsjRC9yHlnuvndAOH5odzq++d3GFW3qRVKU/gqydHElU9NlCxpFsTd9Hjgq0DVsXgDPs9gaXvIJyiOuAotDcG99tfiUdpCDZpHa76yOStHFRiK7bQ9mnfjYJCevMyeFNCEhPkCX+j2wQKbrijlETDdraMtcNR9ltTIrFfGotokF58w2oxf1mTY58nDBSjh32XD2mvQzZoIFkiGEoXWVyZhxqpBpXGAMnCdyeISJDbuzaXJ4ATIFhjHDK/D95sHT/v3UMxqQXa57gdrnYIl+h3JswGTYHceF5TZ+8XUyIjPlwPfyaBbJ8R1v6yLgqGCczLi1NLaXPwfiiXHiUTkGfitRxvCSl5P7lkC5pkbqGMABq63IJiymyVTQ9JczS6g5rdGVsvMiyeIJv6tlC4VEKwOyPBHzMyDsogLUjCfDdM2mMqpLKp6mVQB5hfOKmNfOVRCh6Ol8lkpZ93IbH01PWIMol1awCHs8lOIiHKsR+oTtXmJAFHoRieeoxX+paRGdeLf06E1pkUvSy21PFEPEEvOORo4VTGUKeWKrinrQBZhkrwVeAqC7ON5urg7o61Tjzak4k9LReIvRP8XGJUhu9OnkG9sRLlQiv3AAb/043ao3nrx/UufEqxvSYAaYT34EcUEGrH54AVbTX1tAlIEz0QzeIueb5h6PD0Tmm/6IbugRe2rN+6DDSeFlDsq1hXFL0KUEGNocEEZwMh6of0Oo1fGYPU9oU6l5ZicdPAh2eUZITITGt/uZKyHOPHniWCe6WVhlBe2WbqXZA5kYOCQABuabCeZi25vBqpW984CEACbIBRCT8m6oizsNrj+UwaKeRh3TOeYZj6fe/11Evp2MWhuKx9rIRaMYAICbfObP/AMWa1shM3JOMjNAXeuwc/kkDpH1l1jjYXu8mZ4wjt07YO9/hdv3ci5f5FgDZ2iORxViEJ+67ju5w0LMCLost3tgwmGGcJ86HUI6fuPgMNhiYUuvwSBandbtH9o2ViRjXpy3rACcAMPP3wlWoEKF1U1tXfWavIXsoOwaaOKRHrcOwdjwijGCpudHNjXupJSkT9ld00dIoGNteADW7p+kh3ecT4FBBhNMdh7mWQRxSm38hMAaLFUCtgT3pOLpD+i1/tWLDD/awF+1S7JaHIVcXFaBpic/ZNvjltADvLSIj5nSpVr+C1AQ/IOOUNo6Ow5iWbeEWH6f5JCgs9ydzljvt9Qhnkz7Dj8L0/6eJ8lz7Aaruv0pW1Knb8DImb+tzZ6xHpPAC6L1KUEkbAilHsHJ/B29bMPKMXunSDszLYAAWI82EFkZ7MPW8CEv567qLBbNag98f4Nqp1Be1Z512QSRleuZEC76BuUYrHijfXtjutvFtv6qtXVSTayonYPFi5iDIDOxm0ondQpJXFWokvZ7oZ94HIiQQfcGv4lYo0vI9OCV56I1cvt9QGiGOU1EWnZi8YZobD2N51EArgQhZEh5L4OVGTalvhgi5vHm3xhrFqXBniIsQw186PFH2XeXScGU1G1qSAAAIz9kMqAyWhoSNODbicndNkEtjDiZZReoqoAE1iZBL1VxghLhj/LUCevnAOJNeLZT/faclJa3RJMdaBupYVGusn0Br0aCQEB52xtpfmtrjS+Gz/2gz9/kbCy+tPEbiWvJ18b3KLHJoBE8OKQ1hJaH38vokaR42cEOb7Uo1Q5hzDgdITIh5Laln97AEE+4DfwHoRqNkTVT9uySFBYdsqGtTfNTNVmofJs8lzsiXrN9JgKzWouVVEVenGxUNg00t53ZwHrFqXbp9c85lREeMXAZMREdnf57AAAAz57ZrQUvByKhvbFPxzjGzSqVdRvW/x7xQYmZ6M/nw8GbOLAsrefRU+wYrJUw5fOsFRP4tLH3UmyRgAzISuj5QH4wY6cHiv/ukdx3SD5WihlYu5/hEfVVvWFW0z9XExmo0Nhrvdh0sudUoiDEwy2h0bW6Z8A3U0RPrN+X8oiiLdVZA4xpvFTuzjfZtQW7Sp9eHtIuH+K6gPBAapgnSrAdxdIcAXd908LBhLadw1nDDqxglQ1NZ6PGQDE7YX4fLoi2A8/VIdebEkcx1X0IlKzWKGh+PIKAKcXxABWjUeHy4hJnrKVwKmatOKeqV6itFjddH1ymiIGcn052Df+hOAAABLrOwg4QbsBRInIs6T+OWIkv1iI7b+ngae4ZBHYG0UegwbSA62HMTyMKm7QP0RfTdVOEWo35pAcm/mw78U+KGpLn8d8IsxgHbhmtN0LbtTOLb5CTnVwljhIrPhJ1hoEfvvQdOHqlnIlAquxe+blo79+t8ZX6VqTrsli4WgQn0v+ppcHpWenbUCmnW6//nQnJ/EaTJgw0SZwLW8dKOdFaMHCw4Ffk9a433rAocctYRxenU8DOqzsrvr8SAsYaY7XoBtS1V+ehg1avKhKcOvJAkmEidn+LJyyBPC/CTt6P7xkSz336tFkfCImbQAzMTZJcOwSm+D48iXieMpP4D3/UIK511bye/LiZy24gvlbViE1pRxDYGg/PZG6tFjdB12UChf9Hm3cMUwFwt3Uiongv6Y2tbOIl7GYP9Pq3Blx4WuLcfRTDyoX7RDKa8LffIzm1vm3VfayA8JDEI6eooM9Tptly4Owtllih4d4uIC5ck30LkPfiRIN9wAAAAA4dyKcAAAAAAAAAAAAAAAAAAAAAAAAAAAEVYSUYQAAAASUkqAAgAAAAAAAAAAAAAAFhNUCAOAwAAPD94cGFja2V0IGJlZ2luPSLvu78iIGlkPSJXNU0wTXBDZWhpSHpyZVN6TlRjemtjOWQiPz4gPHg6eG1wbWV0YSB4bWxuczp4PSJhZG9iZTpuczptZXRhLyIgeDp4bXB0az0iQWRvYmUgWE1QIENvcmUgNS42LWMxNDUgNzkuMTYzNDk5LCAyMDE4LzA4LzEzLTE2OjQwOjIyICAgICAgICAiPiA8cmRmOlJERiB4bWxuczpyZGY9Imh0dHA6Ly93d3cudzMub3JnLzE5OTkvMDIvMjItcmRmLXN5bnRheC1ucyMiPiA8cmRmOkRlc2NyaXB0aW9uIHJkZjphYm91dD0iIiB4bWxuczp4bXA9Imh0dHA6Ly9ucy5hZG9iZS5jb20veGFwLzEuMC8iIHhtbG5zOnhtcE1NPSJodHRwOi8vbnMuYWRvYmUuY29tL3hhcC8xLjAvbW0vIiB4bWxuczpzdFJlZj0iaHR0cDovL25zLmFkb2JlLmNvbS94YXAvMS4wL3NUeXBlL1Jlc291cmNlUmVmIyIgeG1wOkNyZWF0b3JUb29sPSJBZG9iZSBQaG90b3Nob3AgQ0MgMjAxOSBXaW5kb3dzIiB4bXBNTTpJbnN0YW5jZUlEPSJ4bXAuaWlkOkI3M0UxRUMyMTFDNzExRURCOEU2QTcwRkI4OTBFQTIxIiB4bXBNTTpEb2N1bWVudElEPSJ4bXAuZGlkOkI3M0UxRUMzMTFDNzExRURCOEU2QTcwRkI4OTBFQTIxIj4gPHhtcE1NOkRlcml2ZWRGcm9tIHN0UmVmOmluc3RhbmNlSUQ9InhtcC5paWQ6QjczRTFFQzAxMUM3MTFFREI4RTZBNzBGQjg5MEVBMjEiIHN0UmVmOmRvY3VtZW50SUQ9InhtcC5kaWQ6QjczRTFFQzExMUM3MTFFREI4RTZBNzBGQjg5MEVBMjEiLz4gPC9yZGY6RGVzY3JpcHRpb24+IDwvcmRmOlJERj4gPC94OnhtcG1ldGE+IDw/eHBhY2tldCBlbmQ9InIiPz4=;" parent="14" vertex="1">
                    <mxGeometry x="60.25" y="35" width="19.5" height="14.61" as="geometry"/>
                </mxCell>
                <mxCell id="16" value="&lt;span style=&quot;font-weight: 400;&quot;&gt;Dim_time&lt;/span&gt;" style="swimlane;whiteSpace=wrap;html=1;" parent="1" vertex="1">
                    <mxGeometry x="680" y="290" width="200" height="200" as="geometry"/>
                </mxCell>
                <mxCell id="17" value="&lt;b&gt;&lt;u&gt;time_id&lt;/u&gt;&lt;/b&gt;&lt;br&gt;&lt;br&gt;&lt;div style=&quot;&quot;&gt;Hours&lt;/div&gt;&lt;div style=&quot;&quot;&gt;&lt;br&gt;&lt;/div&gt;&lt;div style=&quot;&quot;&gt;minutes&lt;/div&gt;&lt;div style=&quot;&quot;&gt;&lt;br&gt;&lt;/div&gt;&lt;div style=&quot;&quot;&gt;seconds&lt;/div&gt;&lt;div style=&quot;&quot;&gt;&lt;br&gt;&lt;/div&gt;&lt;div style=&quot;&quot;&gt;&lt;br&gt;&lt;/div&gt;" style="text;html=1;align=left;verticalAlign=middle;resizable=0;points=[];autosize=1;strokeColor=none;fillColor=none;" parent="16" vertex="1">
                    <mxGeometry x="10" y="45" width="70" height="140" as="geometry"/>
                </mxCell>
                <mxCell id="20" value="" style="shape=image;verticalLabelPosition=bottom;labelBackgroundColor=default;verticalAlign=top;aspect=fixed;imageAspect=0;image=data:image/webp,UklGRoJEAABXRUJQVlA4WAoAAAAMAAAAUQMAfAIAVlA4IDZBAADQKgGdASpSA30CPm02mEkkIqKhIZNYyIANiWdu/D65inHv8kmUrhN4f/u/4/wk5R8V/oP75+5/9998Ksv5T8mfLrapfC9B/9/7hvm3/s/+l7Hv1z/2f7z8AH6i+on/hfsd77v3D/WT/JfAP9k/+3/nPeU/vv7Pe6/+/f4L/mf3r/b/Ib/Qf7X6Z3sZf3//lewf+x3/n9df9x/ha/sf+//cn4H/2i/+XZu9Lf1x/ufpP+M/qX+V/v37geg/4l86/g/7Z/iv+R/gvcDzX9b+o78j+7v7b+9egX+7/xPiT+P/sv+r/vP7w/6v5AvyD+b/5b+wfuL7i3znZB6h/lv/R/mfYF9lfpf/D/yP5cell9N+pH2P/7HuAfz3/Aek3/S8CL8D/z/YB/o/+c9VD+u/+v+x/0npr/Rv85/9v9T8BX89/vn/i9dv//++D0e/3W//4G9SUi4DVFABP4azjAvfRljxqSwa4uh7qkqkgfDiwKLi5YtGqNifN3PW39xdEGg92Sm4x5XSUWUOb3AkXd1d8ExxHi3qyn2DxhXYv8YCycfjJ6WDpP4DUefZ2rINDuyEQ4PAqPRcsUdpzAMLRLXVxNxJT0e14mkBtQvBbjF5CHR+LcA4GtrOMzvkCM/iqo5eJSyY9gvgzB82394c1gWvyAqou2ZCKwLJ367v1eHDwfmDEeOxLRoC/abdRLwpN4aWxYjvaPaXCJLhrBSPyymTM+C4yE7DkbG12pjqWIlgMqvqbTYxXN9EsrwpwhlgTzdQ+wFQ5DZq0aoO99AxNW/Awqou2ZCKwLX5AVUXbMhFYFr8gKqLtmQmii7ZkIrAtfkBVRdsyEVgWvyAqou2ZCKwN6mQisC1+QFVF2zIRWBa/ICqi7ZkIrAtfltRALX5AVUXbMhFYFr8gKqLtmQisC1+QFWNAwqou2ZCKwLX5AVUXbMhFYFr8gKqLtmRTLsyEVgWvyAqou2ZCKwLX5AVUXbMhFYFseBzWBa/ICixVfsukmjISJjddqRLe92CQBpiQ2rjNXN7EAqou2ZCKwLX5AVUXbQRaXZkIq+d32nJ//4a6e7cG0j+5AfCQDAg7SJdMzVhuJVoIBVRdsyEVgWvyAqpb1BAKqK2nEmbViXlluICl2ZB58yZxxOVc22Ew0o5rAtfkBVRdsyEVgb1MhFYEPBaiqViEM5cJ1+QFVF0I3PlGvgZsWMKqLtmQisC1+QFVGTfiLBfCr5Y+5jDlyo6GqLtmQisCFYIG1ykG5koIBVRdsyEVgWvyAsYlkQy4RcqeEjrq5Q+jh9+K+n8JqKVd/eHNYFr8QqK5w9S9DZjIRWBa/ICqi7ZkJoorGWuD2mZyRogLt+u1uEWYs2mhYRJSAqou2ZB55sNIlGsiIjmsC1+QFVF2zITRRWMQtPFVKZYQKoa5HCw/Wj8BfxRdsyEVgWvlYBBE8OBmh/Pd9MMtT/RwPIXeyJ02zET1W3IrQKDH9D7AVYjr5wXm2jHk7LLg2ubQJ5KM2dxtrmN8VwEIPnZ2EF/XrtPrRLxA3Ffx/Sdy+jpciCC1v0WkFd6fmNzCkz3SlgjPqY5HP9M+Le8ILtmQisC1+PgLPDL6TMzCu1hL2d7uq5qf4rAtfkBVRdvuAVUXbMhFYFr8RImTItW3nfmuV32KIQV26wYMqnhp1XrX5AVUXbMhF/wf3hzWBa/ICp8J4bu/D3f5XtCpoWoGZs4b+RqA9fMSvZ4tNDb9p8sQSynzWV0no1V53Mu73xRYOwocjbvGl2ZFMuzIRWBa/ICqfpcKici7k290sn2aDq5tg5DDJLjWk4o77enbpQfchJ/dRvdFaZ8IAs6w5N/s7nXlC/1KaZCFk+oek0+yBMzkl91rrTOcqpydsl0LbmnbX0p/ekWcTOD8564ELYPFKWQoMdQzNwBLfAk+dJbVIxnHoB2pcRPfpk5AOe9Xc+6q4PHesuzIRV9Ir0sqYaW88G1TWXQfQmjbRnmV329QbDf8MV76FCL7cKtRx9Vl+Itafxg8n113VCufIMhEHKHkk3l9orTjYW+LhzE6NJz1SxTM1eG3przoBPhMs0jmGDP4uYYNHWEbhzEzKRvo00auTKCXYY8JEo34NO/0rzyZQf3hzV8tvnLWlYFGcp7weojOJbk1LkUBB19lIH54DeiEgIpXxgCT16Qh1DrtIYnSs+I8wQiWPIjdvfb/4FsAu27l5CKwLX4jBeaMouSIe9AOp2uAU14e44cDeI0MBFK4uzCvXKwGSKISue0il63OokqCd91jhy1nzJu645oAP1GYWBjxtBwlrf4EUdyeTNMhMaKubWHJYaZ5bweoSJfKSV9pi+nKsvHfmFVF2zIRWBjktJYOGAx0BG/a/IBUjy8LI0JK7T5yjouci6XERXaw9KuB6hVg3/caX1C4U1NBh77T8j/Y2w3TFnR/MSrFBYxEc9a/ICqi7ZkIlSR8W9iL6zIRWBa/Hwz6zkm+fh0gDsPr9kWNL7nMmQ5T8BYEUjhXSCuu2T9f+fGm6g8JDtsZgktfkBVRdsw0W1AHy8jFBAKqLtmQisK6EVgWQ7pxU9sS//VKodjgvxe+wOLDp3Ey1BAKqLtmQiU+zsCEhYFr8gKqLtmRTLsyESzEbJ6TgdaqQnWwXDY/gWvyAqou02hr0OsopaKwLX5AVUXbMimXZkIrAtbcre/mNnfX88PZkIrAtfMcSaHWTvF7cwqou2ZCKwLX5bUQC1+QFU/yRCLq64Mh3CsO7b8gKqLoiXRV3PrG7izWBa/ICqi7ZkJoou2ZCKwLWwl9jRcuUEh7zoMIRWBa1/vV1Z33ICMjj+8OawLX5AVUXb7gFVF2zIRV9asTG/SezuVem7/F+QCT5y9w5f+0zzdiEaXZkIrAtfkBVReRiAVUXbMhFYEUiKzI00k++81vHprcHPO9lodYS7vocz8ztN1YqHn8VXNJSAqou2ZCKwLX5CcsC1+QFVF2zIRWH2hAKqLtmQisC1+QFVGTfkBVRdsyEVgWv8p61+QFVF2zIRWBa/ICxiWvyAqou2ZCKwN6mQisC1+QFVF2zIRWBcn4c1gWvyAqou2ZoEuzIRWBa/ICqi7ZkIrZ7+8OawLX5AVUXkYgFVF2zIRWBa/ICqi7fcAqou2ZCKwLX5CcsC1+QFVF2zIRWBa/IEBgWvyAqou2ZCKwroRWBa/ICqi7ZkIrAtf5T1r8gKqLtmQisK6EVgWvyAQAAD+4HKq3h6rTiIjeWvfKhdbnv9BhS4NmZFP3yokVLh/IcOBuZ9o73aPIGa6o/rAkdssBjCtjpUNsOlOSQeZk+THf/MZDPeJLYtI7U0yItaiiNhP4532Ph95y3VUjKSoD8Qj5Y7a6XCCq4+EoGhc+UxcVr+iyjIEj6DUfugVVs8hjIrO47SttJcJI4KqYqZ3uqSeFWlw6eliVgkprRuAN64v+A1Vuf7iEyRt8n4b4xiAM1Bd6aPUdknrPRrgOD1FW436p03RNfcCplbBKsqxPXorR/LakHmQbxe0RTOgcy/JoHajL7azq64jVRdKCJKI7/z/KdIL9r8l1XDhu4neTuLJHLpVkgF4T7a4x5PO80ml4SBfYJQB9iUI4XpJWVcx9EDpbzwZEXRoYdLiONmxS+SCQ9WIQvvZgtqfeKSlTyuJipaPGLj+fDHfM4V0b1SdxikfbxlPG6IjdfkMbOJOLaenMTbXokOHeEDcVHXcKOKYAxHsKWSraiyPUbvlUIGNHhGpq/Af1wV2qcgfCLPdgd2GrqOC6MuRV1UZ1TsZnlOtWhujVyE8jdllEdiak5yzIlyA24d9AZwMHhFYDyLAkPClKkBahjF57oNpHGb/kkKG2tFsIQ5r6ePZhs+cIzi5Mb833O9CLDxq+8qfhhEekt9LN1fw7lgPFyU/7d8JKdjqgRgCMc3kcmoxxDMotvwY7i7Q5XIdx6xMp0vAb8u07N/X2ZpvCUl9oLfFifLOByCWYpXUSYVFwI+Eds+a6O8FCdy+eADol856DlHm62nuIXvGMZx85wvsTN9ua9MHVQT147Njo0ev0/p+g8NqluOkwj81gSzlSTPpwqNZmgWoPx0RKRhjwL/E1C7TfzsqAh1xZAN9MxyoB+jihk8lkxj9v81S1NM1h+3lZjkPPWLSxP5RXJQmLs4sCKyv92c+NafxMveWIlBFp+r1/P8hfvfFHWSgWHpi66PGmclF6fbcQJmRR30XfpJinRn32tIHteeNtMF9TSmx0znMHqG50ZN/VRqX7jvJvzognRMUZGkm3UqR+ePNgKqVxTgZF/hDuNuLyxsDMuT+PuKfgGvN/8PZpq/qz1LeJHN8CtEHXH89xfeLuzedA5RVyHTNdGBsoRx2JxJO69W5wpxTi31JDwY+t9dm7YqOSVQuE8CoI7Og0T8qh8wxmDtaGQhGdRTn24rXxZJRzxhvkEglbDKXt7SU5Wc+BPPZIbunR/KgZP5eGOoDH8DBUeaZbbX0fmMfTeXPLt09RvSnLSDUNNyAQwTldKAB3HeRcsKzC5cf5NPJxdqzKgah7EVgmOuD6CCzk37Y4fxhn91nD+oQimPBtoD/DSuxvdVvGdAv8yOt1oRJ6yEsXKrEeqLitnUEezwAcIcnzliOoe4xTEo1Sfrgyalzd3eeRvhE4hrB3GuZET6MLPwj/ZhOu0gPGoyPROlxXasXj8gGEYHP+Qh11iNtXsqfpRqJuQ1gCucKqoaQWEc6YJz+YNjd6Rq1iIXzSzW6XjfvgtTLwcw7/oi96Vke/vnOAqw2qeIFLCyM0Ks10W07N/X2ZpvB3eTQOqLkcvAHAPe3jwVANMX9HWmxaSwZe8DtrHH5KgC/kZtrj37Y0lJK0KeJDBMtidBUAlJrRS4f73XN6QD8f6xHQMmbm4XGNBo1ndscBgWey1AuIsg0vJ+Dh95VuRe9pdiHYJC/gYXy5AskXTDKOMiFAMKYSSR5xd+uQ+mDBfqTSOZZ/F+lG3DZk8Y/VznhNM5qNJjiah5Ypc1gQGJSrxnE3BBVz/CE+uDdBtu14FpCjTv0PEnne0sEDm/firWYVKzFhHPoSZ0VgxFKeqjPzTqnNpdxqyvAWTGoW2C8YUfCzj78QAqomPu5z1+mKCgg5uUUlvBCDjje26RDaPQhZbICQohhY6OY62j5AO0JDAo1fkNnDEgWqd5vZPnV+6CYt/6CFgq9y5XyubgAzOdCsW1vfTpzdRg5noyhY6zP/nEnI8KTrmYwxaiO2q3SanlLG3eR6kjv9riMFeSG5py6UJogpVkWjUNsWOfouwYybRycya9XphQvPHuywhLPOyd810uqOPrW4Wuk4lzeEuAZeCekGfR5EvTeKogmd6yLE/PCVAtvRKXAPMpOwU56vepPWrzlmf2SaQwQoZXJIOFr/ylW0kis3jz/r5quOcPWjVJoQ7tgrkfrvQFpv8UHGMJm3AkGzJqRtvHnErT8mFBx3ZmFkOIISZrwoEFhwDv79fmW5T3zfseSxadAD9kFBu2eC8edV2k31nCuzANbhf9CnJh0XDefDoL8/h/nNMzpTRfKNG793++OViHZlFcMfppqtpdXfWi/uBzqOLHmHsTV3avH5TT1fIrBJmE9wcE6TX9g5MVyDRvaIr47kE75ytQmZMsbX8BK0Mcj5TGrFKh+uVSbF6WxNXMyUI7OZcldJoIdVz2CxAYS1c197WykL09t/7V21Zr8YtzsWtWRd83InmHjUC/dLdcPwyVt0liMStCXKDMlLhrGah4E8F1YoA1yj0GBpXBRxgZW0DjLDkH2qe0lYQGivbvsn4rJ7uCwa/eaU0yA+2o/+2ifQ7TJM7akji7Ve/yJU+SDiapSAqFAmWX7GPXSo2vModE3SknNLf3W/93sQeAzZ5vLqfa+pPffZqu60aLfD23fMo5Tan6rUpKPTM/+iNLwJEEfZ25OFC9QJ4dmlrN5A8IFK0ImUm98xgvmWF0VpWI6GU45y62GuZFBzjadEZRnDkq8d2etlFyAwMS2dKMJn9o5jpGtSYA4T2AfsbQ7rlRrUj36K+mLSMf1h89e5KoC4CIm/IJAk2RIuVZ5n+NHXd1Zvmv9yTeZ/wH/m037GA66bUZ25UtYewNztgiPcy7sLb83feHDFKUe/K/TEfe3EplRNl2+WO7cpSABdc/5Lw4NJmQhyG+eKlIaiHUhQI+3EF00L+4xvUNPny3Avd5YwjDoiu6ZbECqV9IoEUBkpGvz1dt1WydJtv7tyZrn3+BVdNXNEmCRptJV+7VMvJsiz+O8uhhci/uCQGsYdDnx6aVZoszhdlMUh3VAJ82416GQ1br5wq8Hk3x2QMFbOnH9KVwx+UmXZFK1xN4qAmviU6cjPDcqHjBMyZnd4GSydHhPVu0gT26++Kyq3djgI6Nhi8DTc6ZhCJWsrMgTlp0npgIUPnpCxPntwrvPvQQEbxxjiOY2jzfW0y920Xwefli7nqrqfSMghqNC+c6jLjKRdw+pSB6pOYKrW+ss0VcFZ+Rfj76tXJgrKm2ug1U0Eni3wjnq2fN+whdNTbnJj0Lqi8GJOqcDY52mDRyVFxsdUPbPG1ZqEzfka7AXi9GiTZUIFE8SeSU+0B4teT/4Lgsamdkd8Ds2MmrBfPqAeT15PPZbyruidVvk2TT76nUsXFOrBSOP3h+k8Z6CKPtpX9Ed5fEMhwMWTWit/eV4fvV/yMXyP0NDKRXDwcwexlEDIHwWsIc8a9Bxul9SwdH4XZyd5Gm1o1dxeNXYr/iP5M5MjTJmXKPKogh9BKbjpnpcpWHUgzSfPLnwSghOkpc1ftVBOn/t+4JaCNXflUL1PCwbegsSgA9vIxXEp67L9NgTp6vPyI+MDpE0bpSqRVF8J/KdgypBZwHLzT4ranibAyer179TkC3FAVtiAoUuiGxs8sH56jaQc/LE1/gSrNTozIabrv+3CwOih3tW6ZqO/Zo8JBd/ju1LzIJbSFU3fRYA//6KhV8lfNv9F84vj0WJNABrEMRfk5O+uWIbAkFnp8vdAtJA1dirCJXRyiQBhlpMkWblg7PHEwHIuoTjdZ+3kUtd6nd4NH/LcepmwRV/9NR/gpayWV0YoELGs/zhJmemiHFxCeycQWJhyfksHuYcpWC93enj1Rcv8E10BdxUQDGRd7ClLd8YbAX583FmG2W3/cAXXmKihFYMv1LyCPt20HIyHjs2AB+0xs/AKoN5n/h1m+ZsUJfFrPQBM+1qBh1AnEaQ1cNdq8u8rnHMRWxX9ILrw8Mp07ZDOGvJq8DbKskBFHp8GicZS5xtM8nQAAP04AAAAAAAAAAAAAAAAAjY4wooa/EkkNBvg8gXQdQMibpttpdiC3+YXaOs/QoLMNuv2q2OXtmQXDSaxKdrqP4T6Xxbu0noI07+y8uIh03Qd8Xf0FlJWf2DvHGQhov8xb6gBMosPe/K9xZc7ccjNedr52qElQS6kdDjHhwMDvH/LjQqN0CBaHCSRa2KFug+1TOZwqnzQtcVRfS1ozrNcd5INhUcfvuoiUrr/jUr3Q5C8D3wP6r5OadtZZ+BYIgGc7onlE5+N08Xz+kXCFKEFeRS8TQ2TI5UriK98+XyIN1xRFj/wvV1GvJ1p5zsqpJ0nLDWwZKDPJTZNNpU5ye5ePF5jmxHL2ihjsXPUGudOPFEoLWAITkA3REbwDdfXPiXWXvR5F3c6FkGjR7ERPLzQ/bYADH17lLxfj1DQv+3bJY0+7/Vsbggb7zqt93Al2y7pUKsEwQGIsWAJLxNMF/yZ1VX26bQ8LhJfqLdHYMNW8JRggnpLX7YfAtGOZA5A+0SFApJ0uNdt45pjIY+gPV139BlvzhLdUXFzwVtaNghCPn8us1lMZX13XWd9nkkbJavI/X3x0bBQbZxUlqdBZmoxUvkIaSSBcssTw1hgi3e5jyjmJAHvaobfjXmPmhcE0x9bV4H/xqfVn9NQgFQq9zoFXjqD/2JcbXzlNRly+R69MnQAlzbZd/8xPaMLFhAHMqYSXkbHHF+qPk8DNokiUR+OpozNRgj+LLFYIAtJtUZefcKD1NRAj5ARvqLJ5czXkDGhma/hwtpk07BO/ne0m2LoegMjaASXAAH5R/Yxe7g4IIUpT9n//jFPWQ5/ZzW+DIWV4TiaIK2XNdEfv5ukP2Ti4aa9v9/ogGsQd+mbOgPCnM7gDsgqo0KdG7Yj+vwnVlVH0SgPIqVg6LgfcIcwMMXl1iBAtTUNt1dhFjAeGTpxTo/lR5Dgs05zAYQ5VN/FGl0wjAAaGO2PV0OpOgzfVG/SXgb7GdyluTF7GKWZ7J7I1xcR49sFBOqIbnR5Gd6kGgyrqCAWvH6fsb5E2AABK3O0gowIAXvUlfOVT7491u7s5Doa99uyk2Z160UV0f5674SVWWABB2ld9r/qqT9x0hl5p9AM0cuVxgQIMjAnZ+i1kB9YKDpbVA2bWYEo4l64NErn5ahSfg1Rfn++W2OcTZkJGOnVjOuK93t3No7ulTDxbY3g1K1JvLgXgTLo1iqJxG8iczURzvIAAeAkIqxzzUZ6PJfo2Qs/hX1bKoELdqhdj1u6JwJxYFJ2LdqO+WdanJPOrZlFb9ILcDhPlB7FZ1pOlFYnTD2wdMrpaEI496JfOCPZuwZdmTbgQBO9G4j4MfjdR4sRbyli/pnK0I42/EQOpN+K/I3UwN7YcC8zpX0OrjSde7h3A8MLWtFM9U8eLlxat6qowqOSCpz60/UQSGCNk5UDAIcqkYNPHk2f1NQJqVS+rRx2V8MzmDalivaMDYJAAIJ4i/m7Ve+isx9CTfzUkYCmOvhfXfTwMNgY3/gQ+/2IwCnFEePIk+9sRFVVu0clwkveNFxfoGXqw5hgIUJEmfiFx8euXyzKAAR8NGrbkJYL2nN364BinTqcAcl+Q4ULF5Zg3/ttnQITVrZ0dN4JU+V3oGRUaUmYeNNd1rJTj+YBfRXY0N0QTZuKBmH6pWehDfyA3A8SKGHog/39V/05WLt/VCO0j7oHgACmcu2IxZblChdtvGLD6g72JUEF6X9ffPtPBVvrIL9VEOoYvuV/lqsa0CxguUd0tpcZFXiKiqo7P/MUd8J8LgazX8xOfi9jG00joYD60FapOAYAZMe5XAdr3BPAacvmSYXt3G9rGFAEOe6iCpvrZIGJA7kglUkmm0QoW7r1oKloCAWYd4r2x8haM0UA3BG0hwFfy7e/zA3qz2CVm9IzwIVMCxgUD9beNCxwK79e0F6UK7hTs3uWoyPd5Q+b0HXJS0sXYyPZyOn5kwpURxUEVAJLgAs1nugdLrsM1RiuBLXsvqXhHppixantvYoLs5A0wk+w7jK0HhA87hWTdtYeWeoJSJs99O/wHDunGm7f+MswXAmyhQ50WIxLFSA94nILjIorLWFnHHW0+VpadEQfq2YCYGojkR6alfEHHNCMqvTJbESXWR16FJ49xngSs1MTb0GnSLqA1CKCQOLBKy5gH+Rv/WUCaa8aF7mnoQQwcWR7/Hq08kffnsdS0Cwbo2NGPHvMi4t7++lfiJXorlu8xnhDq+sBUT320nG45RW+qgcDsa/5me9/kkbmUWlt7T6njA2gALagiElva4/05FNnkNrIKsQUO4N1h+6aIRjo1DlOrKE7anjQfvIN7HxkgevhAMKOyplxTN55eoPal2voB3pIKgBG40rmQln8NaEv7dIADqKrKT4smeon1ULFJzaUaWy1u/bWOKokx8porrIdvDnZ2byZIxBjV7ghFK7XT0FNt2gqhdgukNSaDZ7NGcd8s8Oyup75uiaUDmLGrFcfmfNyLbmbNllgMFZdfztO4o0flzC4ZareRLaO6r1ozGbi69LztLEF9amUmYmXUDMrLEVBf6BpNQq4sIDd+0vDDHhy6bmXVMtaiiuES8KimKKyIM37enMMir0U65oxClbVZbp0OMUMq+nAciy0RiotKTTNsRAj1BOLG3/dOh5IEQaqc+e6lu33L3lib8Auj/69/4QVkYmncs5SwX8xNIAsEcwcwy+QgjqF2L/D/Y9nX2ujz3FFHIIQ7fVRn6y/YZCe3s9azNzb2L89xIVUNtZKkmnKC1VEi0nNpAuVxSz49mJ++C7ZtpidEvn/+K2kUxnd6UFq4tuRHHhlgnwob3YeRh//Bq3EjzmieTKFmDrFLjhUkQ7Hp6MoCSti8Mc5jVV0a6/xcQWRpQH7u4Xr/fF5grRDLtk2OlB8EAgB7SUENjxf/n6h08PtOt8GV7XSmHbZNPlHuFSA22Bbf1rEOd3ZOXxxTcBUaThP2ikA6uM1Y41wx3vpNPwZyqj0R4KxrC7PL1M2fgU2rj1exuRddArNef6u1FlsVbpUOWxYkaAlNf7CYTBQFficFqAtbXOyiAIIY0HeSQJZ8b7zzmQe8Gmlx8MD4PUeqGGJ517zXM6DogrBzyrOK7283YX/taYc5+dV7CGIUPGPlpuQKJEIks+zlMVWi1A5OXYvhhFnaljN0fjuy8ZEmGGT9D4yEfD17/uZqPJSuCiByF24t4/HE2QkFdvmkH+PgAwIUprp66KE3VCJ9pDHrHUAXdh83NHMnpUWoaf0zYx8g0TslBhTPykNqVzWTq8klH6bcFVU2lywwx016tUJP9q9opMnNRpw4I2sqowmU7Y0NEN7EoetDaHKGg7qKfcsKEoszqjtFBKgZ71ROYB0yzM/ZBpmT3mlNLSjKyhDRTOOR4DJajkE2nEUKk/7H+v8FSjNL1hN/8bUu1Kgaj5KcRLcuAfu3sdOysO22cReG9tGHTmF90coIhTX3RyRyhYK1BYr2c6QXe4NC04YHN83wrf23vTzkg429EIZouvdVM8i/SAOIliTHtZ8QfBlEii3RPX1F0VFFcN+0ISU5rpWVYM3tjTs4PgK85jktoW1Mf3m6F0Sx8uiukTWH+RyfG00U12lQ3goq3MagjdHsZwxM7Ksu8qERSBcmqOeDHHuF2mMwoCbiWOxBYfuSCH5ucOfWWpZT+UCq/b52yBfpYu924MDtchIJr7y+pv878cCtDjqpELqziow3GSSOtIrx8pL9nEHQZm33t49Zr5pMw+hMvzlZGrIOT6Unqn31lh9eRjZdB7yqYQUIjQ90zT2DelapWH10VXFPAs8v+UJodt6VKiYApaDmHumJkRuaq+yuSiT9BrNwrXgMhh/CrmTrERZpXglNFbDuGUXSbUf9p2OBGFqXWXIvFvbHoDC4lpFGog55euXPdHZnAqorJAClLF7qoqt0H6HfsgC7PcdKb0GkJTyPtxheMol1gQQ3GA6oBaGVDg2+iIKuqmY+YTz3u44tlYD1/y322k1WmgohGlqH+I1w9xudEF2bBaaASu5e8gCGO9lVlBMpliE8xTcUmVYumjfVOcd7oT6yezdf1J0xZLlGQAUhYa29VALL8ILj6RgIqI4YNXao35xXIR8/mpfKRm8ymx7NNqgqGcwDSZZ1JWrxF30V+3iasrDZzZw4evIwWR5pYjJ06l3M5SDyxUF27+ck67/TAJOK1977w9sShOzxd/CD4AMN5IYLuiBu9BSa30o8si6BZzfNxOOOQg5MbZahpBy6pe+wjdEFlfLCM9PxXrGLJ3hx3mkrUmIdZtdzyyAC53/zs9SrtQi66JwAABL5R5Ui10DhI94A1RsT3ZbvS0c2trHgFYrmejbNacVCsqm0Qu8Epz4W7pGxQKChXqr/mnOLbE11n89TzDNcKsO6Dp4sru5zPQLR5TXuB6vYQAEbbVOmuGivdbbk9JH3oaPpSwbZaOR/LtMi52DskNmA7zXKEFWutA+H2ajhu6gQLwnNYYdXmvkVx1KE8VfmGkaMZlS5s3cLtX0QGGoGzzomSAZTegds6JsUFAUTGjVWfyinh8XzJWbVYrWMrqMz01oMCJa2AbAn24jdYAp7oaPkRxDCXsQ7atg0mNkA/caWaSoqiau7t+TIt0/ouhea8L6PBTfRzGotPMreGAhShxPfrzd5YgxQAANif9iBx/ttCPxvX7T4yjWrbG85/4UD8sHcHmYC5BWSD5V+GJux10MckKIHXhse/p9bBX2tYs40JP5NH7ctZLnxdmq3nR7succgtKRCxGNUSEg+yIg60i2Hum4Qhhdl+6HQbnr8QtmGdlTdMmVgova6wAB+SRYf8NoPL/mUkZRaZD5TG9G1O1/B84k+FJHEE9iVnz8JFZj49JgYjvnRxhKPA2pIJ9jpVHTZ0nuZ3m1HsvPMitfWT6IBg8z9EiAcqo+OBGzmpbzYB18HzcID45HjK6gsFk5f9YcR2OxZTukv+Sv987rRHEfVterwtffRjEBfOBDqPGSrNa2oD8b7Kp2fP5+K6afu7BkDTqpMFMkM++Qlcf42/Zvq5IV8HCiyqTDzYNk2sGGHCx9/IIIrwpfozpjWe/98X9Uwkg59IHS9b2ifmu3OseGtwD8GyELjEpEveghXEf4sVwnS4psjmozsBYSGlWTWVvyUlsSv9wNH4MHb0G79w1rhOis4hzFoLOBJ4P2vAK8eYl41HFL4igkxe5YobZMv3n9WcFHagBtrLlyPgsczCoMze+nZJNy8+mRVyeUigGZW1aontAAqrNcjOIsfVHAxU7w9FDLatrrCSuQ88cqp5oHmUK2LUPruAsnImX/KNY89mySHv4tVMdq2xQibwFLcBmUuxSxSwKEs4jAD2dn3sOPXMf56Jz1QR6DFWjfkIUjPkSRQK+QMPL6WSYAVq1+5/QO9aq6PDaVuR4bNPPzblmDy3okrLrqLTOPeXfBG/kHsPYFCN1jA4+H9E4oUe1YeuL/aOSI2jRR7ZCRezNn9mDSL57WQv49u/uVLSWFHvakAUqAwoDf1ZYBfZAH8GjM4J74CcVWfWlHjW3bXQn1CkoYwlObcR4y0uklzTTbqddpYXkJp22UD9WVjg5i6GYnnvrv2am4xO+NvV+zqtFh1JoGT0Icjxtwes5qUoHheTtOE3O67BUk90wFQ7Key0/U6F5mDqdMB8v/hHkod7HCU7xRwu266LjMgSNOGEWD0sRrA4gTzFjXtaebVYRTUQB2VxiawvJFTEljl6oG87JW74yEm6CrqN+G3mO93ubZcQJbNkYlJE5mYYdh0ByJz06agYtLIHmFx7/0uhywU+bm5KO+1RNhZqnAQ1Np6eK4Lzlz3qGx/DVZtLN019GZ1gGpCrxZJ2CUPiOrGkqR2r5huLnTM3fHlY+3pvPbuhOBvkAL6ffBJzxCI2WciKXGFbC8j6EWegPkhdJ1Ggv43jDH+3o7p08MGYexCXLUxhQzrkcMMnJmxKh4MicFwB3fuRLjlwcXQEA4FK/kNFgcCr9C7XVzG1Q7bJJ+LMWI5WAeDbaucNSkDcnYomU9L1n2Gk/eqF5Gz2ophUipJIT9HRyw3t6uQqfI6Db3JQR7zRvoGIizxFbQWk0mcNQ9ntdw6MbdC6r7rqZl2w5J4wSSzK0y/wgB5uYRmnxJgMMaqFNlIvQBC/iApYR5mn2zLwoXj05AfvHTtc2UaXbltSgUfnrtfAGo4T5iy6Qp8jp3/ruN+7vddbMgBYnQWGZdKk4EFiSTIMbGsx7EUs0vn8IU/14+AmJMndpevAGgjXyGvyMTFH7BbJKhcTd1A7ggclxYcUw0kdZWzmD23nIgSQEYTjvav3F65nlFif7G9XY29zDdjfuqBZs4jk2hXuKvs6mU3fqSLgmWSRuUPnHJ80qT4GgvH84xiTS7N3P/oDSHTB5OFWx9a8uHrI3cTbEcAD3ayT6mhyM5/LScC0tNG9jisZdGvRVO66wRcbYLYI6f1LdTFNkZxoSNXMevEVXVxJTZDHWLJnWsN9qrpXvPDaLpZyhpjkAsMVMPEjYoYNgzwF3tIUyTpG6YMRbXkmGFpu1HIQcFDvMoMY9oFdI80A/fXcWFt6yq2QoPaOmP0QvEhu3NxJTjDvYtFDjM/QHG98FYzRDoGqDuHpLHQ8OEflvDlX/Hd5ez/kzRfqTWcf+hIKXZCVgdJQWRIvH7tFYNM0XJY0RpWv4OyGa9jTlSdNIUSmBqyg83ts6u9gyoZKGbOCNCS8LVfPiePJLde8ikpc5SI9EUY5zifoT2CRMC5PVCzHXRSUFOhYz0zAys3cttDTMCEaGRo8N9jBBIRoF6kx5bP35HWda9hJGAYtUA2IZdlNvWPMWjE46Ys/k/O0ae8QLiV1Cvju57wW0eGAYvmOw2Lv83CVQLGYOA+RCjjI/Wf823wt4RQTvua0iyjUEWJw6ThMyhh9AIAE2AcjhzKICn0b802PchSGyNIBoDT0/JypkN2SLWtDaN4+e5AIBXpc8SLFQ1iq44dSU22l1LKxvq8nXMs8HiYfVh31VVsi1sOxl8nTRI0lhe7auQ37jwKLAP4YvMMuDxTAvTrsYq4GyP4rzMO/7ciDxND3JnOWdcOSRXYKpdAxQT/SjEqPtSyc3KtwFdUYlf61JtfY1iM5VAP8xGGhe9WXwllLmgJY4NfFtkL3YwXzXt6cFTAZDKN2/tUDl3MKlftXHHht4qpRLuuHg7v/WsFD/5CtqA/Grs+VUKMLk4PPU0XrbCw44f4KXa6tdw6ldIdUQ+Rto50qBsm9qECVCeic8eT+WR0wZtCSpJ0vUYEoJ2Enwx5YZbkhpyONZ1HPcTKJ8UOKFVsspX4jruyJnvdHbDczwyl/KruPunaON6lfk/4wB04qdnHcj4npgl2KUn9SYXm7NKIqH6KUwiiM41AZgq475XYL9uuFngr+HCKNWXHutj7VxpNvV+miITNAc16pcnK5fy4ZZLh6kXpPQ1aayDpJDlzXZwfCdiXSBMO6fIFOgESZoZiJPAZKob2LxUge4oC9VwnmpKmX2LixA2o3m8I5/sDu3T8kLLwUYGAJTeE6PQW5IhUof5QQZ27G62XcshDtVNJv/bSW2+xotbLriELuauuiZHRd8l3GGfRA3ILw9lBYbJnC78/AHczSXyw3N8mzVietWX9ggbOjN38qQV3Bw+T4I+iyGbYmT8u/b4ShY91I/g4ZUAkZElxn35p99Ui4Nh8F2nkC1JHH6h1TQdBhEsdfzC39JVPXdqLx48Jr/y3QCvwbQuwQg4cjkEUoe3s0WpWgI9hx2xuCjoWaWJqBTQr18L5DfCLFEzR6sAHWh05SqYLCFqKV8H19ZgrFeEBOxgifYaAgV7vel0IlMaxKKKhZhOIwu/IkRYG2CXh81Xt3WS3rSWm3KaZvc/isFbLEm+AGs2tw5N0qpIcnqug2LQHXmfQYVutr3LKI4Il5TE0IdHUX+hAOLmKBUR3dT8zt8UiUUU0UPYhVicGuJueWlQYD7eFCt297cU6OuRitXI8ZviKlDnYXggEI4TofZY/9VTqdqFSmaDTLzfhR1O6OsPZiBIM1CbJ9LQO6kyzcJturxWtXQTV7QHVMZ1ZvfCTqBtlDps0SRSNQ5arfKZtoYw3j4TRZ+3/zQQZzt9BVbqti8xoqHQAZCkRi/lh+jmBFWE6i2sy6GrJT/qYg8TZ95zRV9PcqgXrBEzZ/NyNGIQl9Mb9OwKu7hDLWDOhR9wqUAKazXZRnW4yieKDr0oMuTsusJRmrbwmx3OOKgrHxKZeqrjDseDK2sRYysBFFUAPjeJjX9xCv4vWR59hjzpb1nWNE4Z1l7vU/i4+ELapEK6AZ9Vy9hBBYmaU6HeBmOHPQlbKrC+FcnHS5Sp3fbYPkwiHlWVmpGqlXDkvyazOK7sjvD/8b3D4ebIMSyk62xc1+5v4LwYKLDjyjulDOJLE3dytnLlizm3kg12qzOa87xtzDlYQIUANfhkwOSEG0UFI8RNO1EU69xDKyTEnyi0QycqMl8CI+Pgntn53AwsbU6jnBMA0y798yB0CJ1Kmiw8p4BktNa8acO9bX52StTjGWPtHuzKYbkl9E2hORBpO1y2OnUn7dnAOSf2B182N5yNjrmhR6sGgLXnIAYKxgTW+7HLlOFmWsg2+j63tnPlCO1m8tAgAbQz7ax9QKqKmV08TuvFxmS13NdCEyt50kuLX2Ni8ZGnt2xWVdJF7/GVs1YsH0U93az/k4fsKYUxTwVpbpg1jgkD10otToGMnE6owRbzEXOmgcThuhZmUuzHnY2PZRYVzhRZ2R1TNZvC6noVX6ouG3nmIYF0gjw5V32QfeqqqqWIdLFOrCIB6/r4RaCTvYK7+6vkyze14fYkBgSDvNZWcQV6Tj9QUj3CWAjGv2dbIHdM//LTHETZXjUV3imEK4gaUBIANroCFZZqvQavENVo1w0LDxvgNRw3iIfOM9bcfJ6MJwZGNDRRWpYMVQ01szbfGmw23VVWl+CHExcT3gtFEayJ9mOkNszb/t/Zsi7GdrK3j0kusjh6oM1plsGhTXYFl4ITHHdGPElsi9kTUOkV9YxgOjMKJ6JxIy2b3a7KxTy4mPqAMA6njrvHUxRcXbzY/rckh6sCXKksyuQX22JlYoJ6S42c0x+HIT8A7FsGDoFCO4ga94Ahfx21dhLRX2BwN+afapbv+JTnT/L4cJltKxSpEd4dNZOSb/J7/cswMhkL0j6JYCF6YPlmXcdsz8K8/3ETqVfQS655j4OmwX72F8TNK7VGjBG8XpX8QcuNWEK7PAriUnCQB1hj/Mx/zaEvAELtqMQ4MaTzg09AKTQiOBPh3s37r1nW+3GuHHnauRalsdmw5Lhf/9WP9AWHWvZeFwuqsichHBKemJ0UuRBrwEJ5xrabWQuaooHtRrcHtjJfRIwCcYot8GczdeaAuBqqU4GtSBpSk1WSo8+Qn8xGl5y9JAx5bi2KmyWyrXe9IAx7vMheDrH221XSk/6SL7RDmj6gSgDgJdJ6jgFiGmhswvZFPDh+NJ31fVzBn4DgMzKEo2PqIRtH88tLHFvBULuMsKjLIuF0wkEi7Lc39BqYDA1Pvlp22jYlDxvGDv/OlkSelmS06Y25kiz8whW96t2wpjCyl2OreeRmkL10DT37+vQ+34jWqOzoFLsLqgMwo9Fd4jXb1hDh86hLFU+LlrYuuLYADfr7uQPGuqVet2jqC5jXzcWRyirZcN29OslhSVhsXx84ZOAbUclH4Adgz/D9jWYAiupppw4ZHHtTBxmpPIUTQGFiDLS6Pw9NJI4UJbfO4maPXyzWS2ukBJBwFeKXp7tcFN2LoLRr0tZIm40czgAAAcbPvpofmsUv0/p9dUUuNQdro3Kl2eNfn+ffaVNVvvwyDOrGvVk1Oas85gGouOHf6fIvJRFhHTWpK48AFu7sdbBFPayg/078+npafs4jBJHohTnmw0MuCECtVGlu/hU22QgRPt9DztD6XgeBQ8KM0hZ4bahsLgsjfyrXVb0GNE5KADlkDBOwVKRKFJrijn/MuwX1FY/H1BGCsRpoEQpSXPli9EDdNX6N56mpGIvtWdkBOicONL65PlsRx48MZ/4lcc1jWYDAAJWvQSNgcH6o6fzGYlkIBYFmulBQMdXpxIB31/bCQPOHre9i/BFJ/UJn/hvE4lAE8CeSFymMEB+P97+JpXoIbUpWrWk30aMyf2Ezy4acRbgw6xUuervBQdZE0jgjeIrOV+A4vZjAnuqZnXYsccw03FDzmiwRMLh5ARHdHrh8jPHoaTW32a4Jz3Bs/Eza1+MY02CPUop4sRFm+jCSU9nxj8hiVHEB+pioHXGkuy/Gg0EAMBoTZVN79G4AvEauZw7tUFXSWBrlVtgqzzRaJEJ+slWFQOCIeYiAqBjGUqT3RYRsk+9KEQ0OEQtRTZ80+enDqV3zhzSd0Q/oq2yV0eNfzeOyCJji9mMvM/YNIcE50HF/cl3LXnqfUcbLsaplvZagZXUoMdhossUiWkyoj7n3BRAoVqvEqJAWtYkhOly58xb3N1J6TLdSFgzABLxFRW4zm7aRJJu925pL6tt9ydQjv6UP3YdiXm9ysXTc4TP4Kx1lnjZoe/XazP2p03HjnaNVRz9jNEWUV1O5VwxL4iIJ+Q0lS/jSYr/r+eWd18iZxlmLvIMCEXOAZzRmkR1k71mrfqkZ2bH/R5cZDtVT/Mgv5PAZx1YuhsbjLg84dQTZfaFPk77ae7RcvQClxNJllXKWhmZ3YobNYl4A/Ww1R3BDO0ACs+4YR6gHJS2hgpu4DKhB/YbwT8gI953TYcsEhnoEzGxAHY2yYwTujd2NPQyMZwMqP4ilGaIQWC1mgtELU+fALSHQ/zMfzQOsNLv2pu3UCcqBZ0hmxMDS625RBvGa5WPIVa8V+LAVuYyezlN/aRtgreM9IG/rVL1yQJMTNf6USXkadynZKbAvLHe3+DOOvVRaMMKLpOCS5CiAh7za1+SVpFpoTWmmMo4N5W4MxEi3iqmey4ujiAGUkt25aI2J2unqKtdn4G1uiKdf95KVSXYm4kJvvrgZSErvhKqADElfFW9ljrHQZxzGhY8nK3Iic89DlihMC4kvbtVwYCqM45F6OU9Q8DC9mV8sCUsuwJGwKe2tFO2vl9qhJGznxWExMmD37TV2Z+pq3kL3by9PSiYePmExSgAW7oUitrsPXTJA02Xo88x0SAAtPe3Odm0gaR/xGJm/X1Gb9LNFj/ooOkvzTkWnASksiC994Ah3lHtCSyxjF8a/f/TXrhtyPq+3TgAAHwl3riZk6j3xlAd4ZIdx74WB+pejEF3xFClpzeOOOgq1xtS/rBhXyn5/jjtygKQ8EILTU1mwfLeo+dCEh4ChFNxYjFcrAY0u1VKKI4Hzl7AZj2JHCDMyozNiuSprbnHTTcJcL6OOZyBAJa3CzJgI4jydNK7tb0cflSmxRoL5kP6yquoGJPTunAwLQVPdvDZFJbS7xfThcLSiEAQuU2vXGn2rEJGGYfpDGKOapadnsdr1vmk9trpIuQ2gfurgSAaLV4dgwuDwumCeiI51/Eq4f+JLe+7Nt4Q317e+PcJCl7PMHV9thCXjo4etqfY9lbgMbUt9k+DcQxRb0Y1Oa/w/3X7L3YNmaPUPcbg4396A6Ce0CQ/kFXW6MwHjoM/BSCyuUMkAfsWEp/6VLNAaPgTWBZ7gLPI6kH9BSO0GWVnSvxtJuH70E5BqXlXYBQxyI8WZ+Ct76HelY/91X9eH41kxAxKgrMdPdFqb+ZoTZbOJUeZCqptdzisf+72azhrmKABn19NzrdwWIvIo9VIymWpzIKXCmGpP9RZpE6a8+BSl98vLrOEd83Vr+6qmX27hhHpNUm2MNGKlij7/3pCS3XQpjsLzW9lIAXxXJiUGW14AwcPD4TQLFKiefb7jIREqYSfb0Jbed0+oESJBOC/4u+xJ9XR5ssGYPhz0nhcRdqYbavgfmgEdrtqxABb6zi1HS6LPIO5lVSeQmmabm7eMPIT3z+WPQcdWYI8cRPd107c/Z74R8N80itycUG/16Mb2/00HctiPYxf0Rev4qybT5uucpNoCHpXY/vC6BEHdirRbKIcAb3EfjK/YMUH6mWOrQT/T2IsokYETIB3Sh0aZGgtEcAVeYG/ycz/MHyq6dWaboJcka6X/fmZ+gXk4OzuyhPkTN3SVMH4wAShBewfpH8JcqLDb5V7Y+5DtjmuPSRMtgyqd0ZjO+CyLBM4xkEbXxXqq6S/QFAXWNkK0EIhBKDk5kKoAZwO3efMBCP3LNEqqTtOF+YKL4XEUcm7GHgIKE3BdO+y3B2ggrqpGA6zyB0ARcnv9kJ0qLgCjbuurPXwbXM/4PNkfJROMJ3YFeD0KHvchC4XdsjRC9yHlnuvndAOH5odzq++d3GFW3qRVKU/gqydHElU9NlCxpFsTd9Hjgq0DVsXgDPs9gaXvIJyiOuAotDcG99tfiUdpCDZpHa76yOStHFRiK7bQ9mnfjYJCevMyeFNCEhPkCX+j2wQKbrijlETDdraMtcNR9ltTIrFfGotokF58w2oxf1mTY58nDBSjh32XD2mvQzZoIFkiGEoXWVyZhxqpBpXGAMnCdyeISJDbuzaXJ4ATIFhjHDK/D95sHT/v3UMxqQXa57gdrnYIl+h3JswGTYHceF5TZ+8XUyIjPlwPfyaBbJ8R1v6yLgqGCczLi1NLaXPwfiiXHiUTkGfitRxvCSl5P7lkC5pkbqGMABq63IJiymyVTQ9JczS6g5rdGVsvMiyeIJv6tlC4VEKwOyPBHzMyDsogLUjCfDdM2mMqpLKp6mVQB5hfOKmNfOVRCh6Ol8lkpZ93IbH01PWIMol1awCHs8lOIiHKsR+oTtXmJAFHoRieeoxX+paRGdeLf06E1pkUvSy21PFEPEEvOORo4VTGUKeWKrinrQBZhkrwVeAqC7ON5urg7o61Tjzak4k9LReIvRP8XGJUhu9OnkG9sRLlQiv3AAb/043ao3nrx/UufEqxvSYAaYT34EcUEGrH54AVbTX1tAlIEz0QzeIueb5h6PD0Tmm/6IbugRe2rN+6DDSeFlDsq1hXFL0KUEGNocEEZwMh6of0Oo1fGYPU9oU6l5ZicdPAh2eUZITITGt/uZKyHOPHniWCe6WVhlBe2WbqXZA5kYOCQABuabCeZi25vBqpW984CEACbIBRCT8m6oizsNrj+UwaKeRh3TOeYZj6fe/11Evp2MWhuKx9rIRaMYAICbfObP/AMWa1shM3JOMjNAXeuwc/kkDpH1l1jjYXu8mZ4wjt07YO9/hdv3ci5f5FgDZ2iORxViEJ+67ju5w0LMCLost3tgwmGGcJ86HUI6fuPgMNhiYUuvwSBandbtH9o2ViRjXpy3rACcAMPP3wlWoEKF1U1tXfWavIXsoOwaaOKRHrcOwdjwijGCpudHNjXupJSkT9ld00dIoGNteADW7p+kh3ecT4FBBhNMdh7mWQRxSm38hMAaLFUCtgT3pOLpD+i1/tWLDD/awF+1S7JaHIVcXFaBpic/ZNvjltADvLSIj5nSpVr+C1AQ/IOOUNo6Ow5iWbeEWH6f5JCgs9ydzljvt9Qhnkz7Dj8L0/6eJ8lz7Aaruv0pW1Knb8DImb+tzZ6xHpPAC6L1KUEkbAilHsHJ/B29bMPKMXunSDszLYAAWI82EFkZ7MPW8CEv567qLBbNag98f4Nqp1Be1Z512QSRleuZEC76BuUYrHijfXtjutvFtv6qtXVSTayonYPFi5iDIDOxm0ondQpJXFWokvZ7oZ94HIiQQfcGv4lYo0vI9OCV56I1cvt9QGiGOU1EWnZi8YZobD2N51EArgQhZEh5L4OVGTalvhgi5vHm3xhrFqXBniIsQw186PFH2XeXScGU1G1qSAAAIz9kMqAyWhoSNODbicndNkEtjDiZZReoqoAE1iZBL1VxghLhj/LUCevnAOJNeLZT/faclJa3RJMdaBupYVGusn0Br0aCQEB52xtpfmtrjS+Gz/2gz9/kbCy+tPEbiWvJ18b3KLHJoBE8OKQ1hJaH38vokaR42cEOb7Uo1Q5hzDgdITIh5Laln97AEE+4DfwHoRqNkTVT9uySFBYdsqGtTfNTNVmofJs8lzsiXrN9JgKzWouVVEVenGxUNg00t53ZwHrFqXbp9c85lREeMXAZMREdnf57AAAAz57ZrQUvByKhvbFPxzjGzSqVdRvW/x7xQYmZ6M/nw8GbOLAsrefRU+wYrJUw5fOsFRP4tLH3UmyRgAzISuj5QH4wY6cHiv/ukdx3SD5WihlYu5/hEfVVvWFW0z9XExmo0Nhrvdh0sudUoiDEwy2h0bW6Z8A3U0RPrN+X8oiiLdVZA4xpvFTuzjfZtQW7Sp9eHtIuH+K6gPBAapgnSrAdxdIcAXd908LBhLadw1nDDqxglQ1NZ6PGQDE7YX4fLoi2A8/VIdebEkcx1X0IlKzWKGh+PIKAKcXxABWjUeHy4hJnrKVwKmatOKeqV6itFjddH1ymiIGcn052Df+hOAAABLrOwg4QbsBRInIs6T+OWIkv1iI7b+ngae4ZBHYG0UegwbSA62HMTyMKm7QP0RfTdVOEWo35pAcm/mw78U+KGpLn8d8IsxgHbhmtN0LbtTOLb5CTnVwljhIrPhJ1hoEfvvQdOHqlnIlAquxe+blo79+t8ZX6VqTrsli4WgQn0v+ppcHpWenbUCmnW6//nQnJ/EaTJgw0SZwLW8dKOdFaMHCw4Ffk9a433rAocctYRxenU8DOqzsrvr8SAsYaY7XoBtS1V+ehg1avKhKcOvJAkmEidn+LJyyBPC/CTt6P7xkSz336tFkfCImbQAzMTZJcOwSm+D48iXieMpP4D3/UIK511bye/LiZy24gvlbViE1pRxDYGg/PZG6tFjdB12UChf9Hm3cMUwFwt3Uiongv6Y2tbOIl7GYP9Pq3Blx4WuLcfRTDyoX7RDKa8LffIzm1vm3VfayA8JDEI6eooM9Tptly4Owtllih4d4uIC5ck30LkPfiRIN9wAAAAA4dyKcAAAAAAAAAAAAAAAAAAAAAAAAAAAEVYSUYQAAAASUkqAAgAAAAAAAAAAAAAAFhNUCAOAwAAPD94cGFja2V0IGJlZ2luPSLvu78iIGlkPSJXNU0wTXBDZWhpSHpyZVN6TlRjemtjOWQiPz4gPHg6eG1wbWV0YSB4bWxuczp4PSJhZG9iZTpuczptZXRhLyIgeDp4bXB0az0iQWRvYmUgWE1QIENvcmUgNS42LWMxNDUgNzkuMTYzNDk5LCAyMDE4LzA4LzEzLTE2OjQwOjIyICAgICAgICAiPiA8cmRmOlJERiB4bWxuczpyZGY9Imh0dHA6Ly93d3cudzMub3JnLzE5OTkvMDIvMjItcmRmLXN5bnRheC1ucyMiPiA8cmRmOkRlc2NyaXB0aW9uIHJkZjphYm91dD0iIiB4bWxuczp4bXA9Imh0dHA6Ly9ucy5hZG9iZS5jb20veGFwLzEuMC8iIHhtbG5zOnhtcE1NPSJodHRwOi8vbnMuYWRvYmUuY29tL3hhcC8xLjAvbW0vIiB4bWxuczpzdFJlZj0iaHR0cDovL25zLmFkb2JlLmNvbS94YXAvMS4wL3NUeXBlL1Jlc291cmNlUmVmIyIgeG1wOkNyZWF0b3JUb29sPSJBZG9iZSBQaG90b3Nob3AgQ0MgMjAxOSBXaW5kb3dzIiB4bXBNTTpJbnN0YW5jZUlEPSJ4bXAuaWlkOkI3M0UxRUMyMTFDNzExRURCOEU2QTcwRkI4OTBFQTIxIiB4bXBNTTpEb2N1bWVudElEPSJ4bXAuZGlkOkI3M0UxRUMzMTFDNzExRURCOEU2QTcwRkI4OTBFQTIxIj4gPHhtcE1NOkRlcml2ZWRGcm9tIHN0UmVmOmluc3RhbmNlSUQ9InhtcC5paWQ6QjczRTFFQzAxMUM3MTFFREI4RTZBNzBGQjg5MEVBMjEiIHN0UmVmOmRvY3VtZW50SUQ9InhtcC5kaWQ6QjczRTFFQzExMUM3MTFFREI4RTZBNzBGQjg5MEVBMjEiLz4gPC9yZGY6RGVzY3JpcHRpb24+IDwvcmRmOlJERj4gPC94OnhtcG1ldGE+IDw/eHBhY2tldCBlbmQ9InIiPz4=;" parent="16" vertex="1">
                    <mxGeometry x="60.5" y="50" width="19.5" height="14.61" as="geometry"/>
                </mxCell>
                <mxCell id="29" value="" style="edgeStyle=entityRelationEdgeStyle;fontSize=12;html=1;endArrow=ERmandOne;startArrow=ERmandOne;fontColor=#000000;exitX=1;exitY=0.25;exitDx=0;exitDy=0;entryX=0;entryY=0.25;entryDx=0;entryDy=0;" parent="1" source="9" target="7" edge="1">
                    <mxGeometry width="100" height="100" relative="1" as="geometry">
                        <mxPoint x="490" y="300" as="sourcePoint"/>
                        <mxPoint x="400" y="160" as="targetPoint"/>
                    </mxGeometry>
                </mxCell>
                <mxCell id="30" value="" style="edgeStyle=entityRelationEdgeStyle;fontSize=12;html=1;endArrow=ERoneToMany;fontColor=#000000;entryX=1;entryY=0.25;entryDx=0;entryDy=0;exitX=0;exitY=0.25;exitDx=0;exitDy=0;" parent="1" source="12" target="7" edge="1">
                    <mxGeometry width="100" height="100" relative="1" as="geometry">
                        <mxPoint x="490" y="300" as="sourcePoint"/>
                        <mxPoint x="590" y="200" as="targetPoint"/>
                    </mxGeometry>
                </mxCell>
                <mxCell id="31" value="" style="edgeStyle=entityRelationEdgeStyle;fontSize=12;html=1;endArrow=ERoneToMany;fontColor=#000000;entryX=0;entryY=0.5;entryDx=0;entryDy=0;exitX=1;exitY=0.25;exitDx=0;exitDy=0;" parent="1" source="14" target="7" edge="1">
                    <mxGeometry width="100" height="100" relative="1" as="geometry">
                        <mxPoint x="490" y="300" as="sourcePoint"/>
                        <mxPoint x="590" y="200" as="targetPoint"/>
                    </mxGeometry>
                </mxCell>
                <mxCell id="33" value="" style="edgeStyle=entityRelationEdgeStyle;fontSize=12;html=1;endArrow=ERoneToMany;fontColor=#000000;entryX=1;entryY=0.5;entryDx=0;entryDy=0;exitX=0;exitY=0.25;exitDx=0;exitDy=0;" parent="1" source="16" target="7" edge="1">
                    <mxGeometry width="100" height="100" relative="1" as="geometry">
                        <mxPoint x="490" y="300" as="sourcePoint"/>
                        <mxPoint x="590" y="200" as="targetPoint"/>
                    </mxGeometry>
                </mxCell>
            </root>
        </mxGraphModel>
    </diagram>
</mxfile>